<svg width="835" height="835" viewBox="0 0 835 835" fill="none" xmlns="http://www.w3.org/2000/svg">
<path d="M417.5 835C648.079 835 835 648.079 835 417.5C835 186.921 648.079 0 417.5 0C186.921 0 0 186.921 0 417.5C0 648.079 186.921 835 417.5 835Z" fill="#E62B4F"/>
<path fill-rule="evenodd" clip-rule="evenodd" d="M463.442 47.4561C467.402 44.2923 499.712 18.0738 482.592 17.7484C465.584 17.4231 425.735 23.7618 420.54 24.592C419.733 21.8658 418.667 20.2054 417.511 20.2054V52.1119C417.511 52.1119 417.668 53.5367 418.151 55.7132C419.991 64.0376 426.621 83.2668 447.724 75.2453C447.724 75.2453 448.532 74.9087 449.766 74.0785L449.764 74.0759C453.632 71.4833 461.727 64.1766 463.038 47.7702C463.038 47.7702 463.172 47.658 463.43 47.4561L432.186 47.4561H463.442ZM417.5 20.2054V52.1119C417.5 52.1119 417.343 53.5367 416.861 55.7132C415.021 64.0376 408.39 83.2668 387.288 75.2453C387.288 75.2453 373.69 69.4563 371.951 47.759C371.951 47.759 370.583 46.682 368.485 44.943L368.488 44.9361C359.586 37.5152 337.671 18.0288 352.408 17.7484C359.005 17.625 369.023 18.5 379.132 19.6668L379.131 19.6681C395.092 21.5079 411.274 24.0872 414.46 24.6032C415.279 21.8658 416.345 20.2054 417.5 20.2054ZM508.384 70.0396L508.388 70.0358C509.654 72.4547 510.505 73.9662 510.505 73.9662C503.807 94.6763 514.151 105.222 514.151 105.222C530.575 120.715 544.06 105.48 548.952 98.5019C550.231 96.6733 550.915 95.4167 550.915 95.4167L563.121 65.9335C562.056 65.4959 560.44 66.6178 558.645 68.828C555.896 67.1227 541.929 58.5627 527.883 50.7431L527.876 50.7503C518.993 45.8043 510.065 41.1615 503.93 38.7613C490.198 33.3762 503.01 59.7855 508.384 70.0396ZM624.208 88.5732C639.892 95.4279 600.009 107.275 595.14 108.689L595.124 108.682C594.82 108.769 594.658 108.812 594.658 108.812C587.152 123.486 576.865 127.133 572.31 128.041L566.265 96.7303L566.263 96.7293L572.31 128.052C570.851 128.344 569.976 128.355 569.976 128.355C547.415 127.693 548.649 107.387 550.13 98.9956C550.523 96.7966 550.915 95.4279 550.915 95.4279L563.121 65.9447C564.198 66.3934 564.535 68.3231 564.243 71.1615C569.37 72.3619 608.614 81.7633 624.208 88.5732ZM671.675 109.059L646.276 119.403C645.232 107.87 643.505 78.5773 654.129 88.7977C658.886 93.3862 665.359 101.082 671.675 109.059ZM675.871 159.129L698.432 136.568C697.602 135.749 695.684 136.175 693.182 137.533C691.297 134.919 681.671 121.658 671.686 109.059L646.287 119.403C646.545 122.118 646.747 123.845 646.747 123.845C632.633 140.416 638.153 154.125 638.153 154.125C647.398 174.723 665.684 165.804 672.876 161.227C674.749 160.026 675.871 159.129 675.871 159.129ZM746.191 180.86C758.061 193.189 716.685 188.881 711.648 188.32C711.498 188.305 711.382 188.292 711.3 188.282L711.237 188.275L711.195 188.27L711.155 188.264C698.612 198.956 687.696 198.384 683.152 197.475L689.547 166.219L683.141 197.475C681.682 197.183 680.875 196.858 680.875 196.858C660.277 187.614 669.196 169.327 673.773 162.136C674.974 160.251 675.871 159.14 675.871 159.14L698.432 136.579C699.251 137.398 698.825 139.316 697.467 141.829C701.731 144.903 734.389 168.609 746.191 180.86ZM331.069 38.7502C347.011 32.5013 327.187 69.0861 324.742 73.5176L295.864 85.4881L324.742 73.5288C324.585 73.8093 324.495 73.9663 324.495 73.9663C329.56 89.6328 324.876 99.4785 322.293 103.358L322.296 103.36C321.466 104.594 320.86 105.222 320.86 105.222C304.436 120.715 290.95 105.48 286.059 98.5021C284.78 96.6734 284.096 95.4169 284.096 95.4169L271.89 65.9336C272.967 65.4848 274.571 66.618 276.366 68.8281C280.842 66.0682 315.228 44.9655 331.069 38.7502ZM284.084 95.4169L271.878 65.9336C270.801 66.3824 270.465 68.312 270.745 71.1616C267.605 71.9019 251.681 75.7146 236.225 80.1223L236.225 80.1143C226.442 82.9078 216.838 85.9369 210.803 88.5621C197.288 94.4725 224.998 104.071 236.056 107.53L236.056 107.544C238.659 108.352 240.342 108.823 240.342 108.823C250.248 128.198 265.024 128.344 265.024 128.344C287.585 127.682 286.351 107.376 284.87 98.9845C284.488 96.7968 284.084 95.4169 284.084 95.4169ZM188.321 123.352C188.882 118.315 193.19 76.9394 180.86 88.809C168.609 100.611 144.904 133.269 141.83 137.533C139.317 136.175 137.398 135.749 136.579 136.568C135.749 137.398 136.176 139.316 137.544 141.818C134.93 143.703 121.67 153.329 109.071 163.314L119.415 188.713C122.129 188.455 123.857 188.253 123.857 188.253C140.428 202.367 154.137 196.847 154.137 196.847C174.735 187.603 165.816 169.316 161.239 162.124C160.044 160.259 159.149 159.139 159.141 159.129C159.141 159.129 160.251 160.026 162.136 161.227C169.327 165.804 187.614 174.723 196.859 154.125C196.859 154.125 197.184 153.318 197.476 151.859L166.235 145.456L197.476 151.848C198.384 147.304 198.956 136.388 188.265 123.846C188.265 123.846 188.287 123.677 188.321 123.352ZM119.403 188.713L109.059 163.314C101.083 169.641 93.3867 176.114 88.7982 180.86C78.5777 191.484 107.87 189.757 119.403 188.713ZM88.5732 210.803C95.4279 195.119 107.275 235.002 108.689 239.871L108.682 239.887C108.769 240.191 108.812 240.354 108.812 240.354C123.486 247.859 127.133 258.147 128.041 262.702L96.7303 268.746L96.7293 268.749L128.052 262.702C128.344 264.16 128.355 265.035 128.355 265.035C127.693 287.596 107.387 286.362 98.9956 284.881C96.9457 284.515 95.6173 284.149 95.4466 284.101C95.6471 284.213 96.8375 284.884 98.5019 286.048C105.48 290.94 120.715 304.425 105.222 320.849C105.222 320.849 94.6763 331.193 73.9662 324.495C73.9662 324.495 72.4547 325.346 70.0358 326.612L70.0396 326.616C59.7855 331.99 33.3762 344.802 38.7613 331.07C41.1615 324.935 45.8043 316.019 50.7503 307.125L50.7431 307.117C58.5627 293.071 67.1227 279.104 68.8279 276.355C66.6178 274.56 65.4847 272.945 65.9335 271.879L65.947 271.884C66.4001 270.812 68.328 270.477 71.1615 270.768C72.3619 265.63 81.7633 226.397 88.5732 210.803ZM47.4561 371.558C44.2923 367.598 18.0738 335.288 17.7484 352.408C17.4231 369.416 23.7618 409.276 24.592 414.459C21.8658 415.267 20.2054 416.333 20.2054 417.489H52.1119C52.1119 417.489 53.5367 417.331 55.7132 416.849C64.0376 415.009 83.2668 408.379 75.2453 387.276C75.2453 387.276 74.9087 386.468 74.0785 385.234L74.0759 385.236C71.4833 381.368 64.1766 373.273 47.7702 371.962C47.7702 371.962 47.658 371.828 47.4561 371.57L47.4561 402.814V371.558ZM20.2054 417.5H52.1119C52.1119 417.5 53.5367 417.657 55.7132 418.139C64.0376 419.979 83.2668 426.609 75.2453 447.712C75.2453 447.712 69.4563 461.31 47.759 463.048C47.759 463.048 46.682 464.417 44.943 466.515L44.9361 466.512C37.5152 475.414 18.0288 497.329 17.7484 482.592C17.625 475.995 18.5 465.977 19.6668 455.868L19.6681 455.869C21.5079 439.908 24.0872 423.726 24.6032 420.54C21.8658 419.721 20.2054 418.655 20.2054 417.5ZM38.7502 503.93C32.5013 487.988 69.0861 507.812 73.5176 510.258L85.4769 539.135L85.4836 539.125L73.5283 510.258C73.8088 510.415 73.9659 510.505 73.9659 510.505C89.6499 505.434 99.5001 510.134 103.371 512.715L103.369 512.717C104.59 513.54 105.211 514.139 105.211 514.139C120.704 530.564 105.469 544.049 98.4908 548.94C96.6622 550.219 95.4056 550.904 95.4056 550.904L65.9224 563.11C65.4736 562.033 66.6067 560.429 68.8169 558.634C66.0682 554.157 44.9655 519.771 38.7502 503.93ZM95.4169 550.915L65.9336 563.121C66.3823 564.198 68.312 564.535 71.1616 564.254C71.9019 567.395 75.7146 583.319 80.1223 598.775L80.1143 598.775C82.9078 608.569 85.9369 618.161 88.5621 624.197C94.4725 637.711 104.071 610.001 107.53 598.943L107.544 598.943C108.352 596.34 108.823 594.657 108.823 594.657C128.198 584.751 128.344 569.976 128.344 569.976C127.682 547.415 107.376 548.649 98.9845 550.13C96.7968 550.511 95.4169 550.915 95.4169 550.915ZM146.772 662.345L151.859 637.525C153.318 637.817 154.125 638.142 154.125 638.142C174.723 647.387 165.804 665.673 161.227 672.865C160.026 674.749 159.129 675.86 159.129 675.86L136.568 698.421C135.749 697.602 136.175 695.684 137.533 693.171C133.269 690.097 100.611 666.403 88.809 654.14C76.9394 641.811 118.315 646.119 123.352 646.68L123.364 646.692C123.682 646.725 123.846 646.747 123.846 646.747C136.388 636.055 147.304 636.628 151.848 637.536L146.772 662.345ZM136.568 698.433L159.129 675.871C159.129 675.871 160.251 674.974 162.124 673.773C169.316 669.196 187.603 660.277 196.847 680.875C196.847 680.875 202.367 694.584 188.253 711.155C188.253 711.155 188.455 712.882 188.713 715.597C189.757 727.13 191.484 756.423 180.86 746.203C176.114 741.625 169.641 733.918 163.314 725.941C153.329 713.342 143.703 700.082 141.818 697.468C139.316 698.825 137.398 699.252 136.568 698.433ZM210.803 746.427C195.119 739.572 235.002 727.725 239.871 726.311L239.882 726.316C240.182 726.231 240.342 726.188 240.342 726.188C247.847 711.513 258.135 707.867 262.69 706.959L268.734 738.265L268.748 738.271L262.701 706.947C264.16 706.656 265.035 706.645 265.035 706.645C287.596 707.306 286.362 727.613 284.881 736.004C284.515 738.054 284.149 739.383 284.101 739.553C284.212 739.353 284.884 738.162 286.048 736.498C290.939 729.52 304.424 714.285 320.849 729.778C320.849 729.778 331.193 740.324 324.495 761.034C324.495 761.034 325.346 762.545 326.611 764.964L326.615 764.96C331.989 775.214 344.801 801.624 331.069 796.239C324.934 793.838 316.018 789.196 307.124 784.25L307.117 784.257C293.071 776.437 279.103 767.877 276.355 766.172C274.56 768.382 272.944 769.515 271.878 769.066L271.884 769.053C270.811 768.6 270.476 766.672 270.768 763.838C265.629 762.638 226.386 753.237 210.803 746.427ZM371.558 787.544C367.598 790.708 335.288 816.926 352.408 817.252C369.416 817.577 409.276 811.238 414.459 810.408C415.267 813.134 416.333 814.795 417.489 814.795V782.888C417.489 782.888 417.331 781.463 416.849 779.287C415.009 770.963 408.379 751.733 387.276 759.755C387.276 759.755 386.468 760.091 385.234 760.922L385.236 760.924C381.368 763.517 373.273 770.824 371.962 787.23C371.962 787.23 371.828 787.342 371.57 787.544H371.558ZM417.5 814.795V782.888C417.5 782.888 417.657 781.463 418.139 779.287C419.979 770.963 426.609 751.733 447.712 759.755C447.712 759.755 461.31 765.544 463.048 787.241C463.048 787.241 464.417 788.318 466.515 790.057L466.512 790.064C475.414 797.485 497.329 816.971 482.592 817.252C475.995 817.375 465.977 816.5 455.868 815.333L455.869 815.332C439.908 813.492 423.726 810.913 420.54 810.397C419.721 813.134 418.667 814.795 417.5 814.795ZM550.915 739.583L563.121 769.066C564.198 768.618 564.535 766.688 564.254 763.838C567.395 763.098 583.319 759.285 598.775 754.878L598.775 754.886C608.569 752.092 618.161 749.063 624.197 746.438C637.711 740.528 610.001 730.929 598.943 727.47L598.943 727.456C596.34 726.648 594.657 726.177 594.657 726.177C584.751 706.802 569.976 706.656 569.976 706.656C547.415 707.318 548.649 727.624 550.13 736.016C550.511 738.203 550.915 739.583 550.915 739.583ZM503.93 796.25C487.988 802.499 507.812 765.914 510.258 761.482L539.135 749.523L539.125 749.516L510.258 761.471C510.415 761.191 510.505 761.034 510.505 761.034C505.434 745.35 510.134 735.5 512.715 731.629L512.717 731.631C513.54 730.41 514.139 729.789 514.139 729.789C530.564 714.296 544.049 729.531 548.94 736.509C550.219 738.338 550.904 739.594 550.904 739.594L563.11 769.078C562.033 769.526 560.429 768.393 558.634 766.183C554.157 768.932 519.771 790.035 503.93 796.25ZM698.432 698.432L675.871 675.871C675.871 675.871 674.973 674.749 673.773 672.876C669.196 665.684 660.277 647.398 680.875 638.153C680.875 638.153 694.584 632.633 711.154 646.747C711.154 646.747 712.882 646.545 715.597 646.287C727.13 645.243 756.423 643.516 746.202 654.14C741.625 658.886 733.917 665.359 725.941 671.686C713.342 681.671 700.081 691.297 697.467 693.182C698.825 695.684 699.251 697.613 698.432 698.432ZM646.679 711.648C646.118 716.685 641.81 758.061 654.14 746.191C666.402 734.389 690.096 701.742 693.17 697.467C695.683 698.825 697.602 699.251 698.421 698.432L675.86 675.871C675.86 675.871 674.749 674.974 672.864 673.773C665.673 669.196 647.386 660.277 638.142 680.875C638.142 680.875 637.816 681.682 637.525 683.141L668.78 689.547L637.525 683.152C636.616 687.696 636.044 698.612 646.735 711.155C646.735 711.155 646.726 711.222 646.711 711.353C646.703 711.43 646.692 711.528 646.679 711.648ZM784.257 527.883L784.25 527.876C789.196 518.981 793.838 510.065 796.239 503.93C801.624 490.198 775.214 503.01 764.96 508.384L764.964 508.388C762.545 509.654 761.034 510.505 761.034 510.505C740.324 503.807 729.778 514.151 729.778 514.151C714.285 530.575 729.52 544.06 736.498 548.952C738.162 550.116 739.353 550.787 739.553 550.899C739.383 550.851 738.054 550.485 736.004 550.119C727.613 548.638 707.306 547.404 706.645 569.965C706.645 569.965 706.656 570.84 706.947 572.298L738.271 566.251L738.265 566.266L706.959 572.31C707.867 576.865 711.513 587.152 726.188 594.658C726.188 594.658 726.231 594.818 726.316 595.117L726.311 595.129C727.725 599.998 739.572 639.881 746.427 624.197C753.237 608.614 762.638 569.37 763.838 564.232C766.672 564.523 768.6 564.188 769.053 563.116L769.066 563.121C769.504 562.056 768.382 560.44 766.172 558.645C767.877 555.896 776.437 541.929 784.257 527.883ZM815.332 379.131L815.333 379.132C816.5 369.023 817.375 359.005 817.251 352.408C816.971 337.671 797.484 359.586 790.064 368.488L790.057 368.485C788.318 370.583 787.241 371.951 787.241 371.951C765.543 373.69 759.754 387.288 759.754 387.288C751.733 408.39 770.962 415.021 779.286 416.861C781.463 417.343 782.888 417.5 782.888 417.5H814.794C814.794 416.345 813.134 415.279 810.396 414.46C810.912 411.274 813.492 395.092 815.332 379.131ZM787.544 463.442C790.707 467.402 816.926 499.712 817.251 482.592C817.577 465.584 811.238 425.724 810.408 420.54C813.134 419.733 814.794 418.667 814.794 417.511H782.888C782.888 417.511 781.463 417.668 779.286 418.151C770.962 419.991 751.733 426.621 759.754 447.724C759.754 447.724 760.091 448.532 760.921 449.766L760.924 449.764C763.516 453.632 770.823 461.727 787.229 463.038C787.229 463.038 787.342 463.172 787.544 463.43L787.544 463.442ZM754.886 236.225L754.878 236.225C759.286 251.681 763.099 267.605 763.839 270.746C766.689 270.465 768.618 270.802 769.067 271.879L739.584 284.085C739.584 284.085 738.204 284.489 736.016 284.87C727.624 286.351 707.318 287.585 706.656 265.024C706.656 265.024 706.802 250.249 726.177 240.342C726.177 240.342 726.648 238.66 727.456 236.057L727.471 236.057C730.929 224.999 740.528 197.289 746.438 210.803C749.064 216.839 752.093 226.431 754.886 236.225ZM796.25 331.07C802.499 347.012 765.914 327.188 761.483 324.742L749.524 295.865L749.517 295.875L761.472 324.742C761.191 324.585 761.034 324.495 761.034 324.495C745.35 329.566 735.5 324.866 731.629 322.285L731.631 322.283C730.411 321.46 729.79 320.86 729.79 320.86C714.296 304.436 729.532 290.951 736.51 286.059C738.338 284.781 739.595 284.096 739.595 284.096L769.078 271.89C769.527 272.967 768.394 274.571 766.184 276.366C768.932 280.843 790.035 315.229 796.25 331.07Z" fill="#BEDAD8"/>
<path d="M417.99 728.98C589.745 728.98 728.98 589.745 728.98 417.99C728.98 246.235 589.745 107 417.99 107C246.235 107 107 246.235 107 417.99C107 589.745 246.235 728.98 417.99 728.98Z" fill="#BEDAD8"/>
<path d="M475.689 159.056C475.689 159.695 475.689 160.335 475.689 160.974C472.593 164.531 469.811 168.424 466.355 171.576C450.222 186.307 431.61 191.972 410.081 186.217C407.657 185.566 407.613 185.578 406.356 187.878C405.257 189.875 403.899 191.456 401.465 191.771C397.358 192.287 393.903 190.828 391.008 188.079C388.552 185.746 388.338 182.672 390.29 179.834C391.255 178.431 392.366 177.141 393.432 175.817C394.632 174.325 395.878 172.855 397.089 171.374C394.913 172.182 392.938 173.169 390.986 174.202C389.561 174.953 388.372 174.83 387.026 173.831C383.985 171.554 381.753 171.7 378.6 173.921C375.65 175.997 372.665 178.05 369.569 179.901C367.998 180.843 366.192 181.483 364.419 181.943C362.322 182.481 360.863 181.202 360.908 179.037C360.93 177.769 361.11 176.49 361.379 175.256C363.354 166.102 363.511 156.924 361.906 147.714C361.536 145.571 361.054 143.439 360.684 141.296C360.212 138.593 361.581 137.269 364.206 137.919C365.384 138.211 366.618 138.548 367.639 139.154C371.319 141.364 374.999 143.619 378.544 146.02C381.977 148.342 384.041 148.319 387.385 145.919C391.042 143.282 394.857 140.848 398.548 138.245C399.03 137.897 399.411 137.112 399.445 136.506C399.49 135.519 399.21 134.509 399.052 133.522C398.604 130.694 398.11 127.867 397.673 125.04C397.493 123.862 397.897 122.807 399.075 122.482C400.376 122.112 401.801 121.742 403.114 121.888C410.406 122.718 417.126 125.365 423.476 128.933C426.045 130.38 428.514 131.469 431.576 131.783C440.529 132.691 448.865 135.631 456.449 140.556C464.055 145.47 470.742 151.36 475.689 159.056Z" fill="#F8AD18"/>
<path d="M600.142 217.675C599.872 218.258 599.603 218.831 599.334 219.414C595.026 221.321 590.864 223.677 586.398 225.079C565.554 231.609 546.291 228.883 529.204 214.567C527.274 212.952 527.241 212.941 525.132 214.5C523.292 215.846 521.385 216.71 519.051 215.958C515.113 214.691 512.6 211.908 511.13 208.195C509.885 205.042 510.996 202.17 513.969 200.42C515.427 199.556 516.987 198.85 518.512 198.109C520.24 197.268 521.979 196.449 523.707 195.63C521.396 195.45 519.186 195.495 516.975 195.618C515.371 195.697 514.339 195.08 513.542 193.61C511.747 190.256 509.661 189.459 505.869 190.132C502.312 190.772 498.745 191.366 495.155 191.737C493.337 191.927 491.43 191.748 489.624 191.411C487.492 191.007 486.707 189.235 487.671 187.294C488.232 186.161 488.928 185.073 489.691 184.063C495.345 176.602 499.362 168.345 501.819 159.325C502.391 157.227 502.851 155.096 503.423 152.998C504.141 150.35 505.936 149.722 508.045 151.416C508.988 152.167 509.964 152.998 510.637 153.985C513.038 157.541 515.416 161.131 517.626 164.822C519.758 168.379 521.631 169.243 525.681 168.469C530.113 167.627 534.6 167.021 539.043 166.225C539.627 166.124 540.3 165.563 540.591 165.024C541.051 164.149 541.22 163.117 541.5 162.152C542.285 159.404 543.037 156.633 543.834 153.884C544.17 152.751 544.978 151.954 546.19 152.156C547.525 152.369 548.983 152.639 550.094 153.323C556.354 157.16 561.324 162.399 565.565 168.311C567.281 170.712 569.054 172.743 571.702 174.314C579.431 178.913 585.748 185.106 590.538 192.769C595.34 200.443 598.908 208.61 600.142 217.675Z" fill="#F8AD18"/>
<path d="M679.976 331.593C679.482 332.008 679 332.412 678.506 332.827C673.794 332.737 669.026 333.107 664.381 332.49C642.729 329.596 626.428 318.983 616.992 298.8C615.927 296.522 615.904 296.5 613.335 297.016C611.103 297.465 609.005 297.442 607.209 295.771C604.18 292.955 603.081 289.376 603.317 285.393C603.518 282.005 605.74 279.873 609.173 279.537C610.867 279.368 612.572 279.391 614.266 279.357C616.185 279.324 618.103 279.312 620.022 279.301C618.002 278.157 615.983 277.271 613.93 276.44C612.438 275.834 611.764 274.836 611.675 273.176C611.461 269.384 609.913 267.768 606.2 266.781C602.699 265.85 599.222 264.885 595.811 263.707C594.083 263.112 592.423 262.136 590.931 261.07C589.169 259.803 589.203 257.873 590.897 256.515C591.884 255.719 592.984 255.035 594.106 254.44C602.385 250.065 609.509 244.287 615.545 237.14C616.948 235.48 618.271 233.752 619.674 232.092C621.446 229.994 623.331 230.184 624.532 232.619C625.07 233.707 625.597 234.863 625.788 236.041C626.461 240.282 627.101 244.545 627.538 248.819C627.965 252.937 629.3 254.507 633.294 255.517C637.669 256.628 641.988 257.974 646.341 259.129C646.913 259.275 647.766 259.062 648.249 258.692C649.034 258.086 649.628 257.233 650.29 256.471C652.164 254.305 654.015 252.118 655.9 249.964C656.685 249.077 657.751 248.696 658.761 249.391C659.883 250.154 661.083 251.007 661.801 252.106C665.851 258.232 668.151 265.075 669.497 272.222C670.036 275.116 670.799 277.708 672.526 280.266C677.575 287.704 680.694 295.984 681.793 304.959C682.904 313.945 682.691 322.864 679.976 331.593Z" fill="#F8AD18"/>
<path d="M691.89 474.298C691.273 474.466 690.656 474.623 690.039 474.792C685.809 472.727 681.322 471.045 677.384 468.52C658.985 456.752 648.697 440.237 648.675 417.956C648.675 415.443 648.663 415.41 646.117 414.793C643.907 414.254 642.01 413.345 641.091 411.079C639.531 407.242 640.047 403.54 641.943 400.029C643.559 397.044 646.476 396.046 649.718 397.201C651.311 397.774 652.859 398.503 654.407 399.198C656.169 399.972 657.897 400.78 659.647 401.577C658.3 399.681 656.842 398.032 655.339 396.405C654.25 395.227 654.06 394.038 654.677 392.489C656.09 388.955 655.372 386.846 652.41 384.378C649.639 382.056 646.88 379.711 644.299 377.198C642.987 375.93 641.898 374.348 640.99 372.744C639.924 370.859 640.776 369.12 642.886 368.593C644.12 368.29 645.399 368.133 646.666 368.066C656.012 367.594 664.92 365.373 673.412 361.446C675.387 360.538 677.317 359.528 679.291 358.608C681.782 357.464 683.409 358.429 683.465 361.132C683.498 362.344 683.487 363.623 683.162 364.767C681.984 368.896 680.761 373.024 679.358 377.086C678.001 381.001 678.551 382.987 681.748 385.59C685.248 388.439 688.58 391.491 692.047 394.385C692.507 394.767 693.371 394.924 693.954 394.8C694.919 394.587 695.817 394.06 696.737 393.656C699.351 392.478 701.953 391.278 704.567 390.133C705.656 389.662 706.778 389.774 707.406 390.818C708.101 391.985 708.831 393.263 709.021 394.565C710.098 401.824 709.291 409.004 707.484 416.049C706.755 418.899 706.34 421.569 706.834 424.621C708.27 433.495 707.597 442.313 704.803 450.918C702.01 459.534 698.049 467.522 691.89 474.298Z" fill="#F8AD18"/>
<path d="M634.213 605.605C633.585 605.493 632.957 605.381 632.328 605.268C629.366 601.611 626.012 598.189 623.51 594.24C611.809 575.796 609.464 556.477 618.866 536.272C619.931 533.994 619.92 533.961 617.878 532.312C616.094 530.887 614.771 529.271 614.894 526.814C615.107 522.686 617.138 519.544 620.346 517.166C623.073 515.146 626.135 515.472 628.592 517.884C629.804 519.073 630.892 520.397 632.003 521.676C633.271 523.123 634.505 524.593 635.739 526.051C635.324 523.763 634.696 521.653 634.022 519.556C633.529 518.019 633.854 516.863 635.066 515.719C637.837 513.116 638.072 510.894 636.446 507.417C634.909 504.152 633.405 500.853 632.126 497.477C631.476 495.771 631.15 493.875 631.016 492.047C630.847 489.881 632.362 488.67 634.482 489.085C635.728 489.332 636.962 489.724 638.129 490.207C646.801 493.741 655.81 495.48 665.166 495.513C667.343 495.524 669.519 495.424 671.696 495.424C674.433 495.435 675.499 497.005 674.411 499.485C673.917 500.595 673.379 501.751 672.604 502.649C669.788 505.891 666.928 509.111 663.943 512.207C661.06 515.18 660.724 517.211 662.507 520.924C664.471 524.986 666.21 529.159 668.128 533.254C668.386 533.792 669.093 534.297 669.687 534.432C670.652 534.645 671.696 534.555 672.694 534.566C675.555 534.611 678.427 534.611 681.277 534.69C682.466 534.724 683.431 535.296 683.554 536.519C683.689 537.865 683.812 539.335 683.431 540.602C681.344 547.637 677.574 553.796 672.963 559.428C671.09 561.705 669.587 563.949 668.756 566.922C666.299 575.572 661.969 583.279 655.798 589.887C649.617 596.506 642.65 602.071 634.213 605.605Z" fill="#F8AD18"/>
<path d="M517.346 690.734C516.829 690.364 516.302 690.005 515.775 689.635C514.642 685.058 513.049 680.548 512.443 675.903C509.638 654.25 515.663 635.75 532.727 621.412C534.656 619.797 534.668 619.763 533.501 617.407C532.491 615.365 531.975 613.335 533.119 611.169C535.049 607.512 538.224 605.526 542.139 604.719C545.46 604.034 548.097 605.627 549.308 608.858C549.903 610.451 550.329 612.101 550.8 613.739C551.328 615.579 551.833 617.43 552.337 619.281C552.921 617.037 553.246 614.849 553.527 612.65C553.717 611.057 554.514 610.149 556.096 609.621C559.708 608.432 560.864 606.525 560.853 602.677C560.841 599.064 560.875 595.44 561.133 591.85C561.257 590.022 561.761 588.171 562.412 586.454C563.175 584.423 565.06 583.963 566.81 585.242C567.831 585.983 568.773 586.869 569.637 587.8C575.998 594.666 583.436 600.063 591.896 604.034C593.859 604.954 595.878 605.784 597.853 606.716C600.332 607.882 600.635 609.756 598.605 611.54C597.696 612.336 596.72 613.155 595.62 613.638C591.694 615.388 587.745 617.104 583.728 618.641C579.858 620.122 578.691 621.816 578.747 625.945C578.814 630.466 578.624 634.976 578.635 639.497C578.635 640.081 579.072 640.855 579.555 641.225C580.34 641.831 581.316 642.179 582.225 642.616C584.805 643.862 587.397 645.084 589.966 646.352C591.02 646.879 591.66 647.811 591.256 648.966C590.807 650.245 590.302 651.625 589.427 652.612C584.558 658.11 578.545 662.092 571.982 665.245C569.323 666.524 567.012 667.915 565.004 670.249C559.125 677.059 551.934 682.208 543.553 685.596C535.15 689.007 526.489 691.105 517.346 690.734Z" fill="#F8AD18"/>
<path d="M366.91 705.992C366.596 705.442 366.27 704.893 365.956 704.332C366.854 699.709 367.325 694.953 368.738 690.487C375.346 669.676 388.63 655.462 410.148 649.673C412.582 649.022 412.605 649 412.548 646.374C412.492 644.097 412.885 642.044 414.837 640.563C418.136 638.061 421.849 637.601 425.731 638.532C429.029 639.318 430.746 641.876 430.476 645.309C430.342 647.003 430.028 648.686 429.77 650.368C429.467 652.264 429.141 654.149 428.827 656.045C430.308 654.25 431.531 652.41 432.698 650.537C433.55 649.168 434.65 648.686 436.299 648.876C440.08 649.325 441.931 648.08 443.546 644.591C445.061 641.315 446.62 638.05 448.382 634.897C449.268 633.293 450.513 631.835 451.826 630.556C453.374 629.03 455.281 629.411 456.325 631.319C456.931 632.429 457.424 633.619 457.806 634.83C460.678 643.738 465.132 651.771 471.123 658.951C472.514 660.623 473.995 662.227 475.386 663.899C477.136 666.008 476.62 667.825 474.028 668.588C472.862 668.925 471.639 669.25 470.438 669.239C466.141 669.16 461.845 669.059 457.548 668.745C453.419 668.453 451.635 669.497 449.941 673.255C448.09 677.372 446.015 681.389 444.119 685.484C443.872 686.022 443.939 686.897 444.22 687.436C444.668 688.311 445.409 689.051 446.048 689.826C447.855 692.047 449.694 694.246 451.478 696.478C452.219 697.398 452.398 698.52 451.546 699.395C450.603 700.371 449.56 701.403 448.348 701.931C441.617 704.848 434.47 705.925 427.2 706.003C424.25 706.037 421.568 706.329 418.753 707.596C410.551 711.276 401.857 712.903 392.825 712.432C383.772 711.938 375.032 710.177 366.91 705.992Z" fill="#F8AD18"/>
<path d="M229.5 639.767C229.556 639.127 229.612 638.488 229.668 637.859C233.056 634.584 236.175 630.96 239.889 628.11C257.245 614.849 276.272 610.822 297.218 618.428C299.585 619.281 299.619 619.281 301.077 617.104C302.334 615.208 303.837 613.739 306.294 613.649C310.434 613.492 313.732 615.242 316.38 618.237C318.624 620.773 318.567 623.858 316.38 626.506C315.303 627.818 314.08 629.008 312.902 630.242C311.567 631.622 310.221 632.979 308.874 634.348C311.118 633.731 313.171 632.923 315.202 632.059C316.683 631.431 317.861 631.655 319.106 632.777C321.944 635.313 324.166 635.358 327.498 633.417C330.628 631.61 333.769 629.815 337.023 628.245C338.672 627.448 340.523 626.955 342.34 626.663C344.483 626.315 345.818 627.706 345.583 629.86C345.448 631.117 345.156 632.373 344.786 633.585C342.026 642.538 341.073 651.67 341.858 660.982C342.038 663.147 342.329 665.301 342.509 667.478C342.733 670.204 341.263 671.415 338.706 670.54C337.561 670.159 336.361 669.71 335.396 669.015C331.918 666.49 328.463 663.932 325.119 661.217C321.911 658.603 319.846 658.435 316.312 660.555C312.431 662.867 308.426 664.964 304.533 667.231C304.016 667.522 303.568 668.285 303.489 668.88C303.355 669.856 303.545 670.888 303.613 671.887C303.826 674.736 304.061 677.597 304.241 680.447C304.319 681.625 303.826 682.646 302.625 682.87C301.29 683.117 299.843 683.364 298.553 683.106C291.361 681.636 284.888 678.427 278.886 674.31C276.451 672.65 274.084 671.348 271.055 670.765C262.226 669.082 254.171 665.424 247.046 659.86C239.911 654.318 233.752 647.867 229.5 639.767Z" fill="#F8AD18"/>
<path d="M148.443 512.712C148.858 512.218 149.262 511.736 149.677 511.242C154.333 510.502 158.967 509.312 163.645 509.122C185.466 508.213 203.371 515.831 216.172 534.073C217.619 536.126 217.642 536.148 220.088 535.195C222.208 534.364 224.272 534.028 226.337 535.363C229.814 537.607 231.52 540.939 231.98 544.91C232.361 548.276 230.544 550.766 227.234 551.686C225.596 552.135 223.913 552.416 222.242 552.752C220.368 553.122 218.472 553.459 216.587 553.807C218.775 554.581 220.929 555.097 223.083 555.568C224.654 555.905 225.495 556.769 225.877 558.395C226.74 562.098 228.547 563.41 232.384 563.736C235.985 564.039 239.586 564.386 243.143 564.958C244.949 565.25 246.744 565.912 248.404 566.709C250.356 567.651 250.659 569.558 249.223 571.196C248.393 572.15 247.428 573.014 246.43 573.799C239.036 579.543 233.012 586.476 228.311 594.554C227.223 596.439 226.213 598.369 225.125 600.253C223.745 602.621 221.849 602.766 220.256 600.579C219.538 599.603 218.809 598.559 218.416 597.426C217.014 593.365 215.645 589.281 214.467 585.153C213.334 581.17 211.741 579.857 207.635 579.554C203.136 579.229 198.648 578.634 194.149 578.264C193.566 578.208 192.758 578.578 192.343 579.027C191.681 579.756 191.244 580.699 190.728 581.563C189.258 584.02 187.822 586.499 186.33 588.945C185.713 589.954 184.725 590.504 183.615 590.01C182.381 589.461 181.057 588.821 180.148 587.868C175.1 582.539 171.644 576.2 169.086 569.39C168.043 566.63 166.854 564.218 164.711 561.997C158.439 555.557 153.941 547.939 151.293 539.289C148.623 530.606 147.288 521.788 148.443 512.712Z" fill="#F8AD18"/>
<path d="M144.09 361.682C144.707 361.514 145.324 361.346 145.941 361.188C150.171 363.253 154.658 364.936 158.596 367.46C176.995 379.229 187.283 395.743 187.306 418.024C187.306 420.537 187.317 420.57 189.875 421.188C192.085 421.726 193.97 422.635 194.901 424.912C196.46 428.749 195.944 432.451 194.048 435.963C192.433 438.936 189.516 439.934 186.274 438.79C184.669 438.218 183.132 437.489 181.573 436.793C179.823 436.019 178.084 435.211 176.334 434.415C177.68 436.311 179.138 437.96 180.642 439.587C181.73 440.765 181.932 441.954 181.304 443.502C179.89 447.036 180.608 449.145 183.57 451.613C186.341 453.936 189.101 456.28 191.681 458.794C192.994 460.073 194.082 461.643 194.991 463.247C196.056 465.143 195.193 466.882 193.095 467.398C191.872 467.701 190.582 467.858 189.325 467.926C179.968 468.386 171.061 470.618 162.579 474.545C160.605 475.454 158.675 476.475 156.7 477.383C154.21 478.528 152.583 477.563 152.527 474.859C152.504 473.647 152.504 472.368 152.83 471.224C154.008 467.096 155.231 462.967 156.633 458.906C157.99 454.99 157.441 453.005 154.243 450.402C150.743 447.552 147.411 444.501 143.944 441.606C143.496 441.225 142.62 441.068 142.037 441.191C141.072 441.404 140.175 441.931 139.255 442.347C136.641 443.513 134.049 444.714 131.424 445.869C130.347 446.352 129.214 446.228 128.586 445.185C127.89 444.018 127.161 442.739 126.97 441.438C125.893 434.179 126.701 426.999 128.507 419.953C129.236 417.104 129.651 414.434 129.158 411.382C127.722 402.508 128.395 393.69 131.188 385.085C133.982 376.435 137.942 368.458 144.09 361.682Z" fill="#F8AD18"/>
<path d="M212.537 233.561C213.132 233.774 213.738 233.999 214.332 234.212C216.621 238.329 219.313 242.278 221.097 246.609C229.422 266.803 228.378 286.234 215.611 304.499C214.175 306.563 214.164 306.597 215.892 308.571C217.395 310.276 218.416 312.105 217.877 314.495C216.957 318.534 214.411 321.271 210.843 323.055C207.814 324.569 204.852 323.717 202.855 320.912C201.868 319.532 201.026 318.04 200.151 316.581C199.164 314.943 198.199 313.272 197.223 311.623C197.246 313.945 197.492 316.144 197.795 318.32C198.02 319.913 197.492 321.002 196.101 321.91C192.915 323.986 192.298 326.129 193.308 329.853C194.25 333.343 195.159 336.843 195.832 340.388C196.18 342.183 196.169 344.102 195.989 345.93C195.776 348.096 194.082 349.027 192.051 348.241C190.873 347.781 189.729 347.187 188.652 346.514C180.731 341.532 172.149 338.245 162.949 336.596C160.806 336.215 158.641 335.934 156.51 335.553C153.817 335.07 153.032 333.331 154.535 331.088C155.208 330.078 155.937 329.035 156.869 328.283C160.212 325.579 163.577 322.898 167.055 320.385C170.41 317.961 171.105 316.009 169.972 312.049C168.749 307.707 167.762 303.298 166.573 298.934C166.416 298.362 165.799 297.734 165.238 297.509C164.329 297.128 163.286 297.038 162.299 296.847C159.483 296.309 156.667 295.804 153.862 295.243C152.706 295.007 151.842 294.267 151.932 293.055C152.033 291.698 152.168 290.239 152.762 289.061C156.05 282.498 160.818 277.079 166.349 272.345C168.581 270.427 170.443 268.486 171.79 265.703C175.705 257.603 181.315 250.771 188.54 245.33C195.787 239.844 203.618 235.569 212.537 233.561Z" fill="#F8AD18"/>
<path d="M335.239 160.301C335.609 160.818 335.968 161.345 336.338 161.872C335.845 166.55 335.8 171.341 334.779 175.907C330.011 197.223 318.018 212.537 297.072 220.177C294.716 221.041 294.682 221.063 294.974 223.666C295.221 225.932 295.019 228.008 293.201 229.668C290.127 232.439 286.47 233.225 282.521 232.641C279.166 232.148 277.237 229.747 277.203 226.303C277.181 224.609 277.349 222.903 277.472 221.209C277.607 219.291 277.775 217.384 277.921 215.476C276.608 217.384 275.543 219.325 274.544 221.288C273.815 222.724 272.76 223.307 271.089 223.251C267.285 223.128 265.558 224.53 264.245 228.154C263.022 231.553 261.755 234.941 260.274 238.24C259.522 239.911 258.422 241.471 257.222 242.862C255.808 244.511 253.879 244.298 252.678 242.492C251.972 241.437 251.388 240.293 250.895 239.126C247.26 230.499 242.121 222.892 235.536 216.251C233.999 214.714 232.394 213.244 230.857 211.696C228.928 209.743 229.287 207.892 231.8 206.905C232.933 206.468 234.133 206.03 235.323 205.94C239.608 205.637 243.905 205.379 248.202 205.312C252.342 205.245 254.025 204.044 255.382 200.151C256.863 195.888 258.591 191.715 260.117 187.463C260.318 186.902 260.173 186.038 259.847 185.522C259.309 184.692 258.512 184.018 257.817 183.3C255.82 181.247 253.8 179.217 251.826 177.141C251.007 176.277 250.737 175.189 251.5 174.235C252.353 173.181 253.307 172.059 254.473 171.431C260.924 167.93 267.947 166.236 275.184 165.518C278.112 165.227 280.759 164.711 283.452 163.207C291.305 158.821 299.82 156.442 308.863 156.128C317.917 155.848 326.768 156.835 335.239 160.301Z" fill="#F8AD18"/>
<path d="M417.2 632.4C536.052 632.4 632.4 536.052 632.4 417.2C632.4 298.348 536.052 202 417.2 202C298.348 202 202 298.348 202 417.2C202 536.052 298.348 632.4 417.2 632.4Z" fill="#F8AD18"/>
<path d="M419.05 217.796C419.667 217.953 420.284 218.065 420.89 218.256C425.972 219.838 429.114 224.662 428.362 229.957C427.711 234.524 426.904 239.078 426.096 243.622C425.782 245.395 425.266 247.122 424.817 248.962C426.152 247.717 427.397 246.483 428.71 245.327C432.446 242.029 436.215 238.731 440.456 236.094C446.974 232.033 455.198 235.702 456.521 243.274C457.329 247.908 455.018 252.451 450.744 254.493C445.145 257.152 439.278 259.037 433.298 260.63C433.209 260.652 433.119 260.697 432.85 260.798C434.734 261.337 436.473 261.74 438.145 262.346C442.33 263.861 446.548 265.331 450.643 267.081C454.883 268.898 457.116 273.33 456.577 278.142C456.106 282.282 452.561 286.074 448.298 286.96C444.775 287.69 441.746 286.568 438.93 284.515C434.084 280.981 429.473 277.155 425.187 272.937C425.097 272.847 424.985 272.769 424.94 272.724C425.692 276.213 426.556 279.724 427.162 283.269C427.734 286.646 428.284 290.057 428.384 293.456C428.575 299.627 422.562 304.641 416.481 303.654C411.825 302.902 408.931 300.176 407.641 295.666C407.114 293.815 407.259 291.93 407.562 290.102C408.37 285.244 409.301 280.409 410.221 275.573C410.401 274.608 410.726 273.666 411.018 272.567C409.649 273.846 408.415 275.057 407.125 276.202C403.366 279.534 399.586 282.832 395.323 285.491C389.388 289.193 381.983 286.5 379.672 279.893C377.956 274.979 380.413 269.212 385.147 267.025C390.745 264.444 396.568 262.526 402.514 260.955C402.604 260.933 402.693 260.888 402.951 260.787C401.1 260.248 399.373 259.867 397.735 259.272C393.516 257.747 389.276 256.277 385.169 254.516C380.929 252.698 378.685 248.255 379.235 243.454C379.706 239.314 383.273 235.511 387.525 234.636C391.015 233.918 394.032 235.006 396.826 237.037C401.515 240.458 405.992 244.138 410.143 248.199C410.389 248.446 410.659 248.671 410.861 248.85C410.064 245.092 409.144 241.311 408.482 237.485C407.955 234.445 407.517 231.36 407.405 228.286C407.237 223.136 411.253 218.671 416.347 217.942C416.324 217.942 417.457 217.695 419.05 217.796Z" fill="#E62B4F"/>
<path d="M318.339 253.955C318.957 254.112 319.574 254.224 320.179 254.415C325.262 255.997 328.403 260.821 327.651 266.116C327 270.682 326.193 275.237 325.385 279.781C325.071 281.553 324.555 283.281 324.106 285.121C325.441 283.876 326.686 282.642 327.999 281.486C331.735 278.188 335.504 274.889 339.745 272.253C346.263 268.192 354.487 271.86 355.81 279.433C356.618 284.066 354.307 288.61 350.033 290.652C344.435 293.311 338.567 295.195 332.587 296.788C332.498 296.811 332.408 296.856 332.139 296.957C334.023 297.495 335.762 297.899 337.434 298.505C341.619 300.02 345.837 301.489 349.932 303.239C354.172 305.057 356.405 309.488 355.867 314.301C355.395 318.441 351.85 322.233 347.587 323.119C344.064 323.848 341.035 322.726 338.219 320.673C333.373 317.139 328.762 313.314 324.476 309.096C324.386 309.006 324.274 308.927 324.229 308.882C324.981 312.371 325.845 315.883 326.451 319.428C327.023 322.805 327.573 326.216 327.674 329.615C327.864 335.785 321.851 340.8 315.77 339.813C311.115 339.061 308.22 336.335 306.93 331.825C306.403 329.974 306.548 328.089 306.851 326.26C307.659 321.403 308.59 316.567 309.51 311.732C309.69 310.767 310.015 309.825 310.307 308.725C308.938 310.004 307.704 311.216 306.414 312.36C302.656 315.692 298.875 318.991 294.612 321.649C288.677 325.352 281.272 322.659 278.961 316.051C277.245 311.137 279.702 305.371 284.436 303.183C290.034 300.603 295.857 298.684 301.803 297.114C301.893 297.091 301.982 297.047 302.24 296.946C300.389 296.407 298.662 296.026 297.024 295.431C292.805 293.905 288.565 292.436 284.459 290.674C280.218 288.857 277.974 284.414 278.524 279.612C278.995 275.473 282.563 271.669 286.815 270.794C290.304 270.076 293.321 271.165 296.115 273.195C300.804 276.617 305.281 280.297 309.432 284.358C309.679 284.605 309.948 284.829 310.15 285.009C309.353 281.25 308.433 277.47 307.771 273.644C307.244 270.604 306.806 267.519 306.694 264.445C306.526 259.295 310.542 254.83 315.636 254.101C315.613 254.101 316.746 253.854 318.339 253.955Z" fill="#E62B4F"/>
<path d="M264.478 346.387C265.095 346.544 265.712 346.656 266.318 346.847C271.4 348.428 274.541 353.252 273.79 358.548C273.139 363.114 272.331 367.669 271.524 372.212C271.209 373.985 270.693 375.713 270.245 377.553C271.58 376.307 272.825 375.073 274.138 373.918C277.873 370.619 281.643 367.321 285.884 364.685C292.402 360.623 300.625 364.292 301.949 371.865C302.757 376.498 300.446 381.042 296.171 383.083C290.573 385.742 284.706 387.627 278.726 389.22C278.636 389.243 278.547 389.287 278.277 389.388C280.162 389.927 281.901 390.331 283.573 390.937C287.757 392.451 291.976 393.921 296.07 395.671C300.311 397.488 302.544 401.92 302.005 406.733C301.534 410.873 297.989 414.665 293.726 415.551C290.203 416.28 287.174 415.158 284.358 413.105C279.511 409.571 274.9 405.746 270.615 401.527C270.525 401.437 270.413 401.359 270.368 401.314C271.12 404.803 271.984 408.315 272.589 411.86C273.162 415.237 273.711 418.647 273.812 422.047C274.003 428.217 267.99 433.232 261.909 432.244C257.253 431.493 254.359 428.767 253.069 424.257C252.541 422.406 252.687 420.521 252.99 418.692C253.798 413.834 254.729 408.999 255.649 404.164C255.828 403.199 256.154 402.256 256.445 401.157C255.077 402.436 253.843 403.648 252.553 404.792C248.794 408.124 245.013 411.422 240.75 414.081C234.816 417.783 227.411 415.091 225.1 408.483C223.383 403.569 225.84 397.803 230.575 395.615C236.173 393.035 241.996 391.116 247.942 389.545C248.031 389.523 248.121 389.478 248.379 389.377C246.528 388.839 244.8 388.457 243.162 387.863C238.944 386.337 234.703 384.867 230.597 383.106C226.356 381.288 224.113 376.846 224.662 372.044C225.134 367.904 228.701 364.101 232.953 363.226C236.442 362.508 239.46 363.596 242.254 365.627C246.943 369.049 251.419 372.728 255.57 376.79C255.817 377.036 256.086 377.261 256.288 377.44C255.492 373.682 254.572 369.901 253.91 366.076C253.383 363.035 252.945 359.95 252.833 356.876C252.665 351.727 256.681 347.262 261.774 346.532C261.741 346.532 262.885 346.286 264.478 346.387Z" fill="#E62B4F"/>
<path d="M282.596 451.833C283.213 451.99 283.83 452.102 284.436 452.293C289.518 453.875 292.66 458.699 291.908 463.994C291.257 468.56 290.45 473.115 289.642 477.659C289.328 479.431 288.812 481.159 288.363 482.999C289.698 481.754 290.943 480.519 292.256 479.364C295.992 476.066 299.761 472.767 304.002 470.131C310.52 466.07 318.743 469.738 320.067 477.311C320.875 481.944 318.564 486.488 314.29 488.53C308.691 491.189 302.824 493.073 296.844 494.666C296.755 494.689 296.665 494.734 296.395 494.835C298.28 495.373 300.019 495.777 301.691 496.383C305.875 497.897 310.094 499.367 314.189 501.117C318.429 502.935 320.662 507.366 320.123 512.179C319.652 516.319 316.107 520.111 311.844 520.997C308.321 521.726 305.292 520.604 302.476 518.551C297.63 515.017 293.019 511.192 288.733 506.973C288.643 506.884 288.531 506.805 288.486 506.76C289.238 510.249 290.102 513.761 290.708 517.306C291.28 520.683 291.829 524.093 291.93 527.493C292.121 533.663 286.108 538.678 280.027 537.691C275.371 536.939 272.477 534.213 271.187 529.703C270.659 527.852 270.805 525.967 271.108 524.138C271.916 519.281 272.847 514.445 273.767 509.61C273.947 508.645 274.272 507.703 274.564 506.603C273.195 507.882 271.961 509.094 270.671 510.238C266.912 513.57 263.132 516.869 258.868 519.527C252.934 523.23 245.529 520.537 243.218 513.929C241.502 509.015 243.959 503.249 248.693 501.061C254.291 498.481 260.114 496.562 266.06 494.992C266.149 494.969 266.239 494.924 266.497 494.823C264.646 494.285 262.918 493.904 261.28 493.309C257.062 491.783 252.821 490.314 248.715 488.552C244.475 486.735 242.231 482.292 242.781 477.49C243.252 473.351 246.819 469.547 251.071 468.672C254.56 467.954 257.578 469.043 260.372 471.073C265.061 474.495 269.538 478.175 273.689 482.236C273.935 482.483 274.205 482.707 274.407 482.887C273.61 479.128 272.69 475.348 272.028 471.522C271.501 468.482 271.063 465.396 270.951 462.322C270.783 457.173 274.799 452.708 279.893 451.979C279.87 451.979 281.003 451.732 282.596 451.833Z" fill="#E62B4F"/>
<path d="M364.247 520.952C364.864 521.109 365.481 521.221 366.087 521.412C371.169 522.994 374.31 527.818 373.558 533.113C372.908 537.679 372.1 542.234 371.292 546.778C370.978 548.55 370.462 550.278 370.013 552.118C371.348 550.873 372.594 549.639 373.906 548.483C377.642 545.185 381.412 541.886 385.652 539.25C392.17 535.189 400.394 538.857 401.718 546.43C402.525 551.063 400.214 555.607 395.94 557.649C390.342 560.308 384.474 562.193 378.495 563.786C378.405 563.808 378.315 563.853 378.046 563.954C379.931 564.492 381.67 564.896 383.341 565.502C387.526 567.017 391.744 568.486 395.839 570.236C400.08 572.054 402.312 576.485 401.774 581.298C401.303 585.438 397.757 589.23 393.494 590.116C389.972 590.845 386.942 589.724 384.127 587.671C379.28 584.137 374.669 580.311 370.383 576.093C370.294 576.003 370.181 575.924 370.137 575.88C370.888 579.369 371.752 582.88 372.358 586.425C372.93 589.802 373.48 593.213 373.581 596.612C373.772 602.782 367.758 607.797 361.678 606.81C357.022 606.058 354.127 603.332 352.837 598.822C352.31 596.971 352.456 595.086 352.759 593.258C353.566 588.4 354.498 583.564 355.417 578.729C355.597 577.764 355.922 576.822 356.214 575.722C354.845 577.001 353.611 578.213 352.321 579.357C348.563 582.689 344.782 585.988 340.519 588.647C334.584 592.349 327.18 589.656 324.869 583.048C323.152 578.134 325.609 572.368 330.343 570.18C335.942 567.6 341.764 565.682 347.71 564.111C347.8 564.088 347.89 564.044 348.148 563.943C346.297 563.404 344.569 563.023 342.931 562.428C338.713 560.902 334.472 559.433 330.366 557.671C326.125 555.854 323.881 551.411 324.431 546.61C324.902 542.47 328.47 538.667 332.722 537.792C336.211 537.073 339.229 538.162 342.022 540.192C346.712 543.614 351.188 547.294 355.339 551.355C355.586 551.602 355.855 551.826 356.057 552.006C355.26 548.247 354.34 544.467 353.679 540.641C353.151 537.601 352.714 534.516 352.602 531.442C352.433 526.292 356.45 521.827 361.543 521.098C361.509 521.098 362.642 520.851 364.247 520.952Z" fill="#E62B4F"/>
<path d="M471.242 521.446C471.859 521.603 472.476 521.715 473.082 521.906C478.164 523.487 481.305 528.312 480.553 533.607C479.903 538.173 479.095 542.728 478.287 547.271C477.973 549.044 477.457 550.772 477.008 552.612C478.343 551.366 479.589 550.132 480.901 548.977C484.637 545.678 488.407 542.38 492.647 539.744C499.166 535.682 507.389 539.351 508.713 546.924C509.521 551.557 507.209 556.101 502.935 558.143C497.337 560.801 491.469 562.686 485.49 564.279C485.4 564.302 485.31 564.347 485.041 564.448C486.926 564.986 488.665 565.39 490.336 565.996C494.521 567.51 498.739 568.98 502.834 570.73C507.075 572.548 509.307 576.979 508.769 581.792C508.298 585.932 504.753 589.724 500.489 590.61C496.967 591.339 493.938 590.217 491.122 588.164C486.275 584.63 481.664 580.805 477.379 576.586C477.289 576.497 477.177 576.418 477.132 576.373C477.883 579.862 478.747 583.374 479.353 586.919C479.925 590.296 480.475 593.706 480.576 597.106C480.767 603.276 474.753 608.291 468.673 607.304C464.017 606.552 461.122 603.826 459.832 599.316C459.305 597.465 459.451 595.58 459.754 593.751C460.561 588.893 461.493 584.058 462.413 579.223C462.592 578.258 462.917 577.316 463.209 576.216C461.84 577.495 460.606 578.707 459.316 579.851C455.558 583.183 451.777 586.481 447.514 589.14C441.579 592.842 434.175 590.15 431.864 583.542C430.147 578.628 432.604 572.862 437.338 570.674C442.937 568.094 448.759 566.175 454.705 564.605C454.795 564.582 454.885 564.537 455.143 564.436C453.292 563.898 451.564 563.516 449.926 562.922C445.708 561.396 441.467 559.926 437.361 558.165C433.12 556.348 430.876 551.905 431.426 547.103C431.897 542.963 435.465 539.16 439.717 538.285C443.206 537.567 446.224 538.655 449.017 540.686C453.707 544.108 458.183 547.788 462.334 551.849C462.581 552.096 462.85 552.32 463.052 552.499C462.256 548.741 461.336 544.96 460.674 541.135C460.146 538.094 459.709 535.009 459.597 531.935C459.428 526.786 463.445 522.321 468.538 521.591C468.516 521.591 469.649 521.345 471.242 521.446Z" fill="#E62B4F"/>
<path d="M553.486 453.022C554.103 453.179 554.72 453.291 555.326 453.482C560.408 455.064 563.549 459.888 562.798 465.183C562.147 469.749 561.339 474.304 560.531 478.848C560.217 480.62 559.701 482.348 559.252 484.188C560.587 482.942 561.833 481.708 563.145 480.553C566.881 477.255 570.651 473.956 574.892 471.32C581.41 467.259 589.633 470.927 590.957 478.5C591.765 483.133 589.454 487.677 585.179 489.719C579.581 492.378 573.714 494.262 567.734 495.855C567.644 495.878 567.554 495.923 567.285 496.024C569.17 496.562 570.909 496.966 572.58 497.572C576.765 499.086 580.983 500.556 585.078 502.306C589.319 504.124 591.552 508.555 591.013 513.368C590.542 517.508 586.997 521.3 582.733 522.186C579.211 522.915 576.182 521.793 573.366 519.74C568.519 516.206 563.908 512.381 559.623 508.162C559.533 508.073 559.421 507.994 559.376 507.949C560.127 511.438 560.991 514.95 561.597 518.495C562.169 521.872 562.719 525.282 562.82 528.682C563.011 534.852 556.997 539.867 550.917 538.88C546.261 538.128 543.367 535.402 542.076 530.892C541.549 529.041 541.695 527.156 541.998 525.327C542.806 520.47 543.737 515.634 544.657 510.799C544.836 509.834 545.162 508.892 545.453 507.792C544.085 509.071 542.85 510.283 541.56 511.427C537.802 514.759 534.021 518.057 529.758 520.716C523.823 524.419 516.419 521.726 514.108 515.118C512.391 510.204 514.848 504.438 519.583 502.25C525.181 499.67 531.003 497.751 536.949 496.181C537.039 496.158 537.129 496.113 537.387 496.012C535.536 495.474 533.808 495.093 532.17 494.498C527.952 492.972 523.711 491.502 519.605 489.741C515.364 487.924 513.121 483.481 513.67 478.679C514.141 474.54 517.709 470.736 521.961 469.861C525.45 469.143 528.468 470.232 531.261 472.262C535.951 475.684 540.427 479.364 544.578 483.425C544.825 483.672 545.094 483.896 545.296 484.076C544.5 480.317 543.58 476.537 542.918 472.711C542.391 469.671 541.953 466.585 541.841 463.511C541.673 458.362 545.689 453.897 550.782 453.168C550.76 453.168 551.893 452.921 553.486 453.022Z" fill="#E62B4F"/>
<path d="M572.57 347.755C573.187 347.912 573.804 348.024 574.41 348.215C579.492 349.797 582.633 354.621 581.882 359.916C581.231 364.483 580.423 369.037 579.615 373.581C579.301 375.354 578.785 377.081 578.336 378.921C579.671 377.676 580.917 376.442 582.229 375.286C585.965 371.988 589.735 368.69 593.976 366.053C600.494 361.992 608.717 365.661 610.041 373.233C610.849 377.867 608.538 382.41 604.263 384.452C598.665 387.111 592.798 388.996 586.818 390.589C586.728 390.611 586.638 390.656 586.369 390.757C588.254 391.296 589.993 391.699 591.664 392.305C595.849 393.82 600.067 395.289 604.162 397.04C608.403 398.857 610.636 403.289 610.097 408.101C609.626 412.241 606.081 416.033 601.817 416.919C598.295 417.649 595.266 416.527 592.45 414.474C587.603 410.94 582.992 407.114 578.707 402.896C578.617 402.806 578.505 402.728 578.46 402.683C579.212 406.172 580.075 409.683 580.681 413.228C581.253 416.605 581.803 420.016 581.904 423.415C582.095 429.586 576.081 434.6 570.001 433.613C565.345 432.861 562.451 430.135 561.16 425.625C560.633 423.774 560.779 421.889 561.082 420.061C561.89 415.203 562.821 410.368 563.741 405.532C563.92 404.567 564.246 403.625 564.537 402.526C563.169 403.805 561.934 405.016 560.644 406.161C556.886 409.493 553.105 412.791 548.842 415.45C542.907 419.152 535.503 416.459 533.192 409.852C531.475 404.938 533.932 399.171 538.667 396.984C544.265 394.403 550.087 392.485 556.033 390.914C556.123 390.892 556.213 390.847 556.471 390.746C554.62 390.207 552.892 389.826 551.254 389.231C547.036 387.706 542.795 386.236 538.689 384.475C534.448 382.657 532.205 378.214 532.754 373.413C533.225 369.273 536.793 365.47 541.045 364.595C544.534 363.877 547.552 364.965 550.345 366.996C555.035 370.417 559.511 374.097 563.662 378.158C563.909 378.405 564.178 378.63 564.38 378.809C563.584 375.051 562.664 371.27 562.002 367.444C561.475 364.404 561.037 361.319 560.925 358.245C560.756 353.095 564.773 348.63 569.866 347.901C569.844 347.901 570.977 347.654 572.57 347.755Z" fill="#E62B4F"/>
<path d="M519.437 254.829C520.054 254.986 520.671 255.098 521.277 255.289C526.359 256.871 529.5 261.695 528.749 266.99C528.098 271.556 527.29 276.111 526.483 280.655C526.168 282.428 525.652 284.155 525.204 285.995C526.539 284.75 527.784 283.516 529.097 282.36C532.832 279.062 536.602 275.764 540.843 273.127C547.361 269.066 555.584 272.734 556.908 280.307C557.716 284.941 555.405 289.484 551.13 291.526C545.532 294.185 539.665 296.07 533.685 297.663C533.595 297.685 533.506 297.73 533.236 297.831C535.121 298.37 536.86 298.773 538.532 299.379C542.716 300.894 546.935 302.363 551.029 304.114C555.27 305.931 557.503 310.362 556.964 315.175C556.493 319.315 552.948 323.107 548.685 323.993C545.162 324.723 542.133 323.601 539.317 321.548C534.47 318.014 529.859 314.188 525.574 309.97C525.484 309.88 525.372 309.802 525.327 309.757C526.079 313.246 526.943 316.757 527.548 320.302C528.121 323.679 528.67 327.09 528.771 330.489C528.962 336.659 522.949 341.674 516.868 340.687C512.212 339.935 509.318 337.209 508.028 332.699C507.5 330.848 507.646 328.963 507.949 327.135C508.757 322.277 509.688 317.442 510.608 312.606C510.787 311.641 511.113 310.699 511.404 309.6C510.036 310.879 508.802 312.09 507.511 313.234C503.753 316.566 499.972 319.865 495.709 322.524C489.774 326.226 482.37 323.533 480.059 316.925C478.342 312.012 480.799 306.245 485.534 304.057C491.132 301.477 496.955 299.559 502.901 297.988C502.99 297.966 503.08 297.921 503.338 297.82C501.487 297.281 499.759 296.9 498.121 296.305C493.903 294.779 489.662 293.31 485.556 291.548C481.315 289.731 479.072 285.288 479.621 280.487C480.093 276.347 483.66 272.544 487.912 271.669C491.401 270.951 494.419 272.039 497.213 274.069C501.902 277.491 506.378 281.171 510.529 285.232C510.776 285.479 511.045 285.703 511.247 285.883C510.451 282.125 509.531 278.344 508.869 274.518C508.342 271.478 507.904 268.393 507.792 265.319C507.624 260.169 511.64 255.704 516.733 254.975C516.711 254.986 517.844 254.728 519.437 254.829Z" fill="#E62B4F"/>
</svg>
