<svg width="906" height="736" viewBox="0 0 906 736" fill="none" xmlns="http://www.w3.org/2000/svg">
<path d="M605.647 157.71C596.548 271.678 525.311 302.061 525.311 302.061C414.781 344.223 380.03 243.206 370.373 199.514C367.848 188.077 367.037 180.567 367.037 180.567C367.037 180.567 366.225 188.077 363.694 199.514C354.036 243.206 319.292 344.223 208.755 302.061C208.755 302.061 137.526 271.678 128.427 157.71C128.427 157.71 -69.4163 1.89212 26.0129 0.0631866C61.5457 -0.616131 116.103 4.26599 170.586 10.6635C252.754 20.3009 334.788 33.3796 351.162 36.0297C355.406 21.6744 360.953 12.9777 367.037 12.9777C373.113 12.9777 378.66 21.6744 382.905 36.0297C399.308 33.3796 481.32 20.3009 563.487 10.6635C617.97 4.26599 672.528 -0.616131 708.053 0.0631866C803.483 1.89212 605.647 157.71 605.647 157.71Z" fill="#F8AD18"/>
<path d="M776.669 581.012C767.57 694.981 696.333 725.363 696.333 725.363C585.803 767.526 551.052 666.509 541.394 622.816C538.87 611.38 538.058 603.87 538.058 603.87C538.058 603.87 537.247 611.38 534.715 622.816C525.057 666.509 490.314 767.526 379.777 725.363C379.777 725.363 308.547 694.981 299.448 581.012C299.448 581.012 101.605 425.195 197.034 423.366C232.567 422.686 287.125 427.568 341.608 433.966C423.776 443.603 505.809 456.682 522.183 459.332C526.428 444.977 531.975 436.28 538.058 436.28C544.134 436.28 549.682 444.977 553.926 459.332C570.33 456.682 652.341 443.603 734.509 433.966C788.992 427.568 843.55 422.686 879.075 423.366C974.504 425.195 776.669 581.012 776.669 581.012Z" fill="#F8AD18"/>
</svg>
