<svg width="55" height="32" viewBox="0 0 55 32" fill="none" xmlns="http://www.w3.org/2000/svg">
<path d="M4.51109 19.4768C4.86413 18.8112 5.45591 18.3734 6.00705 17.9027C8.5748 15.7111 11.3559 13.8333 14.3605 12.2845C17.2762 10.7813 20.3443 9.71331 23.5851 9.15149C25.429 8.83009 27.2856 8.67319 29.1549 8.77442C31.804 8.91614 34.3692 9.47795 36.8658 10.3662C40.8483 11.7834 44.4573 13.8662 47.7794 16.4576C48.6709 17.1536 49.5192 17.9027 50.3827 18.6341C50.5707 18.7935 50.7281 18.9934 50.8831 19.1832C51.0482 19.3806 51.0405 19.6666 50.8678 19.8564C50.4411 20.3246 49.9992 20.7877 49.5217 21.2027C46.4917 23.8423 43.1315 25.9756 39.4793 27.651C37.3001 28.6506 35.0422 29.4174 32.6853 29.878C30.6585 30.2728 28.6089 30.4575 26.544 30.3487C23.7248 30.1969 21.0047 29.5515 18.3607 28.5823C14.1878 27.0537 10.439 24.8014 7.01281 21.9974C6.42865 21.5191 5.85974 21.023 5.3086 20.5093C5.01906 20.2385 4.78793 19.9045 4.52633 19.6059C4.49585 19.5704 4.48824 19.5173 4.51109 19.4768Z" stroke="#2D9CE5" stroke-width="1.5" stroke-miterlimit="10"/>
<path d="M6.65446 17.0674L1.32593 11.7605" stroke="#2D9CE5" stroke-width="1.5" stroke-miterlimit="10" stroke-linecap="round"/>
<path d="M13.0527 13.0486L9.0271 6.7041" stroke="#2D9CE5" stroke-width="1.5" stroke-miterlimit="10" stroke-linecap="round"/>
<path d="M20.1179 10.1737L17.6746 3.07251" stroke="#2D9CE5" stroke-width="1.5" stroke-miterlimit="10" stroke-linecap="round"/>
<path d="M27.7501 8.8856V1.37952" stroke="#2D9CE5" stroke-width="1.5" stroke-miterlimit="10" stroke-linecap="round"/>
<path d="M48.7874 17.3583L54.1159 12.0514" stroke="#2D9CE5" stroke-width="1.5" stroke-miterlimit="10" stroke-linecap="round"/>
<path d="M42.3875 12.8362L46.4156 6.48914" stroke="#2D9CE5" stroke-width="1.5" stroke-miterlimit="10" stroke-linecap="round"/>
<path d="M35.3215 9.95871L37.7674 2.85754" stroke="#2D9CE5" stroke-width="1.5" stroke-miterlimit="10" stroke-linecap="round"/>
<path d="M27.7197 29.9742C33.4918 29.9742 38.171 25.3118 38.171 19.5604C38.171 13.8089 33.4918 9.14648 27.7197 9.14648C21.9475 9.14648 17.2683 13.8089 17.2683 19.5604C17.2683 25.3118 21.9475 29.9742 27.7197 29.9742Z" stroke="#2D9CE5" stroke-width="1.5" stroke-miterlimit="10" stroke-linecap="round"/>
</svg>
