<svg width="1022" height="906" viewBox="0 0 1022 906" fill="none" xmlns="http://www.w3.org/2000/svg">
<path d="M649.936 199.636C649.945 202.348 649.956 205.052 649.964 207.764C636.98 222.814 625.319 239.311 610.794 252.677C543.035 315.047 464.683 339.003 373.838 314.5C363.585 311.736 363.442 311.757 358.177 321.516C353.607 329.988 347.88 336.718 337.611 337.998C320.309 340.162 305.761 333.961 293.495 322.307C283.091 312.414 282.16 299.361 290.331 287.34C294.366 281.409 299.028 275.909 303.514 270.303C308.569 263.976 313.743 257.75 318.869 251.476C309.716 254.909 301.388 259.063 293.178 263.443C287.194 266.633 282.147 266.102 276.505 261.855C263.644 252.167 254.266 252.805 241.022 262.187C228.602 270.986 216.058 279.675 203.033 287.508C196.429 291.48 188.838 294.222 181.336 296.15C172.477 298.425 166.33 293.001 166.476 283.809C166.562 278.447 167.29 273.019 168.391 267.759C176.558 228.951 177.074 190.016 170.21 150.925C168.611 141.833 166.565 132.817 164.973 123.727C162.964 112.273 168.681 106.666 179.764 109.399C184.735 110.629 189.922 112.044 194.25 114.652C209.814 124.047 225.318 133.604 240.349 143.839C254.831 153.698 263.538 153.652 277.593 143.445C292.984 132.267 308.998 121.958 324.509 110.939C326.536 109.5 328.133 106.126 328.236 103.571C328.403 99.3729 327.236 95.1139 326.547 90.8898C324.58 78.8965 322.486 66.9286 320.625 54.9214C319.861 49.9573 321.531 45.4764 326.483 44.0678C331.969 42.5146 337.965 40.9373 343.487 41.5785C374.237 45.1602 402.597 56.3836 429.388 71.5479C440.241 77.6909 450.653 82.3186 463.588 83.6589C501.306 87.558 536.521 100.06 568.552 120.972C600.703 141.942 628.98 166.972 649.936 199.636Z" fill="#742F70"/>
<path d="M999.937 488.636C999.946 491.348 999.957 494.052 999.965 496.764C986.981 511.814 975.32 528.311 960.795 541.677C893.036 604.047 814.684 628.003 723.839 603.5C713.586 600.736 713.443 600.757 708.178 610.516C703.608 618.988 697.881 625.718 687.612 626.998C670.31 629.162 655.762 622.961 643.496 611.307C633.092 601.414 632.161 588.361 640.332 576.34C644.367 570.409 649.029 564.909 653.515 559.303C658.57 552.976 663.744 546.75 668.87 540.476C659.717 543.909 651.389 548.063 643.179 552.443C637.195 555.633 632.148 555.102 626.506 550.855C613.645 541.167 604.267 541.805 591.023 551.187C578.603 559.986 566.058 568.675 553.034 576.508C546.43 580.48 538.838 583.222 531.337 585.15C522.478 587.425 516.331 582.001 516.477 572.809C516.563 567.447 517.291 562.019 518.392 556.759C526.559 517.951 527.075 479.016 520.211 439.925C518.612 430.833 516.566 421.817 514.974 412.727C512.965 401.273 518.682 395.666 529.765 398.399C534.736 399.629 539.923 401.044 544.251 403.652C559.815 413.047 575.319 422.604 590.35 432.839C604.832 442.698 613.539 442.652 627.594 432.445C642.985 421.267 658.999 410.958 674.51 399.939C676.537 398.5 678.134 395.126 678.237 392.571C678.404 388.373 677.237 384.114 676.548 379.89C674.581 367.896 672.487 355.929 670.626 343.921C669.862 338.957 671.532 334.476 676.484 333.068C681.97 331.515 687.966 329.937 693.488 330.578C724.238 334.16 752.598 345.384 779.389 360.548C790.242 366.691 800.654 371.319 813.589 372.659C851.307 376.558 886.522 389.06 918.553 409.972C950.704 430.942 978.981 455.972 999.937 488.636Z" fill="#742F70"/>
<path d="M530.922 693.636C530.93 696.348 530.941 699.052 530.949 701.764C517.966 716.814 506.304 733.311 491.78 746.677C424.02 809.047 345.668 833.003 254.823 808.5C244.57 805.736 244.427 805.757 239.162 815.516C234.592 823.988 228.865 830.718 218.596 831.998C201.294 834.162 186.747 827.961 174.481 816.307C164.077 806.414 163.146 793.361 171.317 781.34C175.351 775.409 180.014 769.909 184.499 764.303C189.554 757.976 194.728 751.75 199.854 745.476C190.702 748.909 182.373 753.063 174.163 757.443C168.179 760.633 163.132 760.102 157.491 755.855C144.629 746.167 135.251 746.805 122.008 756.187C109.587 764.986 97.0429 773.675 84.0183 781.508C77.4141 785.48 69.8229 788.222 62.3216 790.15C53.4619 792.425 47.315 787.001 47.461 777.809C47.5472 772.447 48.2749 767.019 49.3766 761.759C57.5436 722.951 58.059 684.016 51.1957 644.925C49.5966 635.833 47.5499 626.817 45.9587 617.727C43.9496 606.273 49.6668 600.666 60.7496 603.399C65.7205 604.629 70.9069 606.044 75.2351 608.652C90.7992 618.047 106.303 627.604 121.334 637.839C135.817 647.698 144.524 647.652 158.578 637.445C173.97 626.267 189.983 615.958 205.494 604.939C207.521 603.5 209.118 600.126 209.221 597.571C209.389 593.373 208.221 589.114 207.532 584.89C205.565 572.896 203.471 560.929 201.61 548.921C200.846 543.957 202.517 539.476 207.468 538.068C212.954 536.515 218.951 534.937 224.473 535.578C255.222 539.16 283.582 550.384 310.373 565.548C321.226 571.691 331.639 576.319 344.573 577.659C382.291 581.558 417.507 594.06 449.537 614.972C481.689 635.942 509.965 660.972 530.922 693.636Z" fill="#742F70"/>
</svg>
