<svg width="716" height="793" viewBox="0 0 716 793" fill="none" xmlns="http://www.w3.org/2000/svg">
<path d="M368.855 0.233407C374.508 1.64089 380.251 2.74162 385.796 4.47391C432.682 19.0901 461.743 63.5522 454.753 112.363C448.721 154.516 441.316 196.487 433.82 238.423C430.912 254.736 426.126 270.705 421.99 287.631C434.29 276.101 445.795 264.787 457.878 254.122C492.41 223.681 527.106 193.33 566.28 168.951C626.406 131.545 702.316 165.306 714.526 235.193C721.985 277.923 700.673 319.859 661.155 338.607C609.501 363.094 555.299 380.471 500.177 395.16C499.31 395.394 498.479 395.773 496.023 396.675C513.397 401.674 529.49 405.355 544.914 410.913C583.583 424.879 622.486 438.395 660.252 454.527C699.409 471.254 719.98 512.125 714.977 556.497C710.679 594.662 677.952 629.614 638.525 637.789C606.051 644.519 578.074 634.198 552.03 615.215C507.257 582.59 464.741 547.33 425.223 508.462C424.356 507.614 423.381 506.892 422.966 506.531C429.865 538.741 437.92 571.059 443.501 603.792C448.793 634.883 453.868 666.353 454.825 697.769C456.559 754.646 401.039 800.949 344.96 791.854C302.01 784.889 275.28 759.735 263.36 718.214C258.465 701.18 259.82 683.784 262.637 666.895C270.115 622.108 278.712 577.501 287.164 532.877C288.844 523.945 291.77 515.247 294.479 505.178C281.836 517.015 270.458 528.185 258.537 538.723C223.878 569.417 188.948 599.877 149.557 624.417C94.8136 658.522 26.4704 633.765 5.06804 572.756C-10.8257 527.481 11.9313 474.231 55.603 454.148C107.258 430.383 161.007 412.663 215.895 398.137C216.762 397.902 217.575 397.505 219.959 396.567C202.837 391.659 186.979 388.032 171.79 382.546C132.904 368.508 93.7661 354.938 55.7655 338.734C16.6452 322.042 -3.99863 281.045 1.05848 236.727C5.4112 198.563 38.3004 163.538 77.5833 155.454C109.768 148.813 137.655 158.828 163.446 177.613C206.756 209.155 248.026 243.115 286.37 280.576C288.681 282.831 291.156 284.943 292.944 286.585C285.575 251.921 277.14 217.04 270.981 181.781C266.087 153.758 262.041 125.301 261.084 96.9169C259.513 49.4774 296.574 8.20916 343.659 1.56871C343.659 1.56871 354.135 -0.722962 368.855 0.233407Z" fill="#E62B4F"/>
</svg>
