<?xml version="1.0" encoding="utf-8"?>
<!-- Generator: Adobe Illustrator 24.3.0, SVG Export Plug-In . SVG Version: 6.00 Build 0)  -->
<svg version="1.1" id="Layer_1" xmlns="http://www.w3.org/2000/svg" xmlns:xlink="http://www.w3.org/1999/xlink" x="0px" y="0px"
	 viewBox="0 0 115 114" style="enable-background:new 0 0 115 114;" xml:space="preserve">
<style type="text/css">
	.st0{fill:#2D9CE5;stroke:#2D9CE5;stroke-width:3.3;}
	.st1{fill:#2D9CE5;stroke:#FFFFFF;stroke-width:3.3;}
</style>
<circle class="st0" cx="57.4" cy="57" r="55.3"/>
<path class="st1" d="M33.5,90.6v1.7h1.6h44.7h1.7v-1.7V83v-1.6h-1.7H50.2l13.8-14.8l0,0c4.1-4.4,7.3-8.1,9.6-11.2
	c2.4-3.1,4.1-6,5.1-8.7c1-2.7,1.5-5.4,1.5-8.2c0-3.9-1-7.5-3-10.8c-2-3.2-4.7-5.8-8.2-7.7c-3.5-1.9-7.4-2.8-11.8-2.8
	c-4.4,0-8.4,0.9-11.9,2.8l0,0c-3.6,1.9-6.4,4.5-8.5,7.9c-2.1,3.4-3.1,7.4-3.1,11.8v1.7h1.7h8.2h1.6v-1.7c0-2.5,0.5-4.5,1.4-6.3
	c1-1.7,2.3-3.1,4-4v0l0,0c1.7-1,3.8-1.5,6.3-1.5c2.3,0,4.4,0.5,6.2,1.3c1.8,0.9,3.2,2.1,4.2,3.6l0,0l0,0c1,1.5,1.5,3.3,1.5,5.6
	c0,1.9-0.4,3.8-1.2,5.6l0,0c-0.8,1.8-2,3.8-3.7,5.9c-1.7,2.2-4,4.8-6.7,7.7l0,0L34,83.3l-0.4,0.5v0.6V90.6z"/>
</svg>
