<?xml version="1.0" encoding="utf-8"?>
<!-- Generator: Adobe Illustrator 24.3.0, SVG Export Plug-In . SVG Version: 6.00 Build 0)  -->
<svg version="1.1" id="Layer_1" xmlns="http://www.w3.org/2000/svg" xmlns:xlink="http://www.w3.org/1999/xlink" x="0px" y="0px"
	 viewBox="0 0 115 114" style="enable-background:new 0 0 115 114;" xml:space="preserve">
<style type="text/css">
	.st0{fill:#FFFFFF;stroke:#2D9CE5;stroke-width:3.3;}
	.st1{fill-rule:evenodd;clip-rule:evenodd;fill:#2D9CE5;}
</style>
<circle class="st0" cx="57.4" cy="57.1" r="55.3"/>
<path class="st1" d="M44.2,92.8L44.2,92.8c-4-1.8-7.2-4.2-9.7-7.5l0,0l0,0c-2.4-3.3-3.8-7.2-4-11.4l-0.2-3.1H45l0.2,2.7
	c0.1,1.7,0.7,3.1,1.7,4.2c1,1.2,2.4,2.2,4.3,3c1.8,0.7,3.9,1.1,6.3,1.1c2.7,0,5-0.5,6.9-1.3c1.9-0.9,3.3-2,4.3-3.4
	c1-1.3,1.5-2.9,1.5-4.8c0-2.1-0.5-3.8-1.5-5.3l0,0l0,0c-0.9-1.5-2.4-2.7-4.4-3.6c-2-0.9-4.6-1.4-7.9-1.4h-8.7V48.3h8.7
	c2.5,0,4.5-0.4,6.1-1.2l0,0l0,0c1.7-0.8,2.9-1.9,3.8-3.2l0,0l0,0c0.9-1.3,1.3-2.9,1.3-4.9c0-1.9-0.4-3.5-1.2-4.7
	c-0.8-1.3-1.8-2.3-3.3-3l0,0l0,0c-1.4-0.7-3.2-1.2-5.4-1.2c-2.1,0-4,0.4-5.8,1.1l0,0l0,0c-1.7,0.7-3,1.7-4.1,3l0,0l0,0
	c-0.9,1.1-1.5,2.5-1.5,4.3l-0.1,2.8H31.9l0.1-3.1c0.2-4.3,1.5-8.1,4-11.4c2.4-3.2,5.6-5.7,9.4-7.5l0,0c3.8-1.8,8-2.6,12.5-2.6
	c4.8,0,9.1,1,12.7,3c3.6,2,6.4,4.7,8.3,8.1c2,3.3,2.9,7,2.9,10.9c0,4.5-1.2,8.6-3.7,12c-1.1,1.5-2.4,2.7-3.8,3.8
	c2.2,1.1,4.1,2.7,5.7,4.6c3,3.7,4.5,8.1,4.5,13.2c0,4.4-1.2,8.5-3.7,12.1c-2.4,3.5-5.6,6.2-9.7,8.2c-4.1,2-8.6,2.9-13.6,2.9
	C52.7,95.4,48.2,94.5,44.2,92.8z M78.4,82.5c2.1-3.1,3.1-6.5,3.1-10.4c0-4.5-1.3-8.3-3.8-11.3c-1.7-2.1-3.9-3.6-6.5-4.6
	c-1.2-0.5-2.5-0.8-3.8-1c-0.1,0-0.1,0-0.2,0v-0.6c0,0,0.1,0,0.1,0c1.3-0.4,2.6-0.9,3.7-1.6c1.9-1.1,3.4-2.5,4.7-4.2
	c2.1-2.8,3.1-6.2,3.1-10.2c0-3.3-0.8-6.5-2.5-9.3c-1.7-2.9-4.1-5.2-7.2-7c-3.1-1.8-6.9-2.7-11.3-2.7c-4.1,0-7.8,0.8-11.2,2.4
	c-3.4,1.6-6.1,3.8-8.2,6.6c-1.5,2-2.5,4.3-3,6.8c-0.2,1-0.3,2-0.3,3h8.3c0.1-2.4,0.9-4.4,2.2-6c1.4-1.7,3.1-3,5.3-3.8
	c2.2-0.9,4.5-1.3,6.9-1.3c2.6,0,4.9,0.5,6.8,1.5c1.9,1,3.4,2.4,4.5,4.2c1.1,1.8,1.6,3.9,1.6,6.3c0,2.5-0.6,4.7-1.8,6.5
	c-1.2,1.8-2.9,3.3-5,4.3c-2.1,1-4.6,1.5-7.4,1.5h-5.7v7.6h5.7c3.6,0,6.6,0.6,9.1,1.7c2.5,1.1,4.4,2.7,5.7,4.7c1.3,2,1.9,4.3,1.9,6.9
	c0,2.5-0.7,4.7-2,6.6c-1.3,1.9-3.2,3.4-5.5,4.4c-2.4,1.1-5.1,1.6-8.1,1.6c-2.7,0-5.2-0.5-7.4-1.3c-2.2-0.9-4-2.2-5.4-3.8
	c-1.4-1.7-2.2-3.6-2.4-5.9h-8.7c0.1,1,0.2,2,0.4,3c0.5,2.5,1.5,4.8,3,6.8c2.1,2.8,4.9,5,8.5,6.5c3.6,1.6,7.6,2.4,12.2,2.4
	c4.6,0,8.7-0.9,12.3-2.6C73.5,88,76.3,85.6,78.4,82.5z"/>
</svg>
