<?xml version="1.0" encoding="utf-8"?>
<!-- Generator: Adobe Illustrator 24.3.0, SVG Export Plug-In . SVG Version: 6.00 Build 0)  -->
<svg version="1.1" id="Layer_1" xmlns="http://www.w3.org/2000/svg" xmlns:xlink="http://www.w3.org/1999/xlink" x="0px" y="0px"
	 viewBox="0 0 114 114" style="enable-background:new 0 0 114 114;" xml:space="preserve">
<style type="text/css">
	.st0{fill:#FFFFFF;stroke:#2D9CE5;stroke-width:3.3715;}
	.st1{fill:none;stroke:#2D9CE5;stroke-width:3.3;stroke-miterlimit:10;}
</style>
<circle class="st0" cx="56.9" cy="56.9" r="55.2"/>
<path class="st1" d="M99,59.1c-0.2,1.6-0.4,3.2-0.7,4.7C95.8,77,88.5,86.7,76.8,93.2c-6.6,3.6-13.8,5.2-21.3,4.8
	c-11.5-0.6-21.1-5.2-29-13.6c-0.1-0.1-0.1-0.1-0.2-0.3c2.3-2.1,4.7-4.2,7.1-6.3c6.9,7.3,15.4,11,25.5,10.6
	c7.1-0.3,13.3-2.8,18.8-7.2c10.9-8.8,14.7-24.2,9.1-37.1C81.1,30.8,68,23.5,54.6,24.7c-15.4,1.4-25.2,12.7-27.8,22.5
	c1.8,0,3.5,0,5.5,0c-3.6,5.8-7.2,11.5-10.8,17.3c-3.5-5.8-7-11.5-10.5-17.3c2,0,3.8,0,5.8,0c0.1-0.4,0.2-0.8,0.4-1.3
	c3-10.9,9.3-19.3,19-25.1c7.2-4.3,15-6.4,23.4-5.8c17.2,1.3,29.4,10,36.4,25.7c1.8,3.9,2.7,8.1,3,12.4c0,0.2,0.1,0.4,0.1,0.7
	C99,55.7,99,57.4,99,59.1z"/>
</svg>
