<svg width="656" height="1393" viewBox="0 0 656 1393" fill="none" xmlns="http://www.w3.org/2000/svg">
<path d="M328 1391.3C508.045 1391.3 654 1245.35 654 1065.3C654 885.257 508.045 739.302 328 739.302C147.955 739.302 2 885.257 2 1065.3C2 1245.35 147.955 1391.3 328 1391.3Z" stroke="black" stroke-width="3" stroke-miterlimit="10"/>
<path d="M322 739L321.922 0" stroke="black" stroke-width="3"/>
<path fill-rule="evenodd" clip-rule="evenodd" d="M327.991 1355.34C365.549 1355.87 400.028 1324.04 398.856 1285.62C398.161 1262.6 394.449 1239.57 390.571 1216.8C387.724 1200.05 383.991 1183.45 380.275 1166.93C378.671 1159.8 377.071 1152.68 375.545 1145.57C375.617 1145.63 375.709 1145.7 375.817 1145.79C376.18 1146.08 376.715 1146.51 377.194 1146.98C406.094 1175.45 437.213 1201.26 469.97 1225.17C489.019 1239.06 509.478 1246.62 533.244 1241.69C562.082 1235.7 586.025 1210.12 589.167 1182.16C592.828 1149.67 577.771 1119.74 549.131 1107.49C525.648 1097.44 501.551 1088.78 477.483 1080.13C473.238 1078.6 468.994 1077.08 464.754 1075.54C457.048 1072.76 449.111 1070.62 440.802 1068.38C436.945 1067.34 433.009 1066.28 428.979 1065.12C429.642 1064.88 430.142 1064.68 430.541 1064.53C431.223 1064.27 431.612 1064.12 432.017 1064.01C447.23 1059.96 462.348 1055.62 477.301 1050.83V1050.82L477.301 1050.82V1050.83C501.991 1042.92 526.245 1033.78 549.784 1022.61C578.684 1008.89 594.29 978.175 588.825 946.88C579.887 895.706 524.348 870.985 480.371 898.382C464.443 908.295 449.532 919.556 435.098 931.44L435.097 931.439C423.535 940.938 412.284 950.83 401.054 960.743C395.009 966.08 389.167 971.644 383.201 977.327C380.438 979.959 377.648 982.616 374.799 985.288C375.756 981.353 376.762 977.489 377.758 973.666C379.901 965.439 381.995 957.399 383.447 949.244C388.932 918.539 394.355 887.815 398.763 856.945C403.875 821.201 382.617 788.641 348.315 777.94C345.543 777.07 342.708 776.417 339.873 775.764C338.551 775.46 337.229 775.155 335.913 774.829C333.02 774.642 330.345 774.632 328.001 774.715V1354.51L327.991 1355.34Z" fill="#742F70"/>
<path fill-rule="evenodd" clip-rule="evenodd" d="M328.001 1354.51V774.715C321.582 774.922 317.486 775.814 317.486 775.814C283.039 780.677 255.912 810.894 257.084 845.632C257.779 866.412 260.734 887.245 264.312 907.766C267.461 925.803 271.42 943.694 275.358 961.491C277.06 969.18 278.757 976.852 280.384 984.51C280.026 984.186 279.631 983.835 279.212 983.462C278.093 982.468 276.803 981.321 275.573 980.114C258.1 963.025 239.798 946.942 220.832 931.657L220.832 931.657C209.332 922.397 197.594 913.438 185.638 904.717C166.766 890.967 146.358 883.636 122.809 888.489C94.0754 894.41 70.0182 920.064 66.8348 948.01C63.1329 980.456 78.2309 1010.49 106.882 1022.72C130.248 1032.7 154.203 1041.3 178.145 1049.9L178.929 1050.18C180.742 1050.83 182.555 1051.49 184.367 1052.14C186.836 1053.03 189.303 1053.91 191.767 1054.81C199.347 1057.54 207.155 1059.65 215.327 1061.85C219.138 1062.88 223.029 1063.93 227.013 1065.07C226.318 1065.34 225.806 1065.55 225.402 1065.71C224.785 1065.96 224.418 1066.11 224.036 1066.21C183.896 1076.84 144.565 1089.82 106.768 1107.22C74.8299 1121.93 58.1765 1160.93 69.8007 1194.08C85.469 1238.76 135.46 1256.89 175.507 1231.92C204.324 1213.95 229.885 1191.63 255.249 1169.16C261.182 1163.9 266.938 1158.43 272.928 1152.74C275.732 1150.07 278.587 1147.36 281.535 1144.59C280.892 1147 280.229 1149.3 279.586 1151.54C278.26 1156.14 277.016 1160.47 276.185 1164.87C275.324 1169.43 274.46 1173.99 273.596 1178.55C268.271 1206.67 262.947 1234.78 258.245 1263C256.192 1275.37 255.207 1288.12 258.785 1300.58C267.505 1331 287.052 1349.41 318.482 1354.51C321.655 1355.03 324.838 1355.3 327.991 1355.34L328.001 1354.51Z" fill="#E5284E"/>
</svg>
