<svg width="656" height="1393" viewBox="0 0 656 1393" fill="none" xmlns="http://www.w3.org/2000/svg">
<path d="M328 1391.3C508.045 1391.3 654 1245.35 654 1065.3C654 885.257 508.045 739.302 328 739.302C147.955 739.302 2 885.257 2 1065.3C2 1245.35 147.955 1391.3 328 1391.3Z" stroke="black" stroke-width="3" stroke-miterlimit="10"/>
<path d="M322 739L322 0" stroke="black" stroke-width="3"/>
<g clip-path="url(#clip0_27_907)">
<path d="M586.494 969.434C654.609 970.735 526.027 1074.84 510.263 1087.4H385.858L455.8 1193.15C450.87 1196.44 447.675 1197.8 447.675 1197.8C363.704 1229.67 337.317 1153.28 329.981 1120.24C328.063 1111.6 327.448 1105.92 327.448 1105.92V979.201C332.066 979.201 336.28 985.78 339.502 996.637C360.197 993.302 518.792 968.151 586.494 969.434Z" fill="#F6EA5E"/>
<path d="M385.858 1087.4H510.263C509.253 1088.2 508.702 1088.64 508.702 1088.64C503.469 1153.89 471.169 1182.91 455.8 1193.15L385.858 1087.4Z" fill="#F6EA5E"/>
<path d="M327.448 979.201V1105.92C327.448 1105.92 326.832 1111.6 324.914 1120.24C317.578 1153.28 291.191 1229.67 207.22 1197.8C207.22 1197.8 153.106 1174.81 146.202 1088.64C146.202 1088.64 140.749 1084.36 132.412 1077.43L174.756 977.048C238.308 984.369 302.704 994.594 315.393 996.637C318.615 985.78 322.829 979.201 327.448 979.201Z" fill="#F7AC13"/>
<path d="M174.756 977.048L132.412 1077.43C97.0186 1047.96 9.72413 970.561 68.4009 969.434C94.6407 968.939 134.524 972.411 174.756 977.048Z" fill="#F7AC13"/>
</g>
<defs>
<clipPath id="clip0_27_907">
<rect width="558.068" height="236.488" fill="white" transform="translate(48.4136 969.159)"/>
</clipPath>
</defs>
</svg>
