<svg width="672" height="1426" viewBox="0 0 672 1426" fill="none" xmlns="http://www.w3.org/2000/svg">
<path d="M335.895 1423.87C520.3 1423.87 669.79 1274.5 669.79 1090.24C669.79 905.979 520.3 756.607 335.895 756.607C151.49 756.607 2 905.979 2 1090.24C2 1274.5 151.49 1423.87 335.895 1423.87Z" stroke="black" stroke-width="3" stroke-miterlimit="10"/>
<path d="M330 757L330 0" stroke="black" stroke-width="3"/>
<mask id="mask0_257_493" style="mask-type:alpha" maskUnits="userSpaceOnUse" x="2" y="756" width="668" height="668">
<path d="M335.895 1423.87C520.3 1423.87 669.79 1274.5 669.79 1090.24C669.79 905.978 520.3 756.606 335.895 756.606C151.49 756.606 2 905.978 2 1090.24C2 1274.5 151.49 1423.87 335.895 1423.87Z" fill="#A5589D"/>
</mask>
<g mask="url(#mask0_257_493)">
<path d="M546.33 862.915H125.371V1061.21H546.33V862.915Z" fill="#93C01F"/>
<path d="M546.33 1061.21H125.371V1259.5H546.33V1061.21Z" fill="#F6EA5E"/>
<path d="M546.33 1259.5H125.371V1457.8H546.33V1259.5Z" fill="#A5589D"/>
<path d="M295.303 891.2H164.407V987.03H295.303V891.2Z" fill="#00A099"/>
<path d="M508.314 891.2H377.418V987.03H508.314V891.2Z" fill="#00A099"/>
<path d="M294.794 1089.09H163.899V1184.92H294.794V1089.09Z" fill="#93C01F"/>
<path d="M507.812 1089.09H376.916V1184.92H507.812V1089.09Z" fill="#93C01F"/>
<path d="M294.794 1286.99H163.899V1382.82H294.794V1286.99Z" fill="#F6EA5E"/>
<path d="M507.812 1286.99H376.916V1382.82H507.812V1286.99Z" fill="#F6EA5E"/>
</g>
</svg>
