<svg width="672" height="1426" viewBox="0 0 672 1426" fill="none" xmlns="http://www.w3.org/2000/svg">
<path d="M335.895 1423.87C520.3 1423.87 669.79 1274.5 669.79 1090.24C669.79 905.979 520.3 756.607 335.895 756.607C151.49 756.607 2 905.979 2 1090.24C2 1274.5 151.49 1423.87 335.895 1423.87Z" stroke="black" stroke-width="3" stroke-miterlimit="10"/>
<path d="M330 757L330 0" stroke="black" stroke-width="3"/>
<mask id="mask0_257_496" style="mask-type:alpha" maskUnits="userSpaceOnUse" x="2" y="757" width="668" height="668">
<path d="M669.79 1091.37C669.79 1275.63 520.3 1425 335.895 1425C151.49 1425 2 1275.63 2 1091.37C2 907.11 151.49 757.738 335.895 757.738C520.3 757.738 669.79 907.11 669.79 1091.37Z" fill="#C4C4C4"/>
<path d="M669.79 1091.37C669.79 1275.63 520.3 1425 335.895 1425C151.49 1425 2 1275.63 2 1091.37C2 907.11 151.49 757.738 335.895 757.738C520.3 757.738 669.79 907.11 669.79 1091.37Z" stroke="black"/>
</mask>
<g mask="url(#mask0_257_496)">
<path d="M464.342 1203.63C470.76 1215.86 473.664 1229.23 472.738 1243.55C471.721 1259.34 466.165 1273.32 457.699 1283.85H376.65V1354.49C364.053 1355.55 352.374 1351.35 341.6 1342.31C341.516 1342.23 341.362 1342.28 341.116 1342.26C341.116 1375.34 341.116 1408.39 341.116 1441.71C375.942 1441.71 410.774 1441.71 445.705 1441.71C445.705 1445.67 445.705 1449.38 445.705 1453.27C409.119 1453.27 372.533 1453.27 335.919 1453.27V1004.15C343.445 1009.41 349.667 1016.78 354.647 1026.13C354.927 1026.64 355.215 1027.15 355.587 1027.81C366.276 1019.7 377.955 1016.36 390.454 1017.83C402.554 1019.26 413.11 1025.08 422.102 1034.93C438.873 1053.28 446.014 1085.5 432.925 1113.96C437.162 1116.92 441.609 1119.52 445.593 1122.89C457.271 1132.79 464.482 1146.34 467.288 1163.11C469.434 1175.98 468.347 1188.56 464.103 1200.72C463.823 1201.53 463.942 1202.88 464.342 1203.63Z" fill="#E95184"/>
<path d="M376.65 1283.85H457.699C449.879 1293.6 439.568 1300.39 428.05 1302.96C427.384 1303.11 426.507 1304.13 426.346 1304.93C424.347 1314.57 420.742 1323.23 415.439 1330.85C407.141 1342.78 396.613 1350.39 383.861 1353.36C381.427 1353.93 379.021 1354.31 376.65 1354.49V1283.85Z" fill="#F7AC13"/>
<path d="M335.919 1004.15V1453.27C296.85 1453.27 257.76 1453.27 218.621 1453.27C218.621 1449.65 218.621 1445.97 218.621 1442.01C253.439 1442.01 288.272 1442.01 323.244 1442.01C323.244 1410.07 323.244 1378.39 323.244 1346.61C320.509 1347.99 317.801 1349.61 314.954 1350.75C293.883 1359.25 275.274 1353.96 259.057 1336.07C257.36 1334.18 255.543 1332.84 253.46 1331.69C235.953 1321.99 225.109 1305.85 221.398 1283.18C219.617 1272.3 220.564 1261.54 223.664 1251.1C224.211 1249.25 223.937 1248.31 222.591 1247.19C212.126 1238.45 204.831 1226.87 201.296 1212.14C198.834 1201.89 198.315 1192.05 199.682 1182.64H295.195V1087.57H212.224C213.22 1084.38 214.454 1081.26 215.92 1078.2C223.699 1061.99 235.286 1051.46 250.437 1047.05C254.148 1045.97 255.592 1044.14 256.841 1039.97C264.157 1015.53 278.606 1000.8 300.055 996.086C301.444 995.778 302.833 995.519 304.222 995.238C307.091 995.238 309.959 995.238 312.828 995.238C315.929 995.925 319.085 996.381 322.122 997.348C327.13 998.953 331.724 1001.22 335.919 1004.15Z" fill="#E5284E"/>
<path d="M295.195 1087.57V1182.62H199.683C201.149 1172.49 204.81 1162.86 210.611 1153.74C212.372 1150.97 214.469 1148.49 216.552 1146.06C217.415 1145.06 217.401 1144.41 216.833 1143.31C212.638 1135.22 210.092 1126.38 209.25 1116.96C208.339 1106.75 209.293 1096.9 212.224 1087.58H295.195V1087.57Z" fill="#F7AC13"/>
</g>
</svg>
