<?xml version="1.0" encoding="utf-8"?>
<!-- Generator: Adobe Illustrator 24.3.0, SVG Export Plug-In . SVG Version: 6.00 Build 0)  -->
<svg version="1.1" id="Layer_1" xmlns="http://www.w3.org/2000/svg" xmlns:xlink="http://www.w3.org/1999/xlink" x="0px" y="0px"
	 viewBox="0 0 918 648" style="enable-background:new 0 0 918 648;" xml:space="preserve">
<style type="text/css">
	.st0{fill:#3AAA35;}
	.st1{fill:#F7EB61;}
	.st2{fill:#06A099;}
	.st3{fill:#A5599E;}
</style>
<path class="st0" d="M229.5,745.4"/>
<path class="st0" d="M688.5,745.4"/>
<rect class="st1" width="918" height="216"/>
<rect y="216" class="st2" width="918" height="216"/>
<rect y="432" class="st3" width="918" height="216"/>
<rect x="42.77" y="30.81" class="st3" width="142.73" height="104.38"/>
<rect x="275.04" y="30.81" class="st3" width="142.73" height="104.38"/>
<rect x="42.21" y="246.38" class="st1" width="142.73" height="104.38"/>
<rect x="274.48" y="246.38" class="st1" width="142.73" height="104.38"/>
<rect x="42.21" y="461.94" class="st2" width="142.73" height="104.38"/>
<rect x="274.48" y="461.94" class="st2" width="142.73" height="104.38"/>
<rect x="732.93" y="30.81" transform="matrix(-1 -4.477231e-11 4.477231e-11 -1 1608.5798 166.0092)" class="st3" width="142.73" height="104.38"/>
<rect x="500.66" y="30.81" transform="matrix(-1 -4.475943e-11 4.475943e-11 -1 1144.0437 166.0092)" class="st3" width="142.73" height="104.38"/>
<rect x="733.48" y="246.38" transform="matrix(-1 -4.483581e-11 4.483581e-11 -1 1609.6891 597.1395)" class="st1" width="142.73" height="104.38"/>
<rect x="501.21" y="246.38" transform="matrix(-1 -4.491264e-11 4.491264e-11 -1 1145.153 597.1395)" class="st1" width="142.73" height="104.38"/>
<rect x="733.48" y="461.94" transform="matrix(-1 -4.483581e-11 4.483581e-11 -1 1609.6891 1028.2698)" class="st2" width="142.73" height="104.38"/>
<rect x="501.21" y="461.94" transform="matrix(-1 -4.483581e-11 4.483581e-11 -1 1145.153 1028.2698)" class="st2" width="142.73" height="104.38"/>
</svg>
