<svg width="811" height="344" viewBox="0 0 811 344" fill="none" xmlns="http://www.w3.org/2000/svg">
<path d="M781.792 0.0673513C876.262 1.86735 710.432 139.767 675.122 168.267H554.962L620.912 11.8774C681.492 4.77741 742.292 -0.672649 781.792 0.0673513Z" fill="#F7EB61"/>
<path d="M554.962 168.267H675.122C671.052 171.557 668.712 173.397 668.712 173.397C661.102 268.277 614.162 310.477 591.822 325.367C584.652 330.147 580.012 332.117 580.012 332.117C457.962 378.467 419.602 267.387 408.942 219.337C406.152 206.777 405.262 198.527 405.262 198.527V14.2574C411.972 14.2574 418.102 23.8274 422.782 39.6074C440.782 36.7074 530.612 22.4374 620.912 11.8574L554.962 168.267Z" fill="#E62B4F"/>
<path d="M405.262 14.2775V198.547C405.262 198.547 404.372 206.797 401.582 219.357C390.922 267.397 352.562 378.487 230.512 332.137C230.512 332.137 151.852 298.707 141.822 173.407C141.822 173.407 139.482 171.567 135.402 168.277H257.322L191.462 12.0974C281.132 22.6574 369.842 36.7575 387.742 39.6375C392.422 23.8375 398.542 14.2775 405.262 14.2775Z" fill="#06A099"/>
<path d="M191.452 12.0873L257.312 168.267H135.392C131.962 165.507 127.302 161.697 121.762 157.107C70.3116 114.257 -56.5684 1.70732 28.7216 0.0773186C66.8616 -0.642681 124.832 4.40739 183.312 11.1474C186.022 11.4474 188.742 11.7673 191.452 12.0873Z" fill="#F7EB61"/>
</svg>
