<svg width="524" height="91" viewBox="0 0 524 91" fill="none" xmlns="http://www.w3.org/2000/svg">
<path d="M2.51996 80.45C1.38996 80.45 0.829956 79.92 0.829956 78.86V2.51004C0.829956 1.45004 1.38996 0.920044 2.51996 0.920044H12.76C13.82 0.920044 14.35 1.45004 14.35 2.51004V67.33H27.07V2.51004C27.07 1.45004 27.6 0.920044 28.66 0.920044H38.9C40.03 0.920044 40.59 1.45004 40.59 2.51004V67.33H44.86C45.99 67.33 46.55 67.86 46.55 68.92V88.8C46.55 89.86 45.99 90.39 44.86 90.39H34.62C33.56 90.39 33.03 89.86 33.03 88.8V80.45H2.51996Z" fill="white" stroke="#A5599E" stroke-miterlimit="10"/>
<path d="M93.68 12.45C93.68 13.58 93.15 14.14 92.09 14.14H67.24V34.02H86.23C87.29 34.02 87.82 34.58 87.82 35.71V45.55C87.82 46.68 87.29 47.24 86.23 47.24H67.24V67.32H92.09C93.15 67.32 93.68 67.85 93.68 68.91V78.85C93.68 79.91 93.15 80.44 92.09 80.44H55.5C54.51 80.44 54.01 79.91 54.01 78.85V2.51004C54.01 1.45004 54.51 0.920044 55.5 0.920044H92.09C93.15 0.920044 93.68 1.45004 93.68 2.51004V12.45Z" fill="white" stroke="#A5599E" stroke-miterlimit="10"/>
<path d="M138.32 80.45C137.19 80.45 136.46 79.85 136.13 78.66L125.59 25.37L115.15 78.66C114.88 79.85 114.16 80.45 112.96 80.45H103.52C101.99 80.45 101.4 79.72 101.73 78.26L118.43 2.70003C118.76 1.51003 119.49 0.910034 120.62 0.910034H130.56C131.75 0.910034 132.48 1.51003 132.75 2.70003L149.55 78.26C149.88 79.72 149.28 80.45 147.76 80.45H138.32Z" fill="white" stroke="#A5599E" stroke-miterlimit="10"/>
<path d="M194.99 80.45C194.13 80.45 193.6 79.99 193.4 79.06L190.62 64.55H172.92L170.24 79.06C170.04 79.99 169.51 80.45 168.65 80.45H158C156.81 80.45 156.38 79.89 156.71 78.76L173.21 2.31004C173.41 1.38004 173.97 0.920044 174.9 0.920044H188.72C189.65 0.920044 190.21 1.38004 190.41 2.31004L206.91 78.76C207.11 79.89 206.64 80.45 205.52 80.45H194.99ZM181.76 18.32L175.4 53.02H188.12L181.76 18.32Z" fill="white" stroke="#A5599E" stroke-miterlimit="10"/>
<path d="M242.11 2.51004C242.11 1.45004 242.64 0.920044 243.7 0.920044H253.94C255.07 0.920044 255.63 1.45004 255.63 2.51004V78.86C255.63 79.92 255.07 80.45 253.94 80.45H243.7C242.64 80.45 242.11 79.92 242.11 78.86V47.25H229.39V78.86C229.39 79.92 228.86 80.45 227.8 80.45H217.56C216.43 80.45 215.87 79.92 215.87 78.86V2.51004C215.87 1.45004 216.43 0.920044 217.56 0.920044H227.8C228.86 0.920044 229.39 1.45004 229.39 2.51004V34.12H242.11V2.51004Z" fill="white" stroke="#A5599E" stroke-miterlimit="10"/>
<path d="M264.05 42.49C265.27 40.18 267.32 38.66 269.22 37.03C278.09 29.43 287.7 22.92 298.08 17.55C308.16 12.34 318.76 8.62999 329.96 6.67999C336.33 5.56999 342.74 5.01999 349.2 5.36999C358.35 5.85999 367.22 7.81999 375.84 10.89C389.61 15.8 402.08 23.03 413.55 32.01C416.63 34.42 419.57 37.02 422.55 39.56C423.2 40.11 423.74 40.81 424.28 41.46C424.84 42.14 424.82 43.13 424.23 43.79C422.75 45.42 421.23 47.02 419.57 48.47C409.1 57.62 397.49 65.02 384.87 70.83C377.34 74.3 369.53 76.95 361.39 78.55C354.39 79.92 347.3 80.57 340.17 80.18C330.42 79.66 321.03 77.42 311.89 74.06C297.47 68.76 284.51 60.95 272.68 51.22C270.66 49.56 268.7 47.84 266.79 46.06C265.79 45.13 265 43.97 264.09 42.93C264 42.82 263.97 42.64 264.05 42.49ZM344.31 75.15C360.5 75.87 377.39 61.82 377.03 42.06C376.71 24.49 361.87 9.64999 343.75 10.26C324.94 10.89 312.05 25.86 311.93 42.72C311.82 60.2 326.65 75.79 344.31 75.15ZM370.46 71.15C388.36 65.41 403.93 55.82 417.72 43.14C417.88 42.99 417.9 42.74 417.75 42.58C409.04 32.8 382.24 16.96 370.12 14.31C369.73 14.22 369.48 14.71 369.77 14.99C377.59 22.65 382 31.69 381.98 42.83C381.96 53.88 377.61 62.87 370.06 70.48C369.76 70.77 370.06 71.27 370.46 71.15ZM319.88 71.77C319.95 71.68 320.02 71.6 320.09 71.51C319.94 71.42 319.76 71.37 319.64 71.25C315.73 67.5 312.44 63.32 310.24 58.31C306.29 49.31 305.94 40.13 308.85 30.81C310.61 25.17 313.83 20.38 317.94 16.17C318.57 15.53 319.15 14.85 319.75 14.18C301.27 19.69 285.44 29.57 271.16 42.43C270.98 42.59 270.98 42.87 271.16 43.03C285.46 56.21 301.48 66 319.88 71.77Z" fill="white" stroke="white" stroke-width="5" stroke-miterlimit="10"/>
<path d="M463.5 80.3C462.37 80.3 461.64 79.7 461.31 78.51L450.77 25.22L440.33 78.51C440.06 79.7 439.34 80.3 438.14 80.3H428.7C427.17 80.3 426.58 79.57 426.91 78.11L443.61 2.55001C443.94 1.36001 444.67 0.76001 445.8 0.76001H455.74C456.93 0.76001 457.66 1.36001 457.93 2.55001L474.73 78.11C475.06 79.57 474.46 80.3 472.94 80.3H463.5Z" fill="white" stroke="#A5599E" stroke-miterlimit="10"/>
<path d="M496.3 33.98H508.23C517.77 33.98 522.55 38.75 522.55 48.3V66C522.55 75.54 517.78 80.32 508.23 80.32H484.37C483.31 80.32 482.78 79.79 482.78 78.73V2.36002C482.78 1.30002 483.31 0.77002 484.37 0.77002H494.71C495.77 0.77002 496.3 1.30002 496.3 2.36002V33.98ZM496.3 47.1V67.18H505.05C507.7 67.18 509.03 65.85 509.03 63.2V51.08C509.03 48.43 507.7 47.1 505.05 47.1H496.3Z" fill="white" stroke="#A5599E" stroke-miterlimit="10"/>
</svg>
