<?xml version="1.0" encoding="utf-8"?>
<!-- Generator: Adobe Illustrator 24.3.0, SVG Export Plug-In . SVG Version: 6.00 Build 0)  -->
<svg version="1.1" id="Layer_1" xmlns="http://www.w3.org/2000/svg" xmlns:xlink="http://www.w3.org/1999/xlink" x="0px" y="0px"
	 viewBox="0 0 392.41 244.5" style="enable-background:new 0 0 392.41 244.5;" xml:space="preserve">
<style type="text/css">
	.st0{clip-path:url(#SVGID_2_);}
	.st1{fill:#009F97;}
	.st2{fill:#9CDAD7;}
	.st3{fill:#A4589C;}
	.st4{fill:#F7AB16;}
</style>
<g>
	<defs>
		<path id="SVGID_1_" d="M0,129.94c0,2.23,0,4.46,0,6.69c10.55,12.4,20.03,25.99,31.82,37.01c55,51.41,118.46,71.2,191.87,51.12
			c8.29-2.27,8.41-2.25,12.69,5.79c3.72,6.98,8.37,12.52,16.68,13.59c14,1.8,25.76-3.29,35.64-12.88c8.39-8.13,9.1-18.88,2.46-28.78
			c-3.28-4.88-7.07-9.41-10.71-14.04c-4.11-5.21-8.31-10.35-12.47-15.51c7.42,2.83,14.16,6.26,20.82,9.87
			c4.85,2.63,8.93,2.2,13.48-1.29c10.38-7.96,17.97-7.43,28.71,0.31c10.07,7.25,20.24,14.42,30.8,20.88
			c5.35,3.28,11.5,5.54,17.58,7.13c7.17,1.88,12.13-2.58,11.99-10.15c-0.09-4.42-0.69-8.89-1.6-13.21
			c-6.72-31.95-7.25-64.01-1.81-96.18c1.27-7.48,2.9-14.9,4.16-22.38c1.59-9.43-3.05-14.05-12.01-11.81c-4.02,1-8.21,2.17-11.7,4.31
			c-12.57,7.72-25.08,15.57-37.21,23.98c-11.69,8.1-18.73,8.05-30.13-0.36c-12.49-9.21-25.47-17.72-38.05-26.8
			c-1.65-1.19-2.94-3.97-3.04-6.07c-0.15-3.45,0.78-6.96,1.33-10.43c1.55-9.87,3.22-19.72,4.69-29.6c0.61-4.09-0.76-7.78-4.77-8.94
			c-4.45-1.28-9.3-2.59-13.76-2.06c-24.86,2.92-47.78,12.13-69.41,24.59c-8.76,5.05-17.17,8.85-27.63,9.94
			c-30.5,3.17-58.95,13.43-84.81,30.62C39.66,82.5,16.86,103.07,0,129.94z"/>
	</defs>
	<clipPath id="SVGID_2_">
		<use xlink:href="#SVGID_1_"  style="overflow:visible;"/>
	</clipPath>
	<g id="XMLID_50_" class="st0">
		<g>
			<path class="st1" d="M462.71,637.77v26.36H-59.29v-25.59c0-49.21,38.95-89.09,87.01-89.09c48.05,0,87,39.88,87,89.09
				c0-49.21,38.95-89.09,87-89.09c48.05,0,87,39.88,87,89.09c0-49.21,38.95-89.09,87.01-89.09
				C423.52,549.45,462.31,588.92,462.71,637.77z"/>
			<path class="st2" d="M462.71,535.96v101.81c-0.39-48.86-39.19-88.33-86.99-88.33c-48.05,0-87.01,39.88-87.01,89.09
				c0-49.21-38.94-89.09-87-89.09c-48.05,0-87,39.88-87,89.09c0-49.21-38.95-89.09-87-89.09c-48.05,0-87.01,39.88-87.01,89.09
				V536.72c0-43.92,31.03-80.41,71.87-87.74c-0.89,9.77-2.38,19.53-4.43,29.28c-0.9,4.33-1.51,8.8-1.6,13.21
				c-0.15,7.57,4.81,12.03,11.99,10.15c6.08-1.59,12.22-3.85,17.58-7.13c10.56-6.46,20.73-13.62,30.8-20.88
				c5.84-4.2,10.74-6.28,15.66-6.03c9.44,7.87,17.24,17.72,22.78,28.94c-5.11,9.26-3.92,19.01,3.84,26.53
				c1.62,1.58,3.31,3.04,5.03,4.36c0.32,3.05,0.47,6.17,0.47,9.31c0-2.92,0.14-5.81,0.41-8.66c8.58,6.28,18.41,9.31,29.72,7.87
				c8.31-1.07,12.96-6.62,16.69-13.6c4.29-8.04,4.41-8.05,12.7-5.79c40.2,11,77.4,10.04,111.88-1.52c1.7,6.94,2.6,14.22,2.6,21.7
				c0-8.22,1.09-16.17,3.12-23.72c26.34-9.81,51.05-25.87,74.26-47.57c5.76-5.39,10.96-11.39,16.02-17.56
				C426.93,451.21,462.33,489.3,462.71,535.96z"/>
			<path class="st1" d="M462.71,434.14v101.82c-0.38-46.66-35.78-84.75-80.59-88.08c5.29-6.47,10.41-13.12,15.8-19.46
				c0-2.23,0-4.46,0-6.69c-16.76-26.7-39.37-47.18-65.11-64.35c12.66-7.36,27.31-11.57,42.91-11.57
				C423.52,345.81,462.31,385.28,462.71,434.14z"/>
			<path class="st2" d="M462.71,332.33v101.81c-0.39-48.86-39.19-88.33-86.99-88.33c-15.6,0-30.24,4.2-42.91,11.57
				c-0.17-0.12-0.32-0.22-0.49-0.33c-14.03-9.33-28.82-16.61-44.29-21.82l0.68-2.14c0-49.21,38.95-89.09,87.01-89.09
				C423.52,244,462.31,283.47,462.71,332.33z"/>
			<path class="st1" d="M462.71,230.5v101.82c-0.39-48.86-39.19-88.33-86.99-88.33c-48.05,0-87.01,39.88-87.01,89.09
				c0-49.21-38.94-89.09-87-89.09c-48.05,0-87,39.88-87,89.09c0-49.21-38.95-89.09-87-89.09c-48.05,0-87.01,39.88-87.01,89.09
				V231.27c0-41.79,28.1-76.85,66-86.47c8.04,9.99,15.86,20.2,25.11,28.84c25.65,23.98,53.14,41.07,82.62,50.46
				c0.18,2.36,0.28,4.75,0.28,7.17c0-2.35,0.09-4.69,0.26-6.99c33.58,10.57,69.74,11.14,108.71,0.48c8.29-2.26,8.41-2.24,12.7,5.79
				c3.72,6.98,8.37,12.52,16.68,13.59c14,1.8,25.75-3.29,35.65-12.88c7.72-7.49,8.94-17.21,3.89-26.42
				c2.74-9.06,6.86-17.5,12.1-25.06c9.18-6.1,16.39-5.08,26.28,2.04c10.08,7.26,20.25,14.42,30.81,20.89
				c5.35,3.27,11.5,5.54,17.57,7.13c7.17,1.88,12.14-2.58,11.99-10.15c-0.08-4.42-0.68-8.89-1.6-13.21
				c-3.07-14.6-4.85-29.22-5.35-43.87C428.13,147.06,462.34,184.64,462.71,230.5z"/>
			<path class="st2" d="M462.71,128.69V230.5c-0.37-45.86-34.58-83.44-78.3-87.89c-0.61-17.41,0.59-34.85,3.54-52.33
				c1.26-7.48,2.89-14.9,4.16-22.38c1.59-9.43-3.05-14.05-12.01-11.82c-4.02,1.01-8.21,2.17-11.7,4.32
				c-12.57,7.71-25.08,15.57-37.21,23.98c-11.7,8.11-18.74,8.05-30.14-0.36c-0.04-0.04-0.09-0.06-0.13-0.09
				c15.16-26.1,42.99-43.58,74.8-43.58C423.52,40.36,462.31,79.83,462.71,128.69z"/>
			<path class="st1" d="M462.71,26.87v101.82c-0.39-48.86-39.19-88.33-86.99-88.33c-31.81,0-59.64,17.48-74.8,43.58
				c-12.44-9.19-25.38-17.66-37.92-26.72c-1.65-1.19-2.95-3.96-3.03-6.07c-0.15-3.45,0.78-6.96,1.33-10.43
				c1.55-9.87,3.21-19.72,4.68-29.61c0.61-4.09-0.76-7.78-4.77-8.93c-4.45-1.28-9.3-2.59-13.77-2.07
				c-24.87,2.93-47.78,12.13-69.41,24.6c-8.76,5.05-17.18,8.85-27.64,9.93c-25.43,2.65-49.43,10.22-71.69,22.63
				C64.39,46.63,46.78,40.36,27.72,40.36c-48.05,0-87.01,39.88-87.01,89.09V27.63c0-49.21,38.95-89.09,87.01-89.09
				c48.05,0,87,39.88,87,89.09c0-49.21,38.95-89.09,87-89.09c48.05,0,87,39.88,87,89.09c0-49.21,38.95-89.09,87.01-89.09
				C423.52-61.46,462.31-21.99,462.71,26.87z"/>
			<path class="st2" d="M462.71-91.87V26.87c-0.39-48.86-39.19-88.33-86.99-88.33c-48.05,0-87.01,39.88-87.01,89.09
				c0-49.21-38.94-89.09-87-89.09c-48.05,0-87,39.88-87,89.09c0-49.21-38.95-89.09-87-89.09c-48.05,0-87.01,39.88-87.01,89.09
				v-119.5H462.71z"/>
			<path class="st3" d="M397.92,421.73c0,2.23,0,4.46,0,6.69c-5.39,6.34-10.51,12.99-15.8,19.46c-2.11-0.16-4.24-0.24-6.4-0.24
				c-40.03,0-73.75,27.68-83.88,65.36c-1.89,0.71-3.81,1.39-5.73,2.03c-9.45-38.72-43.64-67.39-84.39-67.39
				c-45.2,0-82.34,35.29-86.59,80.43c-0.3-0.21-0.6-0.43-0.89-0.66c-1.11-11.02-4.19-21.43-8.87-30.88
				c0.41-0.75,0.88-1.52,1.38-2.26c3.28-4.89,7.08-9.41,10.72-14.04c4.11-5.21,8.31-10.34,12.48-15.51
				c-7.42,2.83-14.17,6.26-20.82,9.87c-4.85,2.63-8.94,2.2-13.49-1.29c-4.74-3.64-8.9-5.5-13.05-5.71
				c-14.97-12.48-34.06-19.95-54.87-19.95c-5.16,0-10.22,0.46-15.14,1.35c2.07-22.24,1.17-44.54-2.61-66.9
				c-1.26-7.48-2.89-14.91-4.16-22.39c-1.16-6.82,0.95-11.12,5.59-12.13c1.77-0.4,3.93-0.3,6.41,0.32
				c4.02,1.01,8.22,2.16,11.71,4.31c12.57,7.72,25.08,15.58,37.21,23.99c10.79,7.48,17.63,8.01,27.6,1.42
				c12.72,15.49,20.39,35.48,20.39,57.3c0-49.21,38.95-89.09,87-89.09c48.05,0,87,39.88,87,89.09c0-33.23,17.77-62.21,44.1-77.52
				C358.55,374.55,381.16,395.03,397.92,421.73z"/>
			<path class="st3" d="M391.35,199.69c0.15,7.57-4.81,12.02-11.99,10.15c-6.07-1.59-12.22-3.86-17.57-7.13
				c-10.56-6.47-20.73-13.63-30.81-20.89c-9.89-7.12-17.1-8.14-26.28-2.04c15.76-22.76,41.69-37.61,71.01-37.61
				c2.94,0,5.83,0.15,8.69,0.44c0.5,14.65,2.28,29.27,5.35,43.87C390.67,190.8,391.27,195.28,391.35,199.69z"/>
			<path class="st4" d="M375.72,447.64c2.16,0,4.29,0.08,6.4,0.24c-5.06,6.17-10.26,12.17-16.02,17.56
				c-23.21,21.7-47.92,37.76-74.26,47.57C301.97,475.31,335.69,447.64,375.72,447.64z"/>
			<path class="st4" d="M332.32,357.05c0.17,0.11,0.32,0.22,0.49,0.33c-26.33,15.31-44.1,44.29-44.1,77.52
				c0-49.21-38.94-89.09-87-89.09c-48.05,0-87,39.88-87,89.09c0-21.82-7.66-41.81-20.39-57.3c0.82-0.55,1.67-1.14,2.53-1.78
				c12.49-9.21,25.47-17.72,38.05-26.8c1.65-1.19,2.95-3.97,3.04-6.07c0.15-3.46-0.79-6.96-1.33-10.43
				c-1.55-9.87-3.22-19.73-4.68-29.61c-0.61-4.09,0.76-7.78,4.77-8.93c4.45-1.28,9.3-2.6,13.77-2.07
				c24.86,2.92,47.77,12.13,69.41,24.59c8.76,5.05,17.17,8.85,27.63,9.94c13.95,1.45,27.47,4.38,40.51,8.79
				C303.5,340.43,318.29,347.72,332.32,357.05z"/>
			<path class="st2" d="M302.28,181.52c0.82-0.64,1.63-1.21,2.43-1.73c-5.24,7.56-9.36,16-12.1,25.06
				c-0.43-0.79-0.91-1.58-1.44-2.36c-3.28-4.89-7.07-9.42-10.72-14.04c-3.73-4.74-7.53-9.4-11.32-14.1
				c-0.39-0.47-0.76-0.94-1.15-1.42c7.42,2.84,14.16,6.27,20.82,9.88C293.65,185.44,297.73,185.01,302.28,181.52z"/>
			<path class="st3" d="M292.61,204.85c5.05,9.21,3.82,18.93-3.89,26.42C288.71,222.06,290.07,213.19,292.61,204.85z"/>
			<path class="st3" d="M300.92,83.94c-7.76,13.32-12.21,28.88-12.21,45.51c0-49.21-38.94-89.09-87-89.09
				c-48.05,0-87,39.88-87,89.09c0-29.7-14.19-56-36.01-72.18c22.26-12.41,46.26-19.98,71.69-22.63c10.46-1.09,18.88-4.89,27.64-9.93
				c21.62-12.46,44.54-21.67,69.41-24.6c4.47-0.52,9.32,0.78,13.77,2.07c4.01,1.16,5.38,4.85,4.77,8.93
				c-1.47,9.89-3.13,19.74-4.68,29.61c-0.55,3.48-1.48,6.99-1.33,10.43c0.09,2.11,1.39,4.89,3.03,6.07
				C275.54,66.28,288.48,74.76,300.92,83.94z"/>
			<path class="st3" d="M292.61,204.85c-2.53,8.34-3.89,17.21-3.89,26.42c0-21.52-7.45-41.27-19.86-56.67l0.28-0.24
				c3.79,4.7,7.59,9.36,11.32,14.1c3.65,4.62,7.44,9.15,10.72,14.04C291.69,203.27,292.18,204.06,292.61,204.85z"/>
			<path class="st1" d="M291.83,513c-2.03,7.55-3.12,15.51-3.12,23.72c0-7.48-0.9-14.75-2.6-21.7
				C288.03,514.39,289.94,513.71,291.83,513z"/>
			<path class="st3" d="M268.85,174.59c12.41,15.4,19.86,35.15,19.86,56.67c-9.89,9.59-21.64,14.67-35.65,12.88
				c-8.3-1.07-12.96-6.61-16.68-13.59c-4.29-8.04-4.41-8.05-12.7-5.79c-38.97,10.66-75.13,10.08-108.71-0.48
				c3.48-45.94,40.99-82.1,86.73-82.1C228.74,142.18,252.89,154.79,268.85,174.59z"/>
			<path class="st2" d="M288.71,333.09l-0.68,2.14c-13.04-4.41-26.56-7.34-40.51-8.79c-10.46-1.1-18.87-4.89-27.63-9.94
				c-21.63-12.46-44.55-21.67-69.41-24.59c-4.47-0.53-9.32,0.78-13.77,2.07c-4.01,1.16-5.38,4.85-4.77,8.93
				c1.46,9.88,3.13,19.74,4.68,29.61c0.54,3.48,1.48,6.98,1.33,10.43c-0.1,2.1-1.39,4.88-3.04,6.07
				c-12.57,9.09-25.56,17.59-38.05,26.8c-0.87,0.64-1.71,1.23-2.53,1.78c-15.95-19.43-39.87-31.79-66.61-31.79
				c-5.59,0-11.06,0.54-16.35,1.57c-40.24,7.83-70.66,44.03-70.66,87.52V333.09c0-49.21,38.95-89.09,87.01-89.09
				c48.05,0,87,39.88,87,89.09c0-49.21,38.95-89.09,87-89.09C249.77,244,288.71,283.88,288.71,333.09z"/>
			<path class="st4" d="M267.98,172.93c0.39,0.48,0.76,0.95,1.15,1.42l-0.28,0.24c-15.96-19.8-40.11-32.42-67.14-32.42
				c-45.75,0-83.25,36.16-86.73,82.1c-0.18-0.06-0.36-0.12-0.54-0.18c-3.56-45.86-41.03-81.92-86.72-81.92
				c-7.24,0-14.28,0.91-21.01,2.62c-2.2-2.76-4.43-5.49-6.71-8.17c0-2.23,0-4.45,0-6.68c16.86-26.88,39.66-47.45,65.59-64.68
				c4.31-2.86,8.67-5.52,13.12-7.99c21.82,16.18,36.01,42.48,36.01,72.18c0-49.21,38.95-89.09,87-89.09c48.05,0,87,39.88,87,89.09
				c0-16.63,4.45-32.19,12.21-45.51c0.04,0.03,0.09,0.05,0.13,0.09c11.4,8.41,18.44,8.47,30.14,0.36
				c12.13-8.41,24.64-16.26,37.21-23.98c3.49-2.15,7.68-3.31,11.7-4.32c8.96-2.24,13.6,2.39,12.01,11.82
				c-1.26,7.48-2.89,14.9-4.16,22.38c-2.96,17.47-4.15,34.91-3.54,52.33c-2.86-0.29-5.75-0.44-8.69-0.44
				c-29.32,0-55.25,14.84-71.01,37.61c-0.8,0.52-1.6,1.1-2.43,1.73c-4.55,3.49-8.63,3.92-13.48,1.29
				C282.14,179.2,275.4,175.77,267.98,172.93z"/>
			<path class="st4" d="M201.71,447.64c40.75,0,74.94,28.67,84.39,67.39c-34.47,11.56-71.68,12.52-111.88,1.52
				c-8.29-2.26-8.41-2.24-12.7,5.79c-3.73,6.98-8.37,12.53-16.69,13.6c-11.3,1.45-21.14-1.59-29.72-7.87
				C119.37,482.93,156.52,447.64,201.71,447.64z"/>
			<path class="st1" d="M129.94,464.72c-4.17,5.16-8.37,10.3-12.48,15.51c-3.64,4.62-7.44,9.15-10.72,14.04
				c-0.5,0.75-0.96,1.51-1.38,2.26c-5.54-11.22-13.34-21.08-22.78-28.94c4.15,0.22,8.3,2.07,13.05,5.71
				c4.55,3.49,8.64,3.92,13.49,1.29C115.77,470.98,122.52,467.55,129.94,464.72z"/>
			<path class="st1" d="M114.24,527.41c0.29,0.22,0.59,0.45,0.89,0.66c-0.27,2.85-0.41,5.74-0.41,8.66
				C114.72,533.58,114.56,530.47,114.24,527.41z"/>
			<path class="st2" d="M114.44,224.1c0.18,0.06,0.36,0.12,0.54,0.18c-0.18,2.3-0.26,4.63-0.26,6.99
				C114.72,228.85,114.62,226.46,114.44,224.1z"/>
			<path class="st4" d="M114.24,527.41c-1.73-1.32-3.41-2.77-5.03-4.36c-7.76-7.52-8.95-17.27-3.84-26.53
				C110.05,505.98,113.13,516.39,114.24,527.41z"/>
			<path class="st3" d="M27.72,142.18c45.69,0,83.16,36.06,86.72,81.92c-29.48-9.38-56.97-26.48-82.62-50.46
				C22.57,165,14.75,154.79,6.71,144.8C13.44,143.08,20.48,142.18,27.72,142.18z"/>
			<path class="st4" d="M82.59,467.59c-4.92-0.25-9.82,1.82-15.66,6.03c-10.07,7.26-20.24,14.42-30.8,20.88
				c-5.36,3.28-11.5,5.54-17.58,7.13c-7.17,1.89-12.14-2.58-11.99-10.15c0.09-4.41,0.69-8.88,1.6-13.21
				c2.05-9.75,3.53-19.51,4.43-29.28c4.91-0.89,9.97-1.35,15.14-1.35C48.53,447.64,67.62,455.11,82.59,467.59z"/>
			<path class="st2" d="M78.71,57.27c-4.45,2.47-8.81,5.14-13.12,7.99C39.66,82.5,16.86,103.07,0,129.95c0,2.23,0,4.45,0,6.68
				c2.28,2.68,4.51,5.41,6.71,8.17c-37.9,9.62-66,44.67-66,86.47V129.45c0-49.21,38.95-89.09,87.01-89.09
				C46.78,40.36,64.39,46.63,78.71,57.27z"/>
			<path class="st1" d="M17.82,347.89c-2.48-0.62-4.64-0.72-6.41-0.32l-0.04-0.18c5.29-1.03,10.76-1.57,16.35-1.57
				c26.74,0,50.66,12.36,66.61,31.79c-9.97,6.59-16.8,6.06-27.6-1.42c-12.13-8.41-24.64-16.26-37.21-23.99
				C26.04,350.05,21.84,348.89,17.82,347.89z"/>
			<path class="st1" d="M9.97,382.08c3.78,22.36,4.68,44.66,2.61,66.9c-40.84,7.33-71.87,43.82-71.87,87.74V434.9
				c0-43.49,30.42-79.69,70.66-87.52l0.04,0.18c-4.65,1.01-6.75,5.32-5.59,12.13C7.08,367.18,8.71,374.6,9.97,382.08z"/>
		</g>
		<g>
		</g>
	</g>
</g>
</svg>
