<?xml version="1.0" encoding="utf-8"?>
<!-- Generator: Adobe Illustrator 24.3.0, SVG Export Plug-In . SVG Version: 6.00 Build 0)  -->
<svg version="1.1" id="Layer_1" xmlns="http://www.w3.org/2000/svg" xmlns:xlink="http://www.w3.org/1999/xlink" x="0px" y="0px"
	 viewBox="0 0 392.41 244.5" style="enable-background:new 0 0 392.41 244.5;" xml:space="preserve">
<style type="text/css">
	.st0{clip-path:url(#SVGID_2_);}
	.st1{fill:#06A099;}
	.st2{fill:#BEDAD8;}
	.st3{fill:#A5599E;}
	.st4{fill:#F8AD18;}
</style>
<g>
	<defs>
		<path id="SVGID_1_" d="M392.41,129.94c0,2.23,0,4.46,0,6.69c-10.55,12.4-20.03,25.99-31.82,37.01
			c-55,51.41-118.46,71.2-191.87,51.12c-8.29-2.27-8.41-2.25-12.69,5.79c-3.72,6.98-8.37,12.52-16.68,13.59
			c-14,1.8-25.76-3.29-35.64-12.88c-8.39-8.13-9.1-18.88-2.46-28.78c3.28-4.88,7.07-9.41,10.71-14.04
			c4.11-5.21,8.31-10.35,12.47-15.51c-7.42,2.83-14.16,6.26-20.82,9.87c-4.85,2.63-8.93,2.2-13.48-1.29
			c-10.38-7.96-17.97-7.43-28.71,0.31c-10.07,7.25-20.24,14.42-30.8,20.88c-5.35,3.28-11.5,5.54-17.58,7.13
			c-7.17,1.88-12.13-2.58-11.99-10.15c0.09-4.42,0.69-8.89,1.6-13.21c6.72-31.95,7.25-64.01,1.81-96.18
			c-1.27-7.48-2.9-14.9-4.16-22.38c-1.59-9.43,3.05-14.05,12.01-11.81c4.02,1,8.21,2.17,11.7,4.31
			C36.59,68.13,49.1,75.99,61.23,84.4c11.69,8.1,18.73,8.05,30.13-0.36c12.49-9.21,25.47-17.72,38.05-26.8
			c1.65-1.19,2.94-3.97,3.04-6.07c0.15-3.45-0.78-6.96-1.33-10.43c-1.55-9.87-3.22-19.72-4.69-29.6c-0.61-4.09,0.76-7.78,4.77-8.94
			c4.45-1.28,9.3-2.59,13.76-2.06c24.86,2.92,47.78,12.13,69.41,24.59c8.76,5.05,17.17,8.85,27.63,9.94
			c30.5,3.17,58.95,13.43,84.81,30.62C352.75,82.5,375.55,103.07,392.41,129.94z"/>
	</defs>
	<clipPath id="SVGID_2_">
		<use xlink:href="#SVGID_1_"  style="overflow:visible;"/>
	</clipPath>
	<g id="XMLID_51_" class="st0">
		<g>
			<path class="st1" d="M457.21,346.75v25.59h-522v-25.59c0-49.21,38.95-89.09,87.01-89.09c48.05,0,87,39.88,87,89.09
				c0-49.21,38.95-89.09,87-89.09c48.05,0,87,39.88,87,89.09c0-49.21,38.95-89.09,87.01-89.09
				C418.26,257.67,457.21,297.55,457.21,346.75z"/>
			<path class="st2" d="M457.21,244.93v101.82c0-49.21-38.95-89.09-87-89.09c-48.05,0-87.01,39.88-87.01,89.09
				c0-49.21-38.94-89.09-87-89.09c-48.05,0-87,39.88-87,89.09c0-49.21-38.95-89.09-87-89.09c-48.05,0-87.01,39.88-87.01,89.09
				V244.93c0-43.93,31.03-80.41,71.88-87.74c-0.9,9.77-2.38,19.54-4.43,29.29c-0.91,4.32-1.52,8.79-1.6,13.21
				c-0.14,7.57,4.81,12.03,11.99,10.15c6.08-1.59,12.22-3.85,17.58-7.13c10.56-6.47,20.73-13.63,30.81-20.88
				c5.84-4.21,10.74-6.29,15.67-6.03c9.44,7.87,17.23,17.72,22.77,28.93c-5.12,9.26-3.92,19,3.83,26.53
				c1.62,1.58,3.31,3.04,5.03,4.36c0.32,3.05,0.47,6.16,0.47,9.3c0-2.92,0.14-5.81,0.41-8.66c8.58,6.29,18.41,9.31,29.73,7.87
				c8.3-1.07,12.96-6.61,16.68-13.59c4.29-8.04,4.41-8.05,12.7-5.79c40.2,10.99,77.4,10.04,111.88-1.52
				c1.69,6.94,2.6,14.21,2.6,21.69c0-8.22,1.09-16.16,3.12-23.72c26.34-9.81,51.06-25.87,74.27-47.58
				c5.76-5.39,10.96-11.38,16.02-17.56C421.68,159.44,457.21,197.93,457.21,244.93z"/>
			<path class="st1" d="M457.21,143.12v101.81c0-47-35.53-85.49-80.59-88.85c5.28-6.46,10.4-13.11,15.79-19.45c0-2.24,0-4.46,0-6.69
				c-16.76-26.7-39.36-47.18-65.1-64.35c12.66-7.36,27.3-11.57,42.9-11.57C418.26,54.03,457.21,93.91,457.21,143.12z"/>
			<path class="st2" d="M457.21,41.3v101.82c0-49.21-38.95-89.09-87-89.09c-15.6,0-30.24,4.2-42.9,11.57
				c-0.17-0.11-0.33-0.22-0.5-0.33c-14.03-9.33-28.82-16.61-44.29-21.82l0.68-2.15c0-49.21,38.95-89.09,87.01-89.09
				C418.26-47.79,457.21-7.91,457.21,41.3z"/>
			<path class="st1" d="M457.21-60.52V41.3c0-49.21-38.95-89.09-87-89.09c-48.05,0-87.01,39.88-87.01,89.09
				c0-49.21-38.94-89.09-87-89.09c-48.05,0-87,39.88-87,89.09c0-49.21-38.95-89.09-87-89.09c-48.05,0-87.01,39.88-87.01,89.09
				V-60.52c0-41.79,28.1-76.86,66-86.48c8.03,9.99,15.85,20.21,25.1,28.85c25.65,23.98,53.14,41.07,82.62,50.46
				c0.18,2.36,0.28,4.75,0.28,7.17c0-2.35,0.09-4.69,0.26-6.99c33.58,10.57,69.74,11.14,108.71,0.48c8.29-2.27,8.41-2.25,12.7,5.78
				c3.72,6.99,8.37,12.53,16.68,13.6c14,1.8,25.76-3.3,35.65-12.88c7.72-7.49,8.94-17.21,3.89-26.43
				c2.74-9.04,6.84-17.47,12.07-25.03c9.19-6.13,16.42-5.13,26.32,2.01c10.08,7.26,20.25,14.42,30.81,20.88
				c5.36,3.28,11.5,5.54,17.58,7.14c7.17,1.88,12.13-2.59,11.99-10.15c-0.09-4.42-0.69-8.89-1.6-13.22
				c-3.07-14.59-4.85-29.21-5.35-43.86C422.87-144.7,457.21-106.73,457.21-60.52z"/>
			<path class="st2" d="M457.21-162.34v101.82c0-46.21-34.34-84.19-78.31-88.65c-0.61-17.41,0.59-34.85,3.54-52.33
				c1.26-7.48,2.89-14.9,4.16-22.39c1.59-9.43-3.05-14.05-12.01-11.81c-4.02,1.01-8.21,2.16-11.7,4.31
				c-12.57,7.72-25.08,15.58-37.21,23.99c-11.69,8.11-18.73,8.05-30.14-0.36c-0.04-0.04-0.1-0.07-0.14-0.1
				c15.17-26.1,42.99-43.58,74.81-43.58C418.26-251.43,457.21-211.55,457.21-162.34z"/>
			<path class="st1" d="M457.21-264.15v101.81c0-49.21-38.95-89.09-87-89.09c-31.81,0-59.64,17.48-74.81,43.58
				c-12.43-9.18-25.37-17.65-37.91-26.71c-1.64-1.19-2.94-3.97-3.03-6.07c-0.15-3.46,0.78-6.96,1.33-10.43
				c1.55-9.87,3.22-19.72,4.68-29.61c0.61-4.09-0.76-7.78-4.77-8.93c-4.45-1.28-9.3-2.6-13.77-2.07
				c-24.86,2.92-47.78,12.13-69.41,24.59c-8.76,5.05-17.18,8.85-27.63,9.94c-25.43,2.64-49.44,10.22-71.7,22.62
				c-14.33-10.64-31.95-16.91-50.99-16.91c-48.05,0-87.01,39.88-87.01,89.09v-101.81c0-49.21,38.95-89.09,87.01-89.09
				c48.05,0,87,39.88,87,89.09c0-49.21,38.95-89.09,87-89.09c48.05,0,87,39.88,87,89.09c0-49.21,38.95-89.09,87.01-89.09
				C418.26-353.24,457.21-313.36,457.21-264.15z"/>
			<path class="st2" d="M457.21-383.66v119.5c0-49.21-38.95-89.09-87-89.09c-48.05,0-87.01,39.88-87.01,89.09
				c0-49.21-38.94-89.09-87-89.09c-48.05,0-87,39.88-87,89.09c0-49.21-38.95-89.09-87-89.09c-48.05,0-87.01,39.88-87.01,89.09
				v-119.5H457.21z"/>
			<path class="st3" d="M392.41,129.95c0,2.23,0,4.45,0,6.69c-5.39,6.34-10.51,12.99-15.79,19.45c-2.11-0.16-4.25-0.24-6.41-0.24
				c-40.03,0-73.75,27.68-83.88,65.37c-1.89,0.71-3.81,1.38-5.72,2.03c-9.45-38.72-43.65-67.4-84.4-67.4
				c-45.2,0-82.34,35.29-86.59,80.43c-0.3-0.21-0.6-0.43-0.89-0.65c-1.11-11.02-4.19-21.44-8.87-30.89
				c0.41-0.75,0.88-1.51,1.38-2.25c3.28-4.89,7.07-9.41,10.71-14.04c4.11-5.21,8.31-10.34,12.48-15.52
				c-7.42,2.84-14.16,6.27-20.82,9.88c-4.85,2.63-8.93,2.2-13.48-1.29c-4.74-3.63-8.9-5.5-13.04-5.71
				c-14.97-12.48-34.08-19.96-54.89-19.96c-5.16,0-10.22,0.46-15.13,1.35c2.06-22.25,1.16-44.54-2.62-66.89
				C3.2,82.81,1.57,75.39,0.31,67.91C-0.84,61.1,1.26,56.8,5.9,55.78c1.78-0.4,3.94-0.3,6.42,0.32c4.02,1,8.21,2.16,11.7,4.31
				C36.59,68.14,49.1,75.99,61.23,84.4c10.79,7.48,17.63,8.01,27.6,1.41c12.72,15.49,20.39,35.48,20.39,57.31
				c0-49.21,38.95-89.09,87-89.09c48.05,0,87,39.88,87,89.09c0-33.23,17.77-62.21,44.11-77.52
				C353.05,82.77,375.66,103.25,392.41,129.95z"/>
			<path class="st3" d="M385.86-92.09c0.14,7.56-4.81,12.02-11.99,10.15c-6.08-1.6-12.22-3.86-17.58-7.14
				c-10.56-6.46-20.73-13.62-30.81-20.88c-9.9-7.14-17.13-8.14-26.32-2.01c15.77-22.77,41.71-37.63,71.05-37.63
				c2.93,0,5.83,0.15,8.69,0.44c0.5,14.65,2.28,29.27,5.35,43.86C385.16-100.98,385.77-96.51,385.86-92.09z"/>
			<path class="st4" d="M370.21,155.84c2.16,0,4.3,0.08,6.41,0.24c-5.06,6.18-10.26,12.17-16.02,17.56
				c-23.21,21.7-47.93,37.77-74.27,47.58C296.46,183.52,330.18,155.84,370.21,155.84z"/>
			<path class="st4" d="M326.81,65.26c0.17,0.11,0.33,0.22,0.5,0.33c-26.34,15.31-44.11,44.29-44.11,77.52
				c0-49.21-38.94-89.09-87-89.09c-48.05,0-87,39.88-87,89.09c0-21.83-7.66-41.82-20.39-57.31c0.82-0.54,1.67-1.13,2.54-1.78
				c12.48-9.21,25.47-17.72,38.05-26.8c1.64-1.19,2.94-3.96,3.03-6.07c0.15-3.45-0.78-6.96-1.33-10.43
				c-1.55-9.87-3.22-19.72-4.68-29.61c-0.61-4.08,0.76-7.78,4.77-8.93c4.45-1.28,9.3-2.59,13.77-2.07
				c24.86,2.93,47.78,12.13,69.41,24.6c8.76,5.05,17.18,8.85,27.63,9.93c13.95,1.45,27.47,4.39,40.51,8.8
				C297.99,48.65,312.78,55.93,326.81,65.26z"/>
			<path class="st2" d="M296.78-110.26c0.81-0.62,1.6-1.19,2.39-1.71c-5.23,7.56-9.33,15.98-12.07,25.03
				c-0.43-0.79-0.91-1.58-1.44-2.36c-3.28-4.88-7.07-9.41-10.71-14.04c-3.74-4.73-7.54-9.4-11.33-14.09
				c-0.39-0.48-0.76-0.94-1.15-1.42c7.42,2.83,14.16,6.26,20.82,9.87C288.14-106.35,292.22-106.78,296.78-110.26z"/>
			<path class="st3" d="M287.1-86.94c5.05,9.22,3.82,18.94-3.89,26.43C283.21-69.72,284.56-78.6,287.1-86.94z"/>
			<path class="st3" d="M295.4-207.85c-7.75,13.32-12.2,28.88-12.2,45.51c0-49.21-38.94-89.09-87-89.09c-48.05,0-87,39.88-87,89.09
				c0-29.7-14.19-56-36.01-72.18c22.26-12.4,46.27-19.98,71.7-22.62c10.45-1.09,18.87-4.89,27.63-9.94
				c21.62-12.46,44.55-21.67,69.41-24.59c4.47-0.53,9.32,0.78,13.77,2.07c4.01,1.16,5.38,4.85,4.77,8.93
				c-1.46,9.89-3.13,19.74-4.68,29.61c-0.55,3.48-1.48,6.98-1.33,10.43c0.1,2.1,1.39,4.89,3.03,6.07
				C270.03-225.5,282.97-217.03,295.4-207.85z"/>
			<path class="st3" d="M287.1-86.94c-2.53,8.34-3.89,17.22-3.89,26.43c0-21.53-7.45-41.27-19.86-56.67l0.28-0.24
				c3.79,4.69,7.59,9.36,11.33,14.09c3.64,4.62,7.43,9.16,10.71,14.04C286.19-88.52,286.67-87.73,287.1-86.94z"/>
			<path class="st1" d="M286.33,221.22c-2.03,7.55-3.12,15.5-3.12,23.72c0-7.48-0.9-14.74-2.6-21.69
				C282.52,222.6,284.43,221.93,286.33,221.22z"/>
			<path class="st3" d="M263.34-117.19c12.41,15.4,19.86,35.14,19.86,56.67c-9.88,9.58-21.64,14.67-35.65,12.88
				c-8.3-1.07-12.96-6.61-16.68-13.6c-4.29-8.04-4.41-8.05-12.7-5.78c-38.97,10.66-75.13,10.08-108.71-0.48
				c3.48-45.94,40.99-82.1,86.73-82.1C223.24-149.61,247.38-136.99,263.34-117.19z"/>
			<path class="st2" d="M283.21,41.3l-0.68,2.15c-13.04-4.41-26.56-7.35-40.51-8.8c-10.45-1.09-18.87-4.89-27.63-9.93
				c-21.62-12.46-44.55-21.67-69.41-24.6c-4.47-0.52-9.32,0.78-13.77,2.07c-4.01,1.16-5.38,4.86-4.77,8.93
				c1.46,9.89,3.13,19.74,4.68,29.61c0.55,3.48,1.48,6.99,1.33,10.43c-0.1,2.11-1.39,4.89-3.03,6.07
				c-12.58,9.09-25.57,17.59-38.05,26.8c-0.87,0.65-1.72,1.24-2.54,1.78C72.86,66.38,48.94,54.03,22.21,54.03
				c-5.59,0-11.06,0.54-16.35,1.58c-40.24,7.82-70.66,44.02-70.66,87.51V41.3c0-49.21,38.95-89.09,87.01-89.09
				c48.05,0,87,39.88,87,89.09c0-49.21,38.95-89.09,87-89.09C244.26-47.79,283.21-7.91,283.21,41.3z"/>
			<path class="st4" d="M262.48-118.85c0.39,0.48,0.76,0.94,1.15,1.42l-0.28,0.24c-15.96-19.8-40.1-32.42-67.14-32.42
				c-45.75,0-83.25,36.16-86.73,82.1c-0.18-0.06-0.36-0.12-0.54-0.18c-3.56-45.86-41.03-81.92-86.72-81.92
				c-7.24,0-14.28,0.91-21,2.61c-2.21-2.75-4.44-5.49-6.72-8.16c0-2.23,0-4.46,0-6.69c16.86-26.87,39.66-47.44,65.6-64.68
				c4.3-2.86,8.67-5.52,13.11-7.99c21.82,16.18,36.01,42.48,36.01,72.18c0-49.21,38.95-89.09,87-89.09c48.05,0,87,39.88,87,89.09
				c0-16.63,4.45-32.19,12.2-45.51c0.04,0.03,0.1,0.06,0.14,0.1c11.41,8.41,18.45,8.47,30.14,0.36
				c12.13-8.41,24.64-16.26,37.21-23.99c3.49-2.15,7.68-3.3,11.7-4.31c8.96-2.24,13.6,2.38,12.01,11.81
				c-1.26,7.49-2.89,14.91-4.16,22.39c-2.96,17.47-4.15,34.91-3.54,52.33c-2.86-0.29-5.76-0.44-8.69-0.44
				c-29.33,0-55.28,14.86-71.05,37.63c-0.78,0.51-1.58,1.09-2.39,1.71c-4.56,3.48-8.64,3.92-13.49,1.28
				C276.64-112.59,269.89-116.02,262.48-118.85z"/>
			<path class="st4" d="M196.21,155.84c40.75,0,74.95,28.68,84.4,67.4c-34.48,11.56-71.69,12.51-111.88,1.52
				c-8.29-2.26-8.41-2.24-12.7,5.79c-3.72,6.98-8.37,12.52-16.68,13.59c-11.31,1.45-21.15-1.58-29.73-7.87
				C113.87,191.13,151.01,155.84,196.21,155.84z"/>
			<path class="st1" d="M124.43,172.93c-4.17,5.17-8.37,10.31-12.48,15.52c-3.64,4.62-7.43,9.15-10.71,14.04
				c-0.5,0.75-0.96,1.5-1.38,2.25c-5.54-11.22-13.34-21.07-22.77-28.93c4.14,0.22,8.3,2.08,13.04,5.71
				c4.55,3.49,8.63,3.92,13.48,1.29C110.27,179.2,117.02,175.77,124.43,172.93z"/>
			<path class="st1" d="M108.74,235.63c0.29,0.22,0.59,0.44,0.89,0.65c-0.27,2.85-0.41,5.74-0.41,8.66
				C109.21,241.79,109.05,238.68,108.74,235.63z"/>
			<path class="st2" d="M108.93-67.68c0.18,0.06,0.36,0.12,0.54,0.18c-0.18,2.3-0.26,4.63-0.26,6.99
				C109.21-62.93,109.11-65.32,108.93-67.68z"/>
			<path class="st4" d="M108.74,235.63c-1.73-1.33-3.41-2.78-5.03-4.36c-7.75-7.53-8.95-17.27-3.83-26.53
				C104.55,214.19,107.62,224.61,108.74,235.63z"/>
			<path class="st3" d="M22.21-149.61c45.69,0,83.16,36.06,86.72,81.92c-29.48-9.38-56.97-26.48-82.62-50.46
				c-9.24-8.64-17.06-18.87-25.1-28.85C7.94-148.7,14.97-149.61,22.21-149.61z"/>
			<path class="st4" d="M77.1,175.81c-4.93-0.26-9.83,1.81-15.67,6.03c-10.08,7.25-20.25,14.41-30.81,20.88
				c-5.36,3.28-11.5,5.54-17.58,7.13c-7.17,1.89-12.13-2.58-11.99-10.15c0.09-4.42,0.69-8.89,1.6-13.21
				c2.05-9.75,3.53-19.52,4.43-29.29c4.91-0.89,9.97-1.35,15.13-1.35C43.02,155.84,62.13,163.32,77.1,175.81z"/>
			<path class="st2" d="M73.21-234.52c-4.44,2.47-8.81,5.14-13.11,7.99c-25.94,17.24-48.74,37.81-65.6,64.68c0,2.23,0,4.46,0,6.69
				c2.28,2.68,4.51,5.41,6.72,8.16c-37.91,9.62-66,44.68-66,86.48v-101.82c0-49.21,38.95-89.09,87.01-89.09
				C41.26-251.43,58.88-245.16,73.21-234.52z"/>
			<path class="st1" d="M5.87,55.61c5.29-1.04,10.76-1.58,16.35-1.58c26.73,0,50.65,12.35,66.61,31.78
				c-9.97,6.6-16.8,6.07-27.6-1.41C49.1,75.99,36.59,68.14,24.02,60.41c-3.49-2.15-7.68-3.31-11.7-4.31
				c-2.48-0.62-4.64-0.72-6.42-0.32L5.87,55.61z"/>
			<path class="st1" d="M4.46,90.3c3.78,22.35,4.68,44.64,2.62,66.89c-40.85,7.33-71.88,43.81-71.88,87.74V143.12
				c0-43.49,30.42-79.69,70.66-87.51l0.04,0.17C1.26,56.8-0.84,61.1,0.31,67.91C1.57,75.39,3.2,82.81,4.46,90.3z"/>
		</g>
		<g>
		</g>
	</g>
</g>
</svg>
