<svg width="444" height="504" viewBox="0 0 444 504" fill="none" xmlns="http://www.w3.org/2000/svg">
<path d="M409.29 289.04C433.51 299.65 446.25 325.56 443.16 353.7C440.49 377.91 420.25 400.07 395.86 405.25C375.77 409.52 358.46 402.97 342.35 390.94C314.65 370.24 288.34 347.89 263.9 323.24C263.37 322.7 262.76 322.24 262.51 322.01C266.78 342.44 271.76 362.93 275.21 383.69C278.49 403.41 281.63 423.35 282.23 443.29C283.22 476.56 254.06 504.13 222.29 503.67L222.3 502.95V0.850025C224.29 0.780025 226.54 0.790024 228.99 0.950024C232.49 1.84002 236.04 2.55003 239.48 3.64003C268.49 12.91 286.46 41.1 282.14 72.06C278.41 98.79 273.83 125.41 269.2 152C267.39 162.34 264.43 172.46 261.88 183.2C269.49 175.89 276.6 168.71 284.08 161.94C293.58 153.36 303.09 144.79 312.87 136.57L348.57 239.95C335.92 244.11 323.13 247.86 310.27 251.37C309.74 251.51 309.22 251.76 307.71 252.33C318.45 255.5 328.41 257.83 337.95 261.36C361.86 270.24 385.93 278.8 409.29 289.04Z" fill="#A5599E"/>
<path d="M442.86 149.96C447.48 177.05 434.29 203.65 409.84 215.53C389.94 225.2 369.43 233.12 348.55 239.96L312.85 136.58V136.57C325.06 126.28 337.68 116.53 351.14 107.94C388.33 84.2301 435.3 105.65 442.86 149.96Z" fill="#F8AD18"/>
<path d="M222.29 0.859985V502.96L222.28 503.68C219.61 503.64 216.92 503.41 214.24 502.96C187.67 498.54 171.13 482.59 163.76 456.27C160.73 445.47 161.57 434.43 163.31 423.73C167.93 395.33 173.25 367.04 178.47 338.75C179.52 333.08 181.33 327.57 182.99 321.19C175.17 328.7 168.13 335.77 160.76 342.47C139.32 361.93 117.7 381.24 93.3299 396.81C59.4599 418.44 17.18 402.74 3.93004 364.04C-5.89996 335.33 8.17994 301.57 35.1999 288.83C67.1599 273.76 100.42 262.52 134.36 253.31C134.89 253.17 135.4 252.91 136.88 252.32C126.29 249.2 116.47 246.91 107.07 243.43C103.46 242.09 99.8399 240.75 96.2099 239.43L131.65 136.79C147.7 150.03 163.17 163.96 177.94 178.76C179.37 180.19 180.9 181.53 182.01 182.56C177.45 160.58 172.23 138.47 168.43 116.11C165.4 98.33 162.9 80.29 162.31 62.29C161.33 32.21 184.26 6.03999 213.39 1.82999C213.4 1.80999 216.87 1.03999 222.29 0.859985Z" fill="#E62B4F"/>
<path d="M131.66 136.77L96.22 239.41C75.75 231.88 55.2701 224.37 35.2901 215.63C11.0601 205.03 -1.70995 179.03 1.42005 150.93C4.11005 126.73 24.47 104.51 48.76 99.3901C68.67 95.1901 85.94 101.54 101.89 113.44C112.01 120.99 121.93 128.75 131.66 136.77Z" fill="#F8AD18"/>
</svg>
