<?xml version="1.0" encoding="utf-8"?>
<!-- Generator: Adobe Illustrator 24.3.0, SVG Export Plug-In . SVG Version: 6.00 Build 0)  -->
<svg version="1.1" id="Layer_1" xmlns="http://www.w3.org/2000/svg" xmlns:xlink="http://www.w3.org/1999/xlink" x="0px" y="0px"
	 viewBox="0 0 521.9 763.23" style="enable-background:new 0 0 521.9 763.23;" xml:space="preserve">
<style type="text/css">
	.st0{fill:#F7EC64;}
	.st1{fill:#05A099;}
	.st2{fill:#A55A9F;}
</style>
<path class="st0" d="M521.9,0H0v254.41h521.9V0z"/>
<path class="st1" d="M521.9,254.41H0v254.41h521.9V254.41z"/>
<path class="st2" d="M521.9,508.82H0v254.41h521.9V508.82z"/>
<path class="st2" d="M212.18,36.29H48.73v122.94h163.45V36.29z"/>
<path class="st2" d="M478.17,36.29H314.72v122.94h163.45L478.17,36.29L478.17,36.29z"/>
<path class="st0" d="M211.55,290.19H48.1v122.94h163.45L211.55,290.19L211.55,290.19z"/>
<path class="st0" d="M477.54,290.19H314.09v122.94h163.45L477.54,290.19L477.54,290.19z"/>
<path class="st1" d="M211.55,544.08H48.1v122.94h163.45L211.55,544.08L211.55,544.08z"/>
<path class="st1" d="M477.54,544.08H314.09v122.94h163.45L477.54,544.08L477.54,544.08z"/>
</svg>
