<svg width="302" height="504" viewBox="0 0 302 504" fill="none" xmlns="http://www.w3.org/2000/svg">
<path d="M291.96 229.78C299.02 243.22 302.21 257.89 301.2 273.62C300.08 290.96 293.98 306.32 284.67 317.89H195.57V395.46C181.72 396.61 168.88 392.01 157.04 382.09C156.95 382.01 156.78 382.06 156.5 382.03C156.5 418.36 156.5 454.66 156.5 491.24C194.79 491.24 233.08 491.24 271.48 491.24C271.48 495.6 271.48 499.67 271.48 503.94C231.26 503.94 191.03 503.94 150.79 503.94V10.71C159.06 16.48 165.9 24.5701 171.38 34.8401C171.68 35.4101 172 35.9599 172.41 36.6899C184.17 27.7799 197.01 24.11 210.75 25.73C224.05 27.3 235.66 33.7 245.54 44.5C263.98 64.65 271.82 100.04 257.43 131.3C262.1 134.55 266.98 137.4 271.36 141.11C284.21 151.98 292.13 166.87 295.21 185.28C297.58 199.42 296.38 213.23 291.72 226.58C291.39 227.48 291.52 228.96 291.96 229.78Z" fill="#EA5384"/>
<path d="M195.56 317.89H284.66C276.06 328.58 264.73 336.05 252.07 338.87C251.34 339.03 250.37 340.16 250.19 341.03C248 351.61 244.03 361.13 238.21 369.49C229.09 382.6 217.51 390.96 203.49 394.22C200.81 394.84 198.18 395.26 195.57 395.46V317.89H195.56Z" fill="#F8AD18"/>
<path d="M150.79 10.72V503.95C107.84 503.95 64.8701 503.95 21.8401 503.95C21.8401 499.97 21.8401 495.92 21.8401 491.58C60.1101 491.58 98.41 491.58 136.85 491.58C136.85 456.5 136.85 421.71 136.85 386.81C133.84 388.33 130.86 390.09 127.74 391.36C104.57 400.68 84.12 394.89 66.29 375.22C64.42 373.15 62.4301 371.68 60.1401 370.41C40.8901 359.75 28.9701 342.04 24.8901 317.13C22.9301 305.18 23.98 293.36 27.38 281.89C27.99 279.86 27.6801 278.83 26.2101 277.6C14.7001 268.01 6.68003 255.28 2.80003 239.12C0.0900295 227.85 -0.479929 217.05 1.03007 206.71H106.03V102.33H14.8C15.89 98.8301 17.25 95.39 18.86 92.04C27.41 74.24 40.16 62.6801 56.81 57.8401C60.89 56.6501 62.48 54.6501 63.85 50.0801C71.89 23.2301 87.77 7.05012 111.36 1.87012C112.88 1.54012 114.41 1.24994 115.94 0.939941C119.09 0.939941 122.24 0.939941 125.39 0.939941C128.81 1.69994 132.28 2.20002 135.61 3.27002C141.13 5.01002 146.18 7.49997 150.79 10.72Z" fill="#E62B4F"/>
<path d="M106.02 102.32V206.7H1.02008C2.63008 195.58 6.66009 184.99 13.0301 174.98C14.9601 171.94 17.2601 169.22 19.5601 166.54C20.5001 165.45 20.49 164.74 19.86 163.52C15.25 154.64 12.4601 144.93 11.5201 134.59C10.5201 123.36 11.57 112.55 14.79 102.31H106.02V102.32Z" fill="#F8AD18"/>
</svg>
