<svg width="302" height="504" viewBox="0 0 302 504" fill="none" xmlns="http://www.w3.org/2000/svg">
<path d="M9.62006 229.78C2.56006 243.22 -0.639935 257.89 0.380065 273.62C1.50007 290.96 7.60009 306.32 16.9101 317.89H106.01V395.46C119.86 396.61 132.7 392.01 144.54 382.09C144.63 382.01 144.8 382.06 145.08 382.03C145.08 418.36 145.08 454.66 145.08 491.24C106.79 491.24 68.5 491.24 30.1 491.24C30.1 495.6 30.1 499.67 30.1 503.94C70.32 503.94 110.54 503.94 150.79 503.94V10.71C142.52 16.48 135.68 24.5701 130.2 34.8401C129.9 35.4101 129.58 35.9599 129.17 36.6899C117.42 27.7799 104.58 24.11 90.84 25.73C77.54 27.3 65.9301 33.7 56.0501 44.5C37.6101 64.65 29.7701 100.04 44.1601 131.3C39.5001 134.55 34.61 137.4 30.23 141.11C17.39 151.98 9.47007 166.87 6.39007 185.28C4.02007 199.42 5.22007 213.23 9.88006 226.58C10.1901 227.48 10.0601 228.96 9.62006 229.78Z" fill="#EA5384"/>
<path d="M106.02 317.89H16.9201C25.5201 328.58 36.8501 336.05 49.5101 338.87C50.2401 339.03 51.2101 340.16 51.3801 341.03C53.5801 351.61 57.5501 361.13 63.3701 369.49C72.4901 382.6 84.07 390.96 98.08 394.22C100.76 394.84 103.4 395.26 106.01 395.46V317.89H106.02Z" fill="#F8AD18"/>
<path d="M150.79 10.72V503.95C193.74 503.95 236.71 503.95 279.74 503.95C279.74 499.97 279.74 495.92 279.74 491.58C241.47 491.58 203.17 491.58 164.73 491.58C164.73 456.5 164.73 421.71 164.73 386.81C167.74 388.33 170.71 390.09 173.84 391.36C197 400.68 217.46 394.89 235.29 375.22C237.16 373.15 239.15 371.68 241.44 370.41C260.69 359.75 272.61 342.04 276.69 317.13C278.64 305.18 277.6 293.36 274.19 281.89C273.59 279.86 273.9 278.83 275.37 277.6C286.87 268.01 294.9 255.28 298.78 239.12C301.49 227.85 302.06 217.05 300.55 206.71H195.55V102.33H286.77C285.67 98.8301 284.31 95.4 282.7 92.04C274.16 74.24 261.41 62.6801 244.76 57.8401C240.68 56.6501 239.09 54.6501 237.72 50.0801C229.68 23.2301 213.79 7.05012 190.21 1.87012C188.68 1.54012 187.16 1.24994 185.63 0.939941C182.48 0.939941 179.32 0.939941 176.18 0.939941C172.76 1.69994 169.29 2.20002 165.96 3.27002C160.45 5.01002 155.4 7.49997 150.79 10.72Z" fill="#E62B4F"/>
<path d="M195.56 102.32V206.7H300.56C298.95 195.58 294.92 184.99 288.55 174.98C286.62 171.94 284.31 169.22 282.02 166.54C281.07 165.45 281.09 164.74 281.72 163.52C286.33 154.64 289.12 144.93 290.05 134.59C291.05 123.36 290.01 112.55 286.79 102.31H195.56V102.32Z" fill="#F8AD18"/>
</svg>
