<?xml version="1.0" encoding="utf-8"?>
<!-- Generator: Adobe Illustrator 24.3.0, SVG Export Plug-In . SVG Version: 6.00 Build 0)  -->
<svg version="1.1" id="Layer_1" xmlns="http://www.w3.org/2000/svg" xmlns:xlink="http://www.w3.org/1999/xlink" x="0px" y="0px"
	 viewBox="0 0 919 649" style="enable-background:new 0 0 919 649;" xml:space="preserve">
<style type="text/css">
	.st0{fill:#BEDAD8;}
	.st1{fill:#F8AD18;}
	.st2{fill:#A5599E;}
	.st3{fill:#E62B4F;}
	.st4{fill:#F7EB61;}
	.st5{fill:#06A099;}
	.st6{opacity:0.1;fill:#020203;enable-background:new    ;}
</style>
<g>
	<path class="st0" d="M306.22-0.01H0.08v324.57h306.14V-0.01z"/>
	<path class="st1" d="M612.36-0.01H306.22v324.57h306.14V-0.01z"/>
	<path class="st2" d="M918.5-0.01H612.36v324.57H918.5V-0.01z"/>
	<path class="st3" d="M306.22,324.56H0.08v324.57h306.14V324.56z"/>
	<path class="st4" d="M612.36,324.56H306.22v324.57h306.14V324.56z"/>
	<path class="st0" d="M918.5,324.56H612.36v324.57H918.5V324.56z"/>
	<path class="st3" d="M0.08-0.01l83.46,126.39h139.22L306.22-0.01"/>
	<path class="st3" d="M83.54,126.38L0.08,324.56h306.14l-83.46-198.18"/>
	<path class="st4" d="M306.22-0.01l83.46,126.39H528.9L612.36-0.01"/>
	<path class="st4" d="M389.68,126.38l-83.46,198.18h306.14L528.9,126.38"/>
	<path class="st0" d="M612.36-0.01l83.46,126.39h139.22L918.5-0.01"/>
	<path class="st0" d="M695.82,126.38l-83.46,198.18H918.5l-83.46-198.18"/>
	<path class="st1" d="M0.08,324.56l83.46,126.39h139.22l83.46-126.39"/>
	<path class="st1" d="M83.54,450.95L0.08,649.13h306.14l-83.46-198.18"/>
	<path class="st2" d="M306.22,324.56l83.46,126.39H528.9l83.46-126.39"/>
	<path class="st2" d="M389.68,450.95l-83.46,198.18h306.14L528.9,450.95"/>
	<path class="st5" d="M612.36,324.56l83.46,126.39h139.22l83.46-126.39"/>
	<path class="st5" d="M695.82,450.95l-83.46,198.18H918.5l-83.46-198.18"/>
	<path class="st6" d="M222.76,126.38l83.46,198.18H0.08l83.46-198.18H222.76z"/>
	<path class="st6" d="M528.9,126.38l83.46,198.18H306.22l83.46-198.18H528.9z"/>
	<path class="st6" d="M835.04,126.38l83.46,198.18H612.36l83.46-198.18H835.04z"/>
	<path class="st6" d="M222.76,450.95l83.46,198.18H0.08l83.46-198.18H222.76z"/>
	<path class="st6" d="M528.9,450.95l83.46,198.18H306.22l83.46-198.18H528.9z"/>
	<path class="st6" d="M835.04,450.95l83.46,198.18H612.36l83.46-198.18H835.04z"/>
</g>
</svg>
