<?xml version="1.0" encoding="utf-8"?>
<!-- Generator: Adobe Illustrator 24.3.0, SVG Export Plug-In . SVG Version: 6.00 Build 0)  -->
<svg version="1.1" id="Layer_1" xmlns="http://www.w3.org/2000/svg" xmlns:xlink="http://www.w3.org/1999/xlink" x="0px" y="0px"
	 viewBox="0 0 535 756" style="enable-background:new 0 0 535 756;" xml:space="preserve">
<style type="text/css">
	.st0{clip-path:url(#SVGID_2_);}
	.st1{fill:#06A099;}
	.st2{fill:#BEDAD8;}
</style>
<g>
	<g>
		<defs>
			<rect id="SVGID_1_" x="-5.36" y="-9.8" width="545" height="775"/>
		</defs>
		<clipPath id="SVGID_2_">
			<use xlink:href="#SVGID_1_"  style="overflow:visible;"/>
		</clipPath>
		<g class="st0">
			<path class="st1" d="M85.64,230.22c50.12,0,90.75,40.85,90.75,91.27c0-50.42,40.63-91.27,90.75-91.27
				c50.13,0,90.75,40.85,90.75,91.27c0-50.42,40.63-91.27,90.76-91.27c50.12,0,90.75,40.85,90.75,91.27V425.8
				c0-50.41-40.63-91.27-90.75-91.27c-50.13,0-90.76,40.85-90.76,91.27c0-50.41-40.62-91.27-90.75-91.27
				c-50.12,0-90.75,40.85-90.75,91.27c0-50.41-40.63-91.27-90.75-91.27c-49.87,0-90.33,40.43-90.75,90.49V320.71
				C-4.69,270.65,35.77,230.22,85.64,230.22z"/>
			<path class="st1" d="M176.38,217.19c0-50.42-40.63-91.27-90.75-91.27c-49.87,0-90.33,40.43-90.75,90.49V112.09
				C-4.7,62.04,35.76,21.6,85.64,21.6c50.12,0,90.75,40.85,90.75,91.27c0-50.42,40.63-91.27,90.75-91.27
				c50.13,0,90.75,40.85,90.75,91.27c0-50.42,40.63-91.27,90.76-91.27c50.12,0,90.75,40.85,90.75,91.27v104.31
				c0-50.42-40.63-91.27-90.75-91.27c-50.13,0-90.76,40.85-90.76,91.27c0-50.42-40.62-91.27-90.75-91.27
				C217.01,125.92,176.38,166.78,176.38,217.19z"/>
			<path class="st2" d="M357.88,321.49c0-50.42-40.62-91.27-90.75-91.27c-50.12,0-90.75,40.85-90.75,91.27
				c0-50.42-40.63-91.27-90.75-91.27c-49.87,0-90.33,40.43-90.75,90.49v-104.3c0.41-50.06,40.87-90.49,90.75-90.49
				c50.12,0,90.75,40.85,90.75,91.27c0-50.42,40.63-91.27,90.75-91.27c50.13,0,90.75,40.85,90.75,91.27
				c0-50.42,40.63-91.27,90.76-91.27c50.12,0,90.75,40.85,90.75,91.27v104.3c0-50.42-40.63-91.27-90.75-91.27
				C398.51,230.22,357.88,271.08,357.88,321.49z"/>
			<path class="st1" d="M176.38,634.42c0-50.42-40.63-91.27-90.75-91.27c-49.87,0-90.33,40.43-90.75,90.49V529.32
				c0.41-50.06,40.87-90.49,90.75-90.49c50.12,0,90.75,40.85,90.75,91.27c0-50.42,40.63-91.27,90.75-91.27
				c50.13,0,90.75,40.85,90.75,91.27c0-50.42,40.63-91.27,90.76-91.27c50.12,0,90.75,40.85,90.75,91.27v104.31
				c0-50.41-40.63-91.27-90.75-91.27c-50.13,0-90.76,40.85-90.76,91.27c0-50.41-40.62-91.27-90.75-91.27
				C217.01,543.15,176.38,584.01,176.38,634.42z"/>
			<path class="st2" d="M85.64,543.15c50.12,0,90.75,40.85,90.75,91.27c0-50.42,40.63-91.27,90.75-91.27
				c50.13,0,90.75,40.85,90.75,91.27c0-50.42,40.63-91.27,90.76-91.27c50.12,0,90.75,40.85,90.75,91.27v104.3
				c0-50.42-40.63-91.27-90.75-91.27c-50.13,0-90.76,40.85-90.76,91.27c0-50.42-40.62-91.27-90.75-91.27
				c-50.12,0-90.75,40.85-90.75,91.27c0-50.42-40.63-91.27-90.75-91.27c-49.87,0-90.33,40.43-90.75,90.49V633.63
				C-4.69,583.59,35.77,543.15,85.64,543.15z"/>
			<path class="st2" d="M176.38,530.1c0-50.42-40.63-91.27-90.75-91.27c-49.87,0-90.33,40.43-90.75,90.49v-104.3
				c0.41-50.06,40.87-90.49,90.75-90.49c50.12,0,90.75,40.85,90.75,91.27c0-50.41,40.63-91.27,90.75-91.27
				c50.13,0,90.75,40.85,90.75,91.27c0-50.41,40.63-91.27,90.76-91.27c50.12,0,90.75,40.85,90.75,91.27v104.3
				c0-50.41-40.63-91.27-90.75-91.27c-50.13,0-90.76,40.85-90.76,91.27c0-50.41-40.62-91.27-90.75-91.27
				C217.01,438.84,176.38,479.69,176.38,530.1z"/>
			<path class="st1" d="M539.37,738.72v26.22H-5.1v-27c0.41-50.06,40.87-90.49,90.75-90.49c50.12,0,90.75,40.85,90.75,91.27
				c0-50.42,40.63-91.27,90.75-91.27c50.13,0,90.75,40.85,90.75,91.27c0-50.42,40.63-91.27,90.76-91.27
				C498.74,647.45,539.37,688.31,539.37,738.72z"/>
			<path class="st2" d="M539.37-9.54v122.42c0-50.42-40.63-91.27-90.75-91.27c-50.13,0-90.76,40.85-90.76,91.27
				c0-50.42-40.62-91.27-90.75-91.27c-50.12,0-90.75,40.85-90.75,91.27c0-50.42-40.63-91.27-90.75-91.27
				c-49.87,0-90.33,40.43-90.75,90.49V-9.54H539.37z"/>
		</g>
	</g>
</g>
</svg>
