<svg width="82" height="82" viewBox="0 0 82 82" fill="none" xmlns="http://www.w3.org/2000/svg">
<path d="M2.75232 48.5188C-1.43269 27.4383 12.2611 6.94131 33.3428 2.75652C54.4244 -1.44251 74.9224 12.2648 79.1074 33.3454C83.2924 54.4259 69.5986 74.9229 48.517 79.1077C27.4353 83.2925 6.93733 69.5994 2.75232 48.5188Z" stroke="white" stroke-width="2.5" stroke-miterlimit="10"/>
<path d="M46.31 24.0788L46.31 32.8469C46.31 33.5444 46.8936 34.1138 47.6054 34.1138L66.6941 34.1138C67.4059 34.1138 67.9895 34.6831 67.9895 35.3806L67.9895 46.4974C67.9895 47.1948 67.4059 47.7642 66.6941 47.7642L47.6054 47.7642C46.8936 47.7642 46.31 48.3335 46.31 49.031L46.31 57.7991C46.31 58.7671 45.2282 59.3791 44.3741 58.8952L14.5096 42.0421C13.6413 41.5582 13.6413 40.334 14.5096 39.8501L44.3741 22.9828C45.2424 22.4988 46.31 23.1109 46.31 24.0788Z" stroke="white" stroke-width="2.5" stroke-miterlimit="10"/>
</svg>
