<svg width="82" height="82" viewBox="0 0 82 82" fill="none" xmlns="http://www.w3.org/2000/svg">
<path d="M79.2477 33.3413C83.4327 54.4218 69.7389 74.9188 48.6572 79.1036C27.5756 83.3026 7.07761 69.5953 2.8926 48.5147C-1.29241 27.4342 12.4014 6.93722 33.483 2.75242C54.5647 -1.43237 75.0627 12.2607 79.2477 33.3413Z" stroke="white" stroke-width="2.5" stroke-miterlimit="10"/>
<path d="M35.69 57.7813V49.0132C35.69 48.3157 35.1064 47.7463 34.3946 47.7463H15.3059C14.5941 47.7463 14.0105 47.177 14.0105 46.4795L14.0105 35.3628C14.0105 34.6653 14.5941 34.0959 15.3059 34.0959H34.3946C35.1064 34.0959 35.69 33.5266 35.69 32.8291V24.061C35.69 23.093 36.7718 22.481 37.6259 22.9649L67.4904 39.818C68.3587 40.302 68.3587 41.5261 67.4904 42.01L37.6259 58.8773C36.7576 59.3613 35.69 58.7492 35.69 57.7813Z" stroke="white" stroke-width="2.5" stroke-miterlimit="10"/>
</svg>
