<svg width="81" height="81" viewBox="0 0 81 81" fill="none" xmlns="http://www.w3.org/2000/svg">
<path d="M75.6802 57.8833C66.1715 77.1617 42.8383 85.0817 23.56 75.5729C4.28167 66.076 -3.65019 42.7429 5.85856 23.4645C15.3673 4.18621 38.7005 -3.74565 57.9788 5.7631C77.2571 15.2718 85.189 38.605 75.6802 57.8833Z" stroke="white" stroke-width="2.5" stroke-miterlimit="10"/>
<path d="M17.5597 44.2665C17.9127 43.6009 18.5045 43.1631 19.0556 42.6924C21.6234 40.5008 24.4045 38.623 27.4091 37.0742C30.3248 35.5709 33.3929 34.503 36.6337 33.9412C38.4776 33.6198 40.3342 33.4629 42.2035 33.5641C44.8525 33.7058 47.4178 34.2676 49.9144 35.1559C53.8968 36.5731 57.5059 38.6559 60.828 41.2473C61.7195 41.9433 62.5678 42.6924 63.4313 43.4237C63.6193 43.5832 63.7767 43.7831 63.9317 43.9729C64.0967 44.1703 64.0891 44.4563 63.9164 44.6461C63.4897 45.1142 63.0478 45.5774 62.5703 45.9924C59.5403 48.6319 56.1801 50.7653 52.5279 52.4406C50.3487 53.4403 48.0908 54.2071 45.7339 54.6677C43.7071 55.0625 41.6575 55.2472 39.5926 55.1384C36.7734 54.9865 34.0532 54.3412 31.4093 53.3719C27.2364 51.8434 23.4876 49.5911 20.0614 46.787C19.4772 46.3087 18.9083 45.8127 18.3572 45.299C18.0676 45.0282 17.8365 44.6941 17.5749 44.3955C17.5444 44.3601 17.5368 44.3069 17.5597 44.2665Z" stroke="white" stroke-width="2" stroke-miterlimit="10"/>
<path d="M19.703 41.8571L14.3745 36.5502" stroke="white" stroke-width="2" stroke-miterlimit="10" stroke-linecap="round"/>
<path d="M26.1013 37.8383L22.0757 31.4938" stroke="white" stroke-width="2" stroke-miterlimit="10" stroke-linecap="round"/>
<path d="M33.1664 34.9634L30.7231 27.8622" stroke="white" stroke-width="2" stroke-miterlimit="10" stroke-linecap="round"/>
<path d="M40.7986 33.6753V26.1692" stroke="white" stroke-width="2" stroke-miterlimit="10" stroke-linecap="round"/>
<path d="M61.8359 42.148L67.1645 36.8411" stroke="white" stroke-width="2" stroke-miterlimit="10" stroke-linecap="round"/>
<path d="M55.436 37.6259L59.4642 31.2789" stroke="white" stroke-width="2" stroke-miterlimit="10" stroke-linecap="round"/>
<path d="M48.3701 34.7484L50.816 27.6472" stroke="white" stroke-width="2" stroke-miterlimit="10" stroke-linecap="round"/>
<path d="M40.7682 54.7638C46.5404 54.7638 51.2196 50.1014 51.2196 44.35C51.2196 38.5985 46.5404 33.9361 40.7682 33.9361C34.9961 33.9361 30.3169 38.5985 30.3169 44.35C30.3169 50.1014 34.9961 54.7638 40.7682 54.7638Z" stroke="white" stroke-width="2" stroke-miterlimit="10" stroke-linecap="round"/>
</svg>
