<svg width="81" height="82" viewBox="0 0 81 82" fill="none" xmlns="http://www.w3.org/2000/svg">
<path d="M78.9275 33.3413C83.1125 54.4218 69.4187 74.9188 48.3371 79.1036C27.2554 83.3026 6.75742 69.5953 2.57241 48.5147C-1.6126 27.4342 12.0812 6.93722 33.1628 2.75242C54.2445 -1.43237 74.7425 12.2607 78.9275 33.3413Z" stroke="#2D9CE5" stroke-width="2.5" stroke-miterlimit="10"/>
<path d="M35.3697 57.7813V49.0132C35.3697 48.3157 34.7861 47.7463 34.0744 47.7463H14.9856C14.2739 47.7463 13.6902 47.177 13.6902 46.4795L13.6902 35.3628C13.6902 34.6653 14.2739 34.0959 14.9856 34.0959H34.0744C34.7861 34.0959 35.3697 33.5266 35.3697 32.8291V24.061C35.3697 23.093 36.4516 22.481 37.3057 22.9649L67.1701 39.818C68.0384 40.302 68.0384 41.5261 67.1701 42.01L37.3057 58.8773C36.4373 59.3613 35.3697 58.7492 35.3697 57.7813Z" stroke="#2D9CE5" stroke-width="2.5" stroke-miterlimit="10"/>
</svg>
