<svg width="81" height="82" viewBox="0 0 81 82" fill="none" xmlns="http://www.w3.org/2000/svg">
<path d="M2.57825 48.4665C-1.60676 27.3859 12.0871 6.88895 33.1687 2.70415C54.2503 -1.49487 74.7483 12.2125 78.9333 33.293C83.1183 54.3736 69.4245 74.8705 48.3429 79.0553C27.2613 83.2401 6.76326 69.547 2.57825 48.4665Z" stroke="#2D9CE5" stroke-width="2.5" stroke-miterlimit="10"/>
<path d="M46.136 24.0264L46.136 32.7946C46.136 33.492 46.7196 34.0614 47.4314 34.0614L66.5201 34.0614C67.2319 34.0614 67.8155 34.6308 67.8155 35.3282L67.8155 46.445C67.8155 47.1424 67.2319 47.7118 66.5201 47.7118L47.4314 47.7118C46.7196 47.7118 46.136 48.2812 46.136 48.9786L46.136 57.7468C46.136 58.7147 45.0542 59.3268 44.2001 58.8428L14.3356 41.9897C13.4673 41.5058 13.4673 40.2817 14.3356 39.7977L44.2001 22.9304C45.0684 22.4465 46.136 23.0585 46.136 24.0264Z" stroke="#2D9CE5" stroke-width="2.5" stroke-miterlimit="10"/>
</svg>
