<svg width="82" height="81" viewBox="0 0 82 81" fill="none" xmlns="http://www.w3.org/2000/svg">
<path d="M76.0251 57.536C66.5163 76.8144 43.1832 84.7344 23.9048 75.2256C4.62652 65.7287 -3.30534 42.3956 6.2034 23.1172C15.7121 3.83892 39.0453 -4.09294 58.3236 5.41581C77.602 14.9245 85.5338 38.2577 76.0251 57.536Z" stroke="#2D9CE5" stroke-width="2.5" stroke-miterlimit="10"/>
<path d="M17.9045 43.9192C18.2576 43.2536 18.8493 42.8158 19.4005 42.3451C21.9682 40.1535 24.7493 38.2757 27.7539 36.7269C30.6696 35.2237 33.7377 34.1557 36.9785 33.5939C38.8225 33.2725 40.6791 33.1156 42.5484 33.2168C45.1974 33.3585 47.7626 33.9203 50.2593 34.8086C54.2417 36.2258 57.8508 38.3086 61.1728 40.9C62.0643 41.596 62.9126 42.3451 63.7762 43.0764C63.9641 43.2359 64.1216 43.4358 64.2765 43.6256C64.4416 43.823 64.434 44.109 64.2613 44.2988C63.8346 44.767 63.3926 45.2301 62.9152 45.6451C59.8852 48.2846 56.525 50.418 52.8727 52.0934C50.6936 53.093 48.4357 53.8598 46.0787 54.3204C44.0519 54.7152 42.0023 54.8999 39.9374 54.7911C37.1182 54.6393 34.3981 53.9939 31.7541 53.0247C27.5812 51.4961 23.8325 49.2438 20.4062 46.4398C19.8221 45.9615 19.2532 45.4654 18.702 44.9517C18.4125 44.6809 18.1814 44.3469 17.9198 44.0482C17.8893 44.0128 17.8817 43.9597 17.9045 43.9192Z" stroke="#2D9CE5" stroke-width="2" stroke-miterlimit="10"/>
<path d="M20.0479 41.5098L14.7194 36.2029" stroke="#2D9CE5" stroke-width="2" stroke-miterlimit="10" stroke-linecap="round"/>
<path d="M26.4461 37.491L22.4205 31.1465" stroke="#2D9CE5" stroke-width="2" stroke-miterlimit="10" stroke-linecap="round"/>
<path d="M33.5113 34.6161L31.068 27.5149" stroke="#2D9CE5" stroke-width="2" stroke-miterlimit="10" stroke-linecap="round"/>
<path d="M41.1436 33.328V25.8219" stroke="#2D9CE5" stroke-width="2" stroke-miterlimit="10" stroke-linecap="round"/>
<path d="M62.1808 41.8007L67.5093 36.4938" stroke="#2D9CE5" stroke-width="2" stroke-miterlimit="10" stroke-linecap="round"/>
<path d="M55.7809 37.2786L59.809 30.9316" stroke="#2D9CE5" stroke-width="2" stroke-miterlimit="10" stroke-linecap="round"/>
<path d="M48.715 34.4011L51.1608 27.2999" stroke="#2D9CE5" stroke-width="2" stroke-miterlimit="10" stroke-linecap="round"/>
<path d="M41.1131 54.4165C46.8852 54.4165 51.5644 49.7541 51.5644 44.0027C51.5644 38.2513 46.8852 33.5888 41.1131 33.5888C35.341 33.5888 30.6617 38.2513 30.6617 44.0027C30.6617 49.7541 35.341 54.4165 41.1131 54.4165Z" stroke="#2D9CE5" stroke-width="2" stroke-miterlimit="10" stroke-linecap="round"/>
</svg>
