<svg width="1031" height="518" viewBox="0 0 1031 518" fill="none" xmlns="http://www.w3.org/2000/svg">
<path d="M201.34 177.416C203.959 179.187 204.645 182.729 202.874 185.335C201.091 187.953 197.525 188.627 194.906 186.856C192.287 185.085 191.601 181.544 193.385 178.925C195.155 176.319 198.722 175.646 201.34 177.416Z" fill="white"/>
<path d="M201.34 177.416C203.959 179.187 204.645 182.729 202.874 185.335C201.091 187.953 197.525 188.627 194.906 186.856C192.287 185.085 191.601 181.544 193.385 178.925C195.155 176.319 198.722 175.646 201.34 177.416Z" stroke="#1B8FCF" stroke-width="1.3" stroke-miterlimit="10"/>
<path d="M2.13916 219.09C33.1639 192.629 65.5228 168.089 99.216 145.531L99.2285 145.544V202.817V219.103H76.9825H2.13916V219.09Z" fill="white"/>
<path d="M2.13916 219.09C33.1639 192.629 65.5228 168.089 99.216 145.531L99.2285 145.544V202.817V219.103H76.9825H2.13916V219.09Z" stroke="#1B8FCF" stroke-width="1.3" stroke-miterlimit="10"/>
<path d="M201.992 336.056C204.423 334.036 204.735 330.432 202.702 328.013C200.67 325.606 197.054 325.282 194.622 327.315C192.19 329.335 191.879 332.938 193.911 335.345C195.956 337.764 199.572 338.076 201.992 336.056ZM202.877 185.334C204.66 182.728 203.962 179.187 201.343 177.416C198.725 175.645 195.158 176.331 193.387 178.937C191.604 181.556 192.29 185.097 194.909 186.868C197.54 188.626 201.106 187.953 202.877 185.334ZM214.835 325.332C217.267 323.299 217.579 319.708 215.546 317.289C213.514 314.87 209.897 314.558 207.466 316.578C205.034 318.598 204.722 322.202 206.755 324.621C208.8 327.04 212.404 327.364 214.835 325.332ZM216.756 194.699C218.526 192.093 217.853 188.539 215.222 186.768C212.603 184.998 209.037 185.683 207.266 188.29C205.483 190.896 206.169 194.45 208.788 196.208C211.406 197.979 214.973 197.305 216.756 194.699ZM217.192 351.718C226.432 343.999 229.313 331.554 225.298 320.93C224.774 322.638 223.776 324.21 222.317 325.419L204.224 340.532C199.996 344.061 193.5 343.276 189.709 338.774C185.906 334.273 186.267 327.763 190.482 324.235L208.588 309.121C210.035 307.912 211.755 307.201 213.539 306.989C203.725 301.19 190.906 301.851 181.678 309.57C169.982 319.334 168.46 336.679 178.274 348.314C188.075 359.96 205.508 361.482 217.192 351.718ZM226.158 189.973C229.076 178.987 224.923 166.904 214.948 160.17C202.316 151.653 185.133 154.933 176.566 167.515C168.012 180.084 171.316 197.193 183.948 205.71C193.924 212.443 206.743 211.807 215.908 205.036C214.112 204.999 212.329 204.475 210.758 203.415L191.193 190.222C186.629 187.142 185.606 180.708 188.911 175.845C192.215 170.982 198.612 169.535 203.176 172.615L222.741 185.808C224.3 186.856 225.447 188.314 226.158 189.973ZM261.248 285.129C262.744 304.171 266.622 329.621 276.448 348.039V348.052C278.843 354.449 281.474 360.733 284.354 366.893L264.477 386.895L230.984 420.601L213.788 437.909C146.676 405.113 84.402 364.138 26.0686 316.441C17.9633 309.82 9.99509 303.024 2.13916 296.115V283.758V233.33V219.09H76.995H99.2285V202.804V145.531V145.518C131.874 123.659 165.767 103.645 200.932 85.5389C205.122 83.3817 209.324 81.2618 213.539 79.1918L213.788 79.6906L230.971 97.0111L264.415 130.717L284.142 150.594L284.205 150.618C281.399 156.654 278.818 162.801 276.486 169.074C269.054 189 264.029 210.074 261.772 231.971C260.874 240.712 260.412 249.578 260.412 258.556C260.375 258.556 260.038 269.767 261.248 285.129Z" stroke="#1B8FCF" stroke-width="1.3" stroke-miterlimit="10"/>
<path d="M225.295 320.943C229.323 331.567 226.43 344.012 217.19 351.731C205.493 361.495 188.073 359.973 178.26 348.339C168.446 336.705 169.967 319.359 181.664 309.583C190.891 301.864 203.71 301.204 213.524 307.002C211.741 307.214 210.02 307.925 208.561 309.134L190.455 324.248C186.228 327.777 185.879 334.286 189.682 338.787C193.473 343.289 199.969 344.074 204.197 340.546L222.29 325.432C223.774 324.21 224.772 322.651 225.295 320.943Z" fill="white"/>
<path d="M225.295 320.943C229.323 331.567 226.43 344.012 217.19 351.731C205.493 361.495 188.073 359.973 178.26 348.339C168.446 336.705 169.967 319.359 181.664 309.583C190.891 301.864 203.71 301.204 213.524 307.002C211.741 307.214 210.02 307.925 208.561 309.134L190.455 324.248C186.228 327.777 185.879 334.286 189.682 338.787C193.473 343.289 199.969 344.074 204.197 340.546L222.29 325.432C223.774 324.21 224.772 322.651 225.295 320.943Z" stroke="#1B8FCF" stroke-width="1.3" stroke-miterlimit="10"/>
<path d="M518.758 1.38083C519.668 1.38083 520.591 1.3933 521.489 1.40577C514.818 1.46812 508.171 1.65516 501.512 1.95444C507.211 1.56787 512.96 1.38083 518.758 1.38083Z" fill="white"/>
<path d="M518.758 1.38083C519.668 1.38083 520.591 1.3933 521.489 1.40577C514.818 1.46812 508.171 1.65516 501.512 1.95444C507.211 1.56787 512.96 1.38083 518.758 1.38083Z" stroke="#1B8FCF" stroke-width="1.3" stroke-miterlimit="10"/>
<path d="M420.485 11.0689C447.37 6.41772 474.392 3.18806 501.514 1.95355C439.726 6.00622 383.887 31.6689 341.527 71.4224L311.101 38.8141C346.652 26.8431 383.089 17.5407 420.485 11.0689Z" fill="white"/>
<path d="M420.485 11.0689C447.37 6.41772 474.392 3.18806 501.514 1.95355C439.726 6.00622 383.887 31.6689 341.527 71.4224L311.101 38.8141C346.652 26.8431 383.089 17.5407 420.485 11.0689Z" stroke="#1B8FCF" stroke-width="1.3" stroke-miterlimit="10"/>
<path d="M515.555 515.707C517.537 515.72 519.545 515.72 521.54 515.707C520.617 515.72 519.695 515.72 518.759 515.72C517.675 515.72 516.615 515.707 515.555 515.707Z" fill="white"/>
<path d="M515.555 515.707C517.537 515.72 519.545 515.72 521.54 515.707C520.617 515.72 519.695 515.72 518.759 515.72C517.675 515.72 516.615 515.707 515.555 515.707Z" stroke="#1B8FCF" stroke-width="1.3" stroke-miterlimit="10"/>
<path d="M284.352 366.893C298.231 396.584 317.622 423.194 341.239 445.415L311.125 477.699L310.938 478.26C306 476.552 301.074 474.806 296.161 472.998C267.905 462.661 240.471 450.927 213.799 437.896L230.994 420.588L264.488 386.895L284.352 366.893Z" fill="white"/>
<path d="M284.352 366.893C298.231 396.584 317.622 423.194 341.239 445.415L311.125 477.699L310.938 478.26C306 476.552 301.074 474.806 296.161 472.998C267.905 462.661 240.471 450.927 213.799 437.896L230.994 420.588L264.488 386.895L284.352 366.893Z" stroke="#1B8FCF" stroke-width="1.3" stroke-miterlimit="10"/>
<path d="M515.254 515.694C507.136 515.632 499.018 515.395 490.9 514.958C429.038 511.666 369.221 498.348 310.925 478.247L311.112 477.686L341.226 445.402C386.728 488.248 447.88 514.796 515.254 515.694Z" fill="white"/>
<path d="M515.254 515.694C507.136 515.632 499.018 515.395 490.9 514.958C429.038 511.666 369.221 498.348 310.925 478.247L311.112 477.686L341.226 445.402C386.728 488.248 447.88 514.796 515.254 515.694Z" stroke="#1B8FCF" stroke-width="1.3" stroke-miterlimit="10"/>
<path d="M215.543 317.288C217.575 319.707 217.263 323.299 214.832 325.331C212.4 327.351 208.797 327.039 206.751 324.62C204.719 322.201 205.031 318.597 207.462 316.577C209.881 314.557 213.51 314.869 215.543 317.288Z" fill="white"/>
<path d="M215.543 317.288C217.575 319.707 217.263 323.299 214.832 325.331C212.4 327.351 208.797 327.039 206.751 324.62C204.719 322.201 205.031 318.597 207.462 316.577C209.881 314.557 213.51 314.869 215.543 317.288Z" stroke="#1B8FCF" stroke-width="1.3" stroke-miterlimit="10"/>
<path d="M214.934 160.158C224.91 166.891 229.075 178.975 226.144 189.96C225.446 188.302 224.299 186.855 222.728 185.783L203.163 172.59C198.586 169.51 192.202 170.944 188.897 175.82C185.593 180.683 186.603 187.117 191.179 190.197L210.744 203.39C212.315 204.45 214.099 204.974 215.894 205.011C206.729 211.782 193.91 212.418 183.934 205.685C171.302 197.168 167.998 180.072 176.552 167.49C185.119 154.933 202.302 151.641 214.934 160.158Z" fill="white"/>
<path d="M214.934 160.158C224.91 166.891 229.075 178.975 226.144 189.96C225.446 188.302 224.299 186.855 222.728 185.783L203.163 172.59C198.586 169.51 192.202 170.944 188.897 175.82C185.593 180.683 186.603 187.117 191.179 190.197L210.744 203.39C212.315 204.45 214.099 204.974 215.894 205.011C206.729 211.782 193.91 212.418 183.934 205.685C171.302 197.168 167.998 180.072 176.552 167.49C185.119 154.933 202.302 151.641 214.934 160.158Z" stroke="#1B8FCF" stroke-width="1.3" stroke-miterlimit="10"/>
<path d="M215.22 186.768C217.851 188.539 218.525 192.093 216.754 194.699C214.971 197.305 211.404 197.991 208.786 196.22C206.167 194.462 205.481 190.908 207.264 188.302C209.035 185.683 212.602 184.997 215.22 186.768Z" fill="white"/>
<path d="M215.22 186.768C217.851 188.539 218.525 192.093 216.754 194.699C214.971 197.305 211.404 197.991 208.786 196.22C206.167 194.462 205.481 190.908 207.264 188.302C209.035 185.683 212.602 184.997 215.22 186.768Z" stroke="#1B8FCF" stroke-width="1.3" stroke-miterlimit="10"/>
<path d="M311.112 38.8015L341.538 71.4098C317.683 93.793 298.118 120.64 284.177 150.605L284.115 150.58L264.4 130.703L230.956 96.9977L213.785 79.6897L213.536 79.191C245.284 63.5165 277.805 49.9993 311.112 38.8015Z" fill="white"/>
<path d="M311.112 38.8015L341.538 71.4098C317.683 93.793 298.118 120.64 284.177 150.605L284.115 150.58L264.4 130.703L230.956 96.9977L213.785 79.6897L213.536 79.191C245.284 63.5165 277.805 49.9993 311.112 38.8015Z" stroke="#1B8FCF" stroke-width="1.3" stroke-miterlimit="10"/>
<path d="M202.702 328.012C204.735 330.431 204.423 334.035 201.992 336.055C199.56 338.075 195.944 337.763 193.911 335.344C191.879 332.925 192.19 329.334 194.622 327.314C197.054 325.281 200.67 325.605 202.702 328.012Z" fill="white"/>
<path d="M202.702 328.012C204.735 330.431 204.423 334.035 201.992 336.055C199.56 338.075 195.944 337.763 193.911 335.344C191.879 332.925 192.19 329.334 194.622 327.314C197.054 325.281 200.67 325.605 202.702 328.012Z" stroke="#1B8FCF" stroke-width="1.3" stroke-miterlimit="10"/>
<path d="M230.657 420.949L264.189 387.181M230.657 420.949L213.437 438.295L213.113 438.619L230.657 420.949ZM1.56348 283.82V233.28V219.002M260.959 285.191C259.749 269.791 260.086 258.556 260.086 258.556C260.086 249.553 260.547 240.674 261.458 231.921L260.959 285.191ZM260.959 285.191H260.872M284.09 367.13L264.189 387.169M284.09 367.13C281.222 360.97 278.579 354.673 276.184 348.251M284.09 367.13C297.982 396.883 317.397 423.543 341.04 445.826C386.591 488.76 447.805 515.37 515.254 516.268C507.124 516.205 499.006 515.969 490.876 515.532C428.939 512.228 369.059 498.885 310.701 478.734C305.75 477.026 300.825 475.267 295.899 473.459C267.618 463.097 240.147 451.338 213.437 438.282C146.262 405.437 83.9136 364.362 25.5178 316.565C17.4 309.931 9.41941 303.123 1.56348 296.19V283.807M310.888 38.3154L341.339 70.9986M213.437 79.2909L230.632 96.6488L264.114 130.417L283.853 150.344M98.7526 202.679V219.002H76.4941H1.56348M1.56348 219.002C32.6256 192.479 65.0219 167.888 98.7526 145.268C131.436 123.359 165.366 103.308 200.568 85.1517C204.77 82.9945 208.973 80.8746 213.187 78.7922C244.985 63.0803 277.544 49.5382 310.888 38.3029C346.464 26.332 382.938 16.9922 420.372 10.5079C447.294 5.84421 474.341 2.61455 501.5 1.36758C439.65 5.43271 383.736 31.1453 341.339 70.9861C317.459 93.4192 297.869 120.316 283.916 150.356C281.11 156.404 278.529 162.564 276.184 168.861C268.752 188.825 263.715 209.961 261.458 231.896M98.7526 202.691V145.293M260.884 231.908C261.071 231.908 261.271 231.908 261.458 231.908H260.884ZM310.888 478.173L341.04 445.814L341.339 445.49L310.888 478.173ZM214.497 325.481C212.065 327.513 208.449 327.202 206.404 324.77C204.371 322.351 204.683 318.735 207.115 316.715C209.546 314.682 213.162 314.994 215.207 317.425C217.24 319.845 216.928 323.448 214.497 325.481ZM216.866 351.929C205.157 361.705 187.712 360.184 177.898 348.537C168.072 336.878 169.606 319.483 181.302 309.707C190.542 301.975 203.374 301.302 213.2 307.113C211.404 307.337 209.683 308.036 208.237 309.245L190.106 324.396C185.879 327.937 185.529 334.459 189.333 338.973C193.124 343.487 199.633 344.273 203.872 340.731L221.991 325.581C223.45 324.359 224.447 322.787 224.971 321.079C228.999 331.728 226.118 344.198 216.866 351.929ZM201.64 336.23C199.209 338.262 195.593 337.951 193.547 335.519C191.515 333.1 191.827 329.496 194.258 327.464C196.69 325.431 200.306 325.743 202.351 328.162C204.396 330.581 204.072 334.197 201.64 336.23ZM208.449 196.082C205.83 194.312 205.144 190.758 206.928 188.152C208.711 185.533 212.277 184.847 214.896 186.618C217.527 188.389 218.213 191.943 216.429 194.561C214.646 197.167 211.067 197.853 208.449 196.082ZM183.572 205.584C170.927 197.043 167.623 179.909 176.19 167.302C184.769 154.695 201.965 151.403 214.609 159.945C224.597 166.691 228.762 178.812 225.832 189.81C225.133 188.152 223.986 186.693 222.415 185.633L202.837 172.415C198.261 169.322 191.864 170.769 188.56 175.657C185.243 180.533 186.265 186.98 190.842 190.072L210.419 203.29C211.99 204.35 213.773 204.886 215.582 204.911C206.391 211.695 193.56 212.331 183.572 205.584ZM194.558 186.705C191.939 184.935 191.253 181.381 193.024 178.762C194.794 176.143 198.373 175.47 200.992 177.241C203.611 179.011 204.309 182.565 202.526 185.184C200.755 187.79 197.176 188.476 194.558 186.705ZM276.184 348.238C266.346 329.783 262.468 304.282 260.971 285.191L276.184 348.238ZM521.539 516.28C520.616 516.293 519.693 516.305 518.758 516.305C517.686 516.305 516.613 516.293 515.553 516.28C517.549 516.28 519.544 516.293 521.539 516.28ZM521.489 0.831378C514.805 0.893727 508.146 1.08077 501.5 1.38005C507.199 1.00595 512.96 0.818909 518.758 0.818909C519.668 0.818909 520.591 0.831378 521.489 0.831378Z" stroke="black" stroke-width="1.3" stroke-miterlimit="10"/>
<path d="M771.146 284.979C769.65 304.02 765.771 329.471 755.945 347.889V347.901C753.551 354.298 750.92 360.583 748.04 366.743L767.916 386.744L801.41 420.45L818.606 437.758C885.705 404.975 947.979 364 1006.31 316.315C1014.42 309.694 1022.39 302.898 1030.24 295.99V283.632V233.205V218.964C969.153 166.878 902.926 122.224 831.462 85.4133C827.272 83.256 823.07 81.1361 818.855 79.0662L818.606 79.565L801.447 96.848L768.004 130.554L748.276 150.43L748.214 150.455C751.02 156.491 753.601 162.651 755.933 168.923C763.365 188.85 768.378 209.924 770.647 231.82C771.545 240.562 772.006 249.428 772.006 258.406C772.019 258.393 772.355 269.604 771.146 284.979Z" stroke="#1B8FCF" stroke-width="1.3" stroke-miterlimit="10"/>
<path d="M611.908 10.9069C585.023 6.25567 558.001 3.02601 530.879 1.7915C592.667 5.84417 648.506 31.5069 690.866 71.2604L721.292 38.652C685.741 26.6936 649.304 17.3787 611.908 10.9069Z" fill="white"/>
<path d="M611.908 10.9069C585.023 6.25567 558.001 3.02601 530.879 1.7915C592.667 5.84417 648.506 31.5069 690.866 71.2604L721.292 38.652C685.741 26.6936 649.304 17.3787 611.908 10.9069Z" stroke="#1B8FCF" stroke-width="1.3" stroke-miterlimit="10"/>
<path d="M721.28 38.6534L690.854 71.2617C714.696 93.6449 734.274 120.492 748.215 150.457L748.277 150.432L768.004 130.555L801.448 96.8496L818.631 79.5291L818.881 79.0304C787.108 63.3684 754.587 49.8512 721.28 38.6534Z" fill="white"/>
<path d="M721.28 38.6534L690.854 71.2617C714.696 93.6449 734.274 120.492 748.215 150.457L748.277 150.432L768.004 130.555L801.448 96.8496L818.631 79.5291L818.881 79.0304C787.108 63.3684 754.587 49.8512 721.28 38.6534Z" stroke="#1B8FCF" stroke-width="1.3" stroke-miterlimit="10"/>
<path d="M513.635 1.23105C512.724 1.23105 511.802 1.24352 510.904 1.25599C517.563 1.31834 524.221 1.50538 530.868 1.80466C525.182 1.40562 519.433 1.23105 513.635 1.23105Z" fill="white"/>
<path d="M513.635 1.23105C512.724 1.23105 511.802 1.24352 510.904 1.25599C517.563 1.31834 524.221 1.50538 530.868 1.80466C525.182 1.40562 519.433 1.23105 513.635 1.23105Z" stroke="#1B8FCF" stroke-width="1.3" stroke-miterlimit="10"/>
<path d="M516.836 515.545C514.841 515.557 512.846 515.57 510.851 515.545C511.773 515.557 512.696 515.57 513.631 515.57C514.716 515.57 515.776 515.557 516.836 515.545Z" fill="white"/>
<path d="M516.836 515.545C514.841 515.557 512.846 515.57 510.851 515.545C511.773 515.557 512.696 515.57 513.631 515.57C514.716 515.57 515.776 515.557 516.836 515.545Z" stroke="#1B8FCF" stroke-width="1.3" stroke-miterlimit="10"/>
<path d="M748.04 366.731C734.161 396.422 714.771 423.032 691.153 445.253L721.267 477.537L721.467 478.099C726.405 476.39 731.33 474.644 736.243 472.849C764.5 462.511 791.933 450.777 818.606 437.746L801.41 420.438L767.917 386.745L748.04 366.731Z" fill="white"/>
<path d="M748.04 366.731C734.161 396.422 714.771 423.032 691.153 445.253L721.267 477.537L721.467 478.099C726.405 476.39 731.33 474.644 736.243 472.849C764.5 462.511 791.933 450.777 818.606 437.746L801.41 420.438L767.917 386.745L748.04 366.731Z" stroke="#1B8FCF" stroke-width="1.3" stroke-miterlimit="10"/>
<path d="M517.139 515.544C525.257 515.482 533.375 515.245 541.493 514.808C603.355 511.516 663.185 498.199 721.468 478.085L721.269 477.524L691.155 445.24C645.665 488.098 584.513 514.646 517.139 515.544Z" fill="white"/>
<path d="M517.139 515.544C525.257 515.482 533.375 515.245 541.493 514.808C603.355 511.516 663.185 498.199 721.468 478.085L721.269 477.524L691.155 445.24C645.665 488.098 584.513 514.646 517.139 515.544Z" stroke="#1B8FCF" stroke-width="1.3" stroke-miterlimit="10"/>
<path d="M556.765 269.978C550.705 292.199 527.798 305.293 505.589 299.232C483.381 293.172 470.3 270.24 476.36 248.019C482.421 225.798 505.328 212.705 527.536 218.765C549.745 224.825 562.825 247.757 556.765 269.978ZM448.777 507.577L463.978 451.849L448.777 507.577ZM471.934 422.633L499.08 323.099L471.934 422.633ZM469.814 211.782L397.24 138.485L469.814 211.782ZM375.917 116.962L335.315 75.9492L375.917 116.962ZM469.39 305.766L396.13 378.403L469.39 305.766ZM374.632 399.726L333.644 440.365L374.632 399.726ZM499.666 194.723L473.43 94.9282L499.666 194.723ZM465.724 65.6243L451.059 9.79728L465.724 65.6243ZM452.331 275.901L352.598 302.15L452.331 275.901ZM323.319 309.856L267.53 324.546L323.319 309.856ZM534.045 194.886L561.192 95.3521L534.045 194.886ZM569.16 66.1231L584.348 10.4083L569.16 66.1231ZM699.469 77.6326L658.493 118.259L699.469 77.6326ZM636.983 139.582L563.736 212.218L636.983 139.582ZM697.81 442.036L657.196 401.023L697.81 442.036ZM635.898 379.512L563.312 306.203L635.898 379.512ZM765.596 193.452L709.794 208.141L765.596 193.452ZM680.515 215.835L580.782 242.083L680.515 215.835ZM582.066 508.188L567.389 452.361L582.066 508.188ZM559.683 423.069L533.447 323.261L559.683 423.069ZM534.045 194.886L561.192 95.3521L534.045 194.886ZM569.16 66.1231L584.348 10.4083L569.16 66.1231ZM452.493 241.497L353.022 214.338L452.493 241.497ZM323.818 206.37L268.141 191.17L323.818 206.37ZM764.985 326.828L709.295 311.627L764.985 326.828ZM680.091 303.647L580.62 276.487L680.091 303.647ZM533.459 323.261C522.548 326.142 510.752 326.279 499.08 323.087C487.408 319.895 477.32 313.797 469.39 305.766C461.197 297.487 455.311 287.162 452.331 275.889C449.451 264.965 449.313 253.169 452.506 241.497C455.685 229.826 461.796 219.725 469.814 211.782V211.77C478.106 203.577 488.406 197.691 499.666 194.711C510.577 191.83 522.374 191.693 534.045 194.886C545.717 198.078 555.805 204.188 563.748 212.206C571.928 220.498 577.827 230.823 580.794 242.083C583.675 253.007 583.812 264.803 580.62 276.475C577.44 288.147 571.33 298.247 563.312 306.19C555.019 314.395 544.707 320.294 533.459 323.261ZM533.459 323.261C522.548 326.142 510.752 326.279 499.08 323.087C487.408 319.895 477.32 313.797 469.39 305.766C461.197 297.487 455.311 287.162 452.331 275.889C449.451 264.965 449.313 253.169 452.506 241.497C455.685 229.826 461.796 219.725 469.814 211.782V211.77C478.106 203.577 488.406 197.691 499.666 194.711C510.577 191.83 522.374 191.693 534.045 194.886C545.717 198.078 555.805 204.188 563.748 212.206C571.928 220.498 577.827 230.823 580.794 242.083C583.675 253.007 583.812 264.803 580.62 276.475C577.44 288.147 571.33 298.247 563.312 306.19C555.019 314.395 544.707 320.294 533.459 323.261ZM563.299 306.203C555.019 314.395 544.707 320.294 533.447 323.261C522.536 326.142 510.739 326.279 499.068 323.087C487.396 319.895 477.308 313.797 469.377 305.766C461.185 297.487 455.299 287.162 452.319 275.889C449.438 264.965 449.301 253.169 452.493 241.497C455.673 229.826 461.783 219.725 469.801 211.782V211.77C478.094 203.577 488.394 197.691 499.654 194.711C510.565 191.83 522.361 191.693 534.033 194.886C545.705 198.078 555.793 204.188 563.736 212.206C571.916 220.498 577.814 230.823 580.782 242.083C583.662 253.007 583.8 264.803 580.607 276.475C577.44 288.159 571.33 298.26 563.299 306.203ZM584.348 10.4083C447.144 -27.0508 305.575 53.8778 268.141 191.157C230.707 328.449 311.573 470.117 448.777 507.577C585.982 545.036 727.551 464.107 764.985 326.828C802.419 189.536 721.553 47.8798 584.348 10.4083ZM533.459 323.261C522.548 326.142 510.752 326.279 499.08 323.087C487.408 319.895 477.32 313.797 469.39 305.766C461.197 297.487 455.311 287.162 452.331 275.889C449.451 264.965 449.313 253.169 452.506 241.497C455.685 229.826 461.796 219.725 469.814 211.782V211.77C478.106 203.577 488.406 197.691 499.666 194.711C510.577 191.83 522.374 191.693 534.045 194.886C545.717 198.078 555.805 204.188 563.748 212.206C571.928 220.498 577.827 230.823 580.794 242.083C583.675 253.007 583.812 264.803 580.62 276.475C577.44 288.147 571.33 298.247 563.312 306.19C555.019 314.395 544.707 320.294 533.459 323.261ZM533.459 323.261C522.548 326.142 510.752 326.279 499.08 323.087C487.408 319.895 477.32 313.797 469.39 305.766C461.197 297.487 455.311 287.162 452.331 275.889C449.451 264.965 449.313 253.169 452.506 241.497C455.685 229.826 461.796 219.725 469.814 211.782V211.77C478.106 203.577 488.406 197.691 499.666 194.711C510.577 191.83 522.374 191.693 534.045 194.886C545.717 198.078 555.805 204.188 563.748 212.206C571.928 220.498 577.827 230.823 580.794 242.083C583.675 253.007 583.812 264.803 580.62 276.475C577.44 288.147 571.33 298.247 563.312 306.19C555.019 314.395 544.707 320.294 533.459 323.261ZM397.227 138.485L469.801 211.782C478.094 203.589 488.394 197.704 499.654 194.723C510.565 191.843 522.361 191.706 534.033 194.898L561.179 95.3646L397.227 138.485ZM53.4867 204.749H71.3683V213.079H53.4867V204.749ZM84.1373 155.431H98.7269H84.1373ZM81.1196 162.202H89.4369V173.475H81.1196V162.202ZM40.2937 186.468V219.002V186.468ZM556.154 269.679C550.094 291.9 527.187 304.993 504.978 298.933C482.77 292.873 469.689 269.941 475.749 247.72C481.81 225.499 504.716 212.406 526.925 218.466C549.134 224.526 562.214 247.458 556.154 269.679ZM448.154 507.277L463.354 451.55L448.154 507.277ZM471.323 422.333L498.469 322.8L471.323 422.333ZM375.306 116.663L334.704 75.6499L375.306 116.663ZM468.766 305.467L395.507 378.091L468.766 305.467ZM374.009 399.427L333.021 440.065L374.009 399.427ZM499.055 194.424L472.819 94.6289L499.055 194.424ZM465.113 65.325L450.436 9.49801L465.113 65.325ZM451.708 275.602L351.975 301.851L451.708 275.602ZM322.708 309.557L266.919 324.247L322.708 309.557ZM698.858 77.3334L657.882 117.96L698.858 77.3334ZM636.372 139.283L563.125 211.919L636.372 139.283ZM697.187 441.736L656.573 400.723L697.187 441.736ZM635.275 379.213L562.688 305.904L635.275 379.213ZM764.985 193.14L709.183 207.829L764.985 193.14ZM679.904 215.535L580.171 241.784L679.904 215.535ZM581.443 507.888L566.766 452.049L581.443 507.888ZM559.072 422.77L532.836 322.962L559.072 422.77ZM568.537 65.8238L583.725 10.109L568.537 65.8238ZM451.882 241.198L352.411 214.039L451.882 241.198ZM323.207 206.071L267.53 190.87L323.207 206.071ZM764.361 326.529L708.671 311.328L764.361 326.529ZM679.48 303.347L580.009 276.188L679.48 303.347ZM583.737 10.109C446.533 -27.3501 304.964 53.5785 267.517 190.858C230.083 328.15 310.949 469.818 448.154 507.277C585.358 544.736 726.927 463.82 764.361 326.529C801.808 189.237 720.929 47.5681 583.737 10.109ZM532.836 322.962C521.925 325.843 510.128 325.98 498.457 322.788C486.785 319.595 476.697 313.498 468.766 305.467C460.574 297.187 454.688 286.862 451.708 275.59C448.827 264.666 448.69 252.87 451.882 241.198C455.062 229.526 461.172 219.426 469.19 211.483V211.47C477.483 203.278 487.783 197.392 499.043 194.412C509.954 191.531 521.75 191.394 533.422 194.586C545.093 197.779 555.181 203.889 563.125 211.907C571.305 220.199 577.203 230.524 580.171 241.784C583.051 252.708 583.189 264.504 579.996 276.176C576.816 287.847 570.706 297.948 562.688 305.891C554.408 314.096 544.096 319.982 532.836 322.962ZM396.616 138.186L469.19 211.483C477.483 203.29 487.783 197.404 499.043 194.424C509.954 191.544 521.75 191.406 533.422 194.599L560.568 95.0653" fill="white"/>
<path d="M396.616 138.186L469.19 211.483C477.483 203.29 487.783 197.404 499.043 194.424C509.954 191.544 521.75 191.406 533.422 194.599L560.568 95.0653M556.765 269.978C550.705 292.199 527.798 305.293 505.589 299.232C483.381 293.172 470.3 270.24 476.36 248.019C482.421 225.798 505.328 212.705 527.536 218.765C549.745 224.825 562.825 247.757 556.765 269.978ZM448.777 507.577L463.978 451.849L448.777 507.577ZM471.934 422.633L499.08 323.099L471.934 422.633ZM469.814 211.782L397.24 138.485L469.814 211.782ZM375.917 116.962L335.315 75.9492L375.917 116.962ZM469.39 305.766L396.13 378.403L469.39 305.766ZM374.632 399.726L333.644 440.365L374.632 399.726ZM499.666 194.723L473.43 94.9282L499.666 194.723ZM465.724 65.6243L451.059 9.79728L465.724 65.6243ZM452.331 275.901L352.598 302.15L452.331 275.901ZM323.319 309.856L267.53 324.546L323.319 309.856ZM534.045 194.886L561.192 95.3521L534.045 194.886ZM569.16 66.1231L584.348 10.4083L569.16 66.1231ZM699.469 77.6326L658.493 118.259L699.469 77.6326ZM636.983 139.582L563.736 212.218L636.983 139.582ZM697.81 442.036L657.196 401.023L697.81 442.036ZM635.898 379.512L563.312 306.203L635.898 379.512ZM765.596 193.452L709.794 208.141L765.596 193.452ZM680.515 215.835L580.782 242.083L680.515 215.835ZM582.066 508.188L567.389 452.361L582.066 508.188ZM559.683 423.069L533.447 323.261L559.683 423.069ZM534.045 194.886L561.192 95.3521L534.045 194.886ZM569.16 66.1231L584.348 10.4083L569.16 66.1231ZM452.493 241.497L353.022 214.338L452.493 241.497ZM323.818 206.37L268.141 191.17L323.818 206.37ZM764.985 326.828L709.295 311.627L764.985 326.828ZM680.091 303.647L580.62 276.487L680.091 303.647ZM533.459 323.261C522.548 326.142 510.752 326.279 499.08 323.087C487.408 319.895 477.32 313.797 469.39 305.766C461.197 297.487 455.311 287.162 452.331 275.889C449.451 264.965 449.313 253.169 452.506 241.497C455.685 229.826 461.796 219.725 469.814 211.782V211.77C478.106 203.577 488.406 197.691 499.666 194.711C510.577 191.83 522.374 191.693 534.045 194.886C545.717 198.078 555.805 204.188 563.748 212.206C571.928 220.498 577.827 230.823 580.794 242.083C583.675 253.007 583.812 264.803 580.62 276.475C577.44 288.147 571.33 298.247 563.312 306.19C555.019 314.395 544.707 320.294 533.459 323.261ZM533.459 323.261C522.548 326.142 510.752 326.279 499.08 323.087C487.408 319.895 477.32 313.797 469.39 305.766C461.197 297.487 455.311 287.162 452.331 275.889C449.451 264.965 449.313 253.169 452.506 241.497C455.685 229.826 461.796 219.725 469.814 211.782V211.77C478.106 203.577 488.406 197.691 499.666 194.711C510.577 191.83 522.374 191.693 534.045 194.886C545.717 198.078 555.805 204.188 563.748 212.206C571.928 220.498 577.827 230.823 580.794 242.083C583.675 253.007 583.812 264.803 580.62 276.475C577.44 288.147 571.33 298.247 563.312 306.19C555.019 314.395 544.707 320.294 533.459 323.261ZM563.299 306.203C555.019 314.395 544.707 320.294 533.447 323.261C522.536 326.142 510.739 326.279 499.068 323.087C487.396 319.895 477.308 313.797 469.377 305.766C461.185 297.487 455.299 287.162 452.319 275.889C449.438 264.965 449.301 253.169 452.493 241.497C455.673 229.826 461.783 219.725 469.801 211.782V211.77C478.094 203.577 488.394 197.691 499.654 194.711C510.565 191.83 522.361 191.693 534.033 194.886C545.705 198.078 555.793 204.188 563.736 212.206C571.916 220.498 577.814 230.823 580.782 242.083C583.662 253.007 583.8 264.803 580.607 276.475C577.44 288.159 571.33 298.26 563.299 306.203ZM584.348 10.4083C447.144 -27.0508 305.575 53.8778 268.141 191.157C230.707 328.449 311.573 470.117 448.777 507.577C585.982 545.036 727.551 464.107 764.985 326.828C802.419 189.536 721.553 47.8798 584.348 10.4083ZM533.459 323.261C522.548 326.142 510.752 326.279 499.08 323.087C487.408 319.895 477.32 313.797 469.39 305.766C461.197 297.487 455.311 287.162 452.331 275.889C449.451 264.965 449.313 253.169 452.506 241.497C455.685 229.826 461.796 219.725 469.814 211.782V211.77C478.106 203.577 488.406 197.691 499.666 194.711C510.577 191.83 522.374 191.693 534.045 194.886C545.717 198.078 555.805 204.188 563.748 212.206C571.928 220.498 577.827 230.823 580.794 242.083C583.675 253.007 583.812 264.803 580.62 276.475C577.44 288.147 571.33 298.247 563.312 306.19C555.019 314.395 544.707 320.294 533.459 323.261ZM533.459 323.261C522.548 326.142 510.752 326.279 499.08 323.087C487.408 319.895 477.32 313.797 469.39 305.766C461.197 297.487 455.311 287.162 452.331 275.889C449.451 264.965 449.313 253.169 452.506 241.497C455.685 229.826 461.796 219.725 469.814 211.782V211.77C478.106 203.577 488.406 197.691 499.666 194.711C510.577 191.83 522.374 191.693 534.045 194.886C545.717 198.078 555.805 204.188 563.748 212.206C571.928 220.498 577.827 230.823 580.794 242.083C583.675 253.007 583.812 264.803 580.62 276.475C577.44 288.147 571.33 298.247 563.312 306.19C555.019 314.395 544.707 320.294 533.459 323.261ZM397.227 138.485L469.801 211.782C478.094 203.589 488.394 197.704 499.654 194.723C510.565 191.843 522.361 191.706 534.033 194.898L561.179 95.3646L397.227 138.485ZM53.4867 204.749H71.3683V213.079H53.4867V204.749ZM84.1373 155.431H98.7269H84.1373ZM81.1196 162.202H89.4369V173.475H81.1196V162.202ZM40.2937 186.468V219.002V186.468ZM556.154 269.679C550.094 291.9 527.187 304.993 504.978 298.933C482.77 292.873 469.689 269.941 475.749 247.72C481.81 225.499 504.716 212.406 526.925 218.466C549.134 224.526 562.214 247.458 556.154 269.679ZM448.154 507.277L463.354 451.55L448.154 507.277ZM471.323 422.333L498.469 322.8L471.323 422.333ZM375.306 116.663L334.704 75.6499L375.306 116.663ZM468.766 305.467L395.507 378.091L468.766 305.467ZM374.009 399.427L333.021 440.065L374.009 399.427ZM499.055 194.424L472.819 94.6289L499.055 194.424ZM465.113 65.325L450.436 9.49801L465.113 65.325ZM451.708 275.602L351.975 301.851L451.708 275.602ZM322.708 309.557L266.919 324.247L322.708 309.557ZM698.858 77.3334L657.882 117.96L698.858 77.3334ZM636.372 139.283L563.125 211.919L636.372 139.283ZM697.187 441.736L656.573 400.723L697.187 441.736ZM635.275 379.213L562.688 305.904L635.275 379.213ZM764.985 193.14L709.183 207.829L764.985 193.14ZM679.904 215.535L580.171 241.784L679.904 215.535ZM581.443 507.888L566.766 452.049L581.443 507.888ZM559.072 422.77L532.836 322.962L559.072 422.77ZM568.537 65.8238L583.725 10.109L568.537 65.8238ZM451.882 241.198L352.411 214.039L451.882 241.198ZM323.207 206.071L267.53 190.87L323.207 206.071ZM764.361 326.529L708.671 311.328L764.361 326.529ZM679.48 303.347L580.009 276.188L679.48 303.347ZM583.737 10.109C446.533 -27.3501 304.964 53.5785 267.517 190.858C230.083 328.15 310.949 469.818 448.154 507.277C585.358 544.736 726.927 463.82 764.361 326.529C801.808 189.237 720.929 47.5681 583.737 10.109ZM532.836 322.962C521.925 325.843 510.128 325.98 498.457 322.788C486.785 319.595 476.697 313.498 468.766 305.467C460.574 297.187 454.688 286.862 451.708 275.59C448.827 264.666 448.69 252.87 451.882 241.198C455.062 229.526 461.172 219.426 469.19 211.483V211.47C477.483 203.278 487.783 197.392 499.043 194.412C509.954 191.531 521.75 191.394 533.422 194.586C545.093 197.779 555.181 203.889 563.125 211.907C571.305 220.199 577.203 230.524 580.171 241.784C583.051 252.708 583.189 264.504 579.996 276.176C576.816 287.847 570.706 297.948 562.688 305.891C554.408 314.096 544.096 319.982 532.836 322.962Z" stroke="#1B8FCF" stroke-width="1.3" stroke-miterlimit="10"/>
<path d="M716.452 43.8661L696.413 65.2392" stroke="#1B8FCF" stroke-width="1.3" stroke-miterlimit="10"/>
<path d="M697.822 452.462L715.903 471.715" stroke="#1B8FCF" stroke-width="1.3" stroke-miterlimit="10"/>
<path d="M870.847 392.434C867.63 394.08 863.989 395.003 860.111 395.003C854.15 395.003 848.701 392.795 844.549 389.142L844.262 388.892L799.284 350.735C793.735 346.445 790.156 339.712 790.156 332.168C790.156 329.175 790.717 326.319 791.739 323.688C792.188 324.274 792.712 324.798 793.286 325.259L868.266 390.401C869.002 391.237 869.862 391.923 870.847 392.434Z" fill="white"/>
<path d="M870.847 392.434C867.63 394.08 863.989 395.003 860.111 395.003C854.15 395.003 848.701 392.795 844.549 389.142L844.262 388.892L799.284 350.735C793.735 346.445 790.156 339.712 790.156 332.168C790.156 329.175 790.717 326.319 791.739 323.688C792.188 324.274 792.712 324.798 793.286 325.259L868.266 390.401C869.002 391.237 869.862 391.923 870.847 392.434Z" stroke="#1B8FCF" stroke-width="1.3" stroke-miterlimit="10"/>
<path d="M882.731 372.519C882.731 375.3 882.245 377.956 881.372 380.425C881.01 379.902 880.599 379.428 880.137 379.004L879.688 378.605L879.638 378.567L804.496 313.114L804.471 313.101C803.997 312.602 803.486 312.166 802.912 311.779C805.93 310.383 809.284 309.597 812.826 309.597C818.275 309.597 823.275 311.443 827.266 314.535L828.874 315.907L873.379 353.74L873.429 353.777C879.077 358.08 882.731 364.876 882.731 372.519Z" fill="white"/>
<path d="M882.731 372.519C882.731 375.3 882.245 377.956 881.372 380.425C881.01 379.902 880.599 379.428 880.137 379.004L879.688 378.605L879.638 378.567L804.496 313.114L804.471 313.101C803.997 312.602 803.486 312.166 802.912 311.779C805.93 310.383 809.284 309.597 812.826 309.597C818.275 309.597 823.275 311.443 827.266 314.535L828.874 315.907L873.379 353.74L873.429 353.777C879.077 358.08 882.731 364.876 882.731 372.519Z" stroke="#1B8FCF" stroke-width="1.3" stroke-miterlimit="10"/>
<path d="M802.04 203.555C805.257 205.201 808.899 206.124 812.764 206.124C818.737 206.124 824.174 203.917 828.326 200.263L828.613 200.014L873.592 161.856C879.141 157.567 882.719 150.833 882.719 143.289C882.719 140.296 882.158 137.44 881.136 134.809C880.687 135.395 880.163 135.919 879.59 136.381L804.609 201.522C803.886 202.345 803.025 203.044 802.04 203.555Z" fill="white"/>
<path d="M802.04 203.555C805.257 205.201 808.899 206.124 812.764 206.124C818.737 206.124 824.174 203.917 828.326 200.263L828.613 200.014L873.592 161.856C879.141 157.567 882.719 150.833 882.719 143.289C882.719 140.296 882.158 137.44 881.136 134.809C880.687 135.395 880.163 135.919 879.59 136.381L804.609 201.522C803.886 202.345 803.025 203.044 802.04 203.555Z" stroke="#1B8FCF" stroke-width="1.3" stroke-miterlimit="10"/>
<path d="M790.156 183.641C790.156 186.422 790.63 189.078 791.515 191.547C791.877 191.023 792.288 190.549 792.749 190.125L793.198 189.726L793.248 189.689L868.391 124.235L868.403 124.222C868.877 123.724 869.388 123.287 869.962 122.901C866.944 121.504 863.59 120.719 860.049 120.719C854.612 120.719 849.599 122.564 845.609 125.657L844 127.028L799.496 164.861L799.446 164.899C793.809 169.201 790.156 175.997 790.156 183.641Z" fill="white"/>
<path d="M790.156 183.641C790.156 186.422 790.63 189.078 791.515 191.547C791.877 191.023 792.288 190.549 792.749 190.125L793.198 189.726L793.248 189.689L868.391 124.235L868.403 124.222C868.877 123.724 869.388 123.287 869.962 122.901C866.944 121.504 863.59 120.719 860.049 120.719C854.612 120.719 849.599 122.564 845.609 125.657L844 127.028L799.496 164.861L799.446 164.899C793.809 169.201 790.156 175.997 790.156 183.641Z" stroke="#1B8FCF" stroke-width="1.3" stroke-miterlimit="10"/>
<path d="M821.854 264.881C823.138 268.448 825.208 271.752 828.064 274.483C832.466 278.698 837.977 280.818 843.476 280.88L843.863 280.893L902.62 282.726C909.591 283.274 916.736 280.519 921.786 274.595C923.781 272.251 925.29 269.607 926.288 266.827C925.565 266.964 924.829 267.014 924.093 266.976L825.121 265.131C824.023 265.243 822.926 265.168 821.854 264.881Z" fill="white"/>
<path d="M821.854 264.881C823.138 268.448 825.208 271.752 828.064 274.483C832.466 278.698 837.977 280.818 843.476 280.88L843.863 280.893L902.62 282.726C909.591 283.274 916.736 280.519 921.786 274.595C923.781 272.251 925.29 269.607 926.288 266.827C925.565 266.964 924.829 267.014 924.093 266.976L825.121 265.131C824.023 265.243 822.926 265.168 821.854 264.881Z" stroke="#1B8FCF" stroke-width="1.3" stroke-miterlimit="10"/>
<path d="M825.494 243.145C823.599 245.365 822.152 247.821 821.13 250.428C821.753 250.265 822.389 250.191 823.025 250.178L823.636 250.191L823.699 250.203L924.766 251.799H924.791C925.477 251.737 926.175 251.749 926.861 251.874C925.551 248.594 923.569 245.564 920.9 243.033C916.81 239.13 911.797 237.023 906.685 236.624L904.54 236.561L845.309 234.878H845.246C838.076 234.229 830.707 237.035 825.494 243.145Z" fill="white"/>
<path d="M825.494 243.145C823.599 245.365 822.152 247.821 821.13 250.428C821.753 250.265 822.389 250.191 823.025 250.178L823.636 250.191L823.699 250.203L924.766 251.799H924.791C925.477 251.737 926.175 251.749 926.861 251.874C925.551 248.594 923.569 245.564 920.9 243.033C916.81 239.13 911.797 237.023 906.685 236.624L904.54 236.561L845.309 234.878H845.246C838.076 234.229 830.707 237.035 825.494 243.145Z" stroke="#1B8FCF" stroke-width="1.3" stroke-miterlimit="10"/>
<path d="M79.0955 357.133H101.666M44.5793 329.587V296.967M101.03 330.136H44.5793M1028.37 219.604H952.413H929.856V202.546V143.152M1030.44 295.333H954.471H931.926V312.392V371.885M2.13232 296.106H78.0855H100.643V312.466V370.014M57.7473 310.297H75.604V301.992H57.7473V310.297ZM85.3429 350.362H93.6477V339.114H85.3429V350.362Z" stroke="#1B8FCF" stroke-width="1.3" stroke-miterlimit="10"/>
<path d="M930.505 180.921H983.377" stroke="#1B8FCF" stroke-width="1.3" stroke-miterlimit="10"/>
<path d="M945.72 160.407H936.268V172.79H945.72V160.407Z" stroke="#1B8FCF" stroke-width="1.3" stroke-miterlimit="10"/>
<path d="M946.155 153.885H929.857" stroke="#1B8FCF" stroke-width="1.3" stroke-miterlimit="10"/>
<path d="M975.711 205.236H956.719V214.688H975.711V205.236Z" stroke="#1B8FCF" stroke-width="1.3" stroke-miterlimit="10"/>
<path d="M931.528 328.188H987.991" stroke="#1B8FCF" stroke-width="1.3" stroke-miterlimit="10"/>
<path d="M947.803 336.654H938.351V349.037H947.803V336.654Z" stroke="#1B8FCF" stroke-width="1.3" stroke-miterlimit="10"/>
<path d="M955.695 355.221H931.928" stroke="#1B8FCF" stroke-width="1.3" stroke-miterlimit="10"/>
<path d="M47.9888 181.728H98.6034H47.9888ZM117.52 364.236H115.55C110.026 364.236 105.537 359.734 105.537 354.185V331.054C105.537 325.505 110.013 321.003 115.55 321.003H117.52C123.044 321.003 127.533 325.505 127.533 331.054V354.185C127.533 359.734 123.044 364.236 117.52 364.236ZM117.52 193.251H115.55C110.026 193.251 105.537 188.749 105.537 183.2V160.069C105.537 154.52 110.013 150.018 115.55 150.018H117.52C123.044 150.018 127.533 154.52 127.533 160.069V183.2C127.533 188.749 123.044 193.251 117.52 193.251ZM975.4 308.67H957.531V300.316H975.4V308.67Z" stroke="#1B8FCF" stroke-width="1.3" stroke-miterlimit="10"/>
<path d="M515.939 516.369C658.152 516.369 773.439 401.004 773.439 258.694C773.439 116.384 658.152 1.0195 515.939 1.0195C373.725 1.0195 258.439 116.384 258.439 258.694C258.439 401.004 373.725 516.369 515.939 516.369Z" fill="white" stroke="#1B8FCF" stroke-width="1.3" stroke-miterlimit="10"/>
<path d="M556.152 269.68C550.091 291.901 527.184 304.994 504.976 298.934C482.767 292.874 469.687 269.942 475.747 247.721C481.807 225.5 504.714 212.406 526.923 218.467C549.131 224.527 562.212 247.459 556.152 269.68Z" fill="white" stroke="#1B8FCF" stroke-width="1.3" stroke-miterlimit="10"/>
<path d="M448.152 507.278L463.352 451.563" stroke="#1B8FCF" stroke-width="1.3" stroke-miterlimit="10"/>
<path d="M471.322 422.334L498.469 322.8" stroke="#1B8FCF" stroke-width="1.3" stroke-miterlimit="10"/>
<path d="M375.304 116.663L334.703 75.6501" stroke="#1B8FCF" stroke-width="1.3" stroke-miterlimit="10"/>
<path d="M468.765 305.468L395.505 378.105" stroke="#1B8FCF" stroke-width="1.3" stroke-miterlimit="10"/>
<path d="M374.009 399.428L333.021 440.067" stroke="#1B8FCF" stroke-width="1.3" stroke-miterlimit="10"/>
<path d="M499.054 194.425L472.818 94.617" stroke="#1B8FCF" stroke-width="1.3" stroke-miterlimit="10"/>
<path d="M465.112 65.3251L450.435 9.49808" stroke="#1B8FCF" stroke-width="1.3" stroke-miterlimit="10"/>
<path d="M451.706 275.604L351.973 301.853" stroke="#1B8FCF" stroke-width="1.3" stroke-miterlimit="10"/>
<path d="M322.707 309.559L266.905 324.236" stroke="#1B8FCF" stroke-width="1.3" stroke-miterlimit="10"/>
<path d="M698.858 77.3342L657.883 117.961" stroke="#1B8FCF" stroke-width="1.3" stroke-miterlimit="10"/>
<path d="M636.371 139.284L563.124 211.92" stroke="#1B8FCF" stroke-width="1.3" stroke-miterlimit="10"/>
<path d="M697.186 441.736L656.572 400.723" stroke="#1B8FCF" stroke-width="1.3" stroke-miterlimit="10"/>
<path d="M635.274 379.214L562.688 305.905" stroke="#1B8FCF" stroke-width="1.3" stroke-miterlimit="10"/>
<path d="M764.984 193.142L709.182 207.831" stroke="#1B8FCF" stroke-width="1.3" stroke-miterlimit="10"/>
<path d="M679.904 215.537L580.171 241.798" stroke="#1B8FCF" stroke-width="1.3" stroke-miterlimit="10"/>
<path d="M581.441 507.889L566.777 452.062" stroke="#1B8FCF" stroke-width="1.3" stroke-miterlimit="10"/>
<path d="M559.071 422.77L532.834 322.962" stroke="#1B8FCF" stroke-width="1.3" stroke-miterlimit="10"/>
<path d="M568.535 65.8249L583.736 10.1102" stroke="#1B8FCF" stroke-width="1.3" stroke-miterlimit="10"/>
<path d="M451.88 241.199L352.409 214.04" stroke="#1B8FCF" stroke-width="1.3" stroke-miterlimit="10"/>
<path d="M323.207 206.071L267.517 190.858" stroke="#1B8FCF" stroke-width="1.3" stroke-miterlimit="10"/>
<path d="M764.359 326.529L708.682 311.328" stroke="#1B8FCF" stroke-width="1.3" stroke-miterlimit="10"/>
<path d="M679.482 303.347L580.011 276.188" stroke="#1B8FCF" stroke-width="1.3" stroke-miterlimit="10"/>
<path d="M532.837 322.964C521.926 325.845 510.129 325.982 498.458 322.79C486.786 319.597 476.698 313.5 468.767 305.469C460.575 297.189 454.689 286.864 451.709 275.592C448.828 264.668 448.691 252.872 451.883 241.2C455.063 229.529 461.173 219.428 469.191 211.485V211.472C477.484 203.28 487.784 197.394 499.044 194.414C509.955 191.533 521.751 191.396 533.423 194.588C545.094 197.781 555.182 203.891 563.126 211.909C571.306 220.201 577.204 230.526 580.172 241.786C583.052 252.71 583.189 264.506 579.997 276.178C576.817 287.849 570.707 297.95 562.689 305.893C554.409 314.098 544.097 319.984 532.837 322.964Z" stroke="#1B8FCF" stroke-width="1.3" stroke-miterlimit="10"/>
<path d="M396.615 138.187L469.189 211.484C477.481 203.292 487.781 197.406 499.041 194.426C509.952 191.545 521.749 191.408 533.42 194.6L560.567 95.067" stroke="#1B8FCF" stroke-width="1.3" stroke-miterlimit="10"/>
</svg>
