<svg width="1031" height="518" viewBox="0 0 1031 518" fill="none" xmlns="http://www.w3.org/2000/svg">
<path d="M201.122 177.643C203.741 179.414 204.426 182.955 202.656 185.561C200.873 188.18 197.306 188.853 194.688 187.083C192.069 185.312 191.383 181.77 193.166 179.152C194.937 176.546 198.503 175.872 201.122 177.643Z" fill="white"/>
<path d="M201.122 177.643C203.741 179.414 204.426 182.955 202.656 185.561C200.873 188.18 197.306 188.853 194.688 187.083C192.069 185.312 191.383 181.77 193.166 179.152C194.937 176.546 198.503 175.872 201.122 177.643Z" stroke="#1B8FCF" stroke-width="1.3" stroke-miterlimit="10"/>
<path d="M1.92102 219.317C32.9457 192.856 65.3047 168.315 98.9979 145.758L99.0104 145.77V203.044V219.329H76.7644H1.92102V219.317Z" fill="white"/>
<path d="M1.92102 219.317C32.9457 192.856 65.3047 168.315 98.9979 145.758L99.0104 145.77V203.044V219.329H76.7644H1.92102V219.317Z" stroke="#1B8FCF" stroke-width="1.3" stroke-miterlimit="10"/>
<path d="M201.773 336.282C204.205 334.262 204.517 330.659 202.484 328.239C200.452 325.833 196.835 325.509 194.404 327.541C191.972 329.561 191.661 333.165 193.693 335.572C195.738 337.991 199.354 338.303 201.773 336.282ZM202.659 185.561C204.442 182.955 203.744 179.413 201.125 177.643C198.506 175.872 194.94 176.558 193.169 179.164C191.386 181.782 192.072 185.324 194.691 187.095C197.322 188.853 200.888 188.179 202.659 185.561ZM214.617 325.559C217.049 323.526 217.361 319.935 215.328 317.516C213.296 315.096 209.679 314.785 207.248 316.805C204.816 318.825 204.504 322.429 206.537 324.848C208.582 327.267 212.186 327.591 214.617 325.559ZM216.538 194.926C218.308 192.319 217.635 188.766 215.004 186.995C212.385 185.224 208.819 185.91 207.048 188.516C205.265 191.122 205.951 194.676 208.569 196.434C211.188 198.205 214.754 197.532 216.538 194.926ZM216.974 351.944C226.214 344.226 229.095 331.781 225.079 321.157C224.556 322.865 223.558 324.436 222.099 325.646L204.006 340.759C199.778 344.288 193.282 343.502 189.491 339.001C185.688 334.499 186.049 327.99 190.264 324.461L208.37 309.348C209.816 308.138 211.537 307.428 213.32 307.216C203.507 301.417 190.688 302.078 181.46 309.797C169.764 319.561 168.242 336.906 178.056 348.54C187.857 360.187 205.29 361.708 216.974 351.944ZM225.94 190.2C228.858 179.214 224.705 167.131 214.73 160.397C202.098 151.88 184.914 155.16 176.348 167.742C167.793 180.311 171.098 197.42 183.73 205.936C193.706 212.67 206.524 212.034 215.69 205.263C213.894 205.226 212.111 204.702 210.54 203.642L190.975 190.449C186.411 187.369 185.388 180.935 188.693 176.071C191.997 171.208 198.394 169.762 202.958 172.842L222.523 186.035C224.082 187.082 225.229 188.541 225.94 190.2ZM261.03 285.356C262.526 304.397 266.404 329.848 276.23 348.266V348.278C278.624 354.675 281.256 360.96 284.136 367.12L264.259 387.122L230.766 420.827L213.57 438.135C146.458 405.34 84.1839 364.364 25.8504 316.668C17.7451 310.046 9.77695 303.25 1.92102 296.342V283.984V233.557V219.316H76.7768H99.0104V203.031V145.757V145.745C131.656 123.886 165.549 103.872 200.714 85.7656C204.903 83.6083 209.106 81.4884 213.32 79.4185L213.57 79.9172L230.753 97.2377L264.197 130.943L283.924 150.82L283.986 150.845C281.181 156.88 278.599 163.028 276.268 169.3C268.836 189.227 263.81 210.301 261.553 232.198C260.656 240.939 260.194 249.805 260.194 258.783C260.157 258.783 259.82 269.993 261.03 285.356Z" stroke="#1B8FCF" stroke-width="1.3" stroke-miterlimit="10"/>
<path d="M225.077 321.17C229.105 331.794 226.212 344.239 216.972 351.957C205.275 361.721 187.855 360.2 178.041 348.566C168.228 336.931 169.749 319.586 181.446 309.81C190.673 302.091 203.492 301.43 213.306 307.229C211.523 307.441 209.802 308.151 208.343 309.361L190.237 324.474C186.01 328.003 185.66 334.512 189.464 339.014C193.254 343.516 199.751 344.301 203.978 340.772L222.072 325.659C223.556 324.437 224.554 322.878 225.077 321.17Z" fill="white"/>
<path d="M225.077 321.17C229.105 331.794 226.212 344.239 216.972 351.957C205.275 361.721 187.855 360.2 178.041 348.566C168.228 336.931 169.749 319.586 181.446 309.81C190.673 302.091 203.492 301.43 213.306 307.229C211.523 307.441 209.802 308.151 208.343 309.361L190.237 324.474C186.01 328.003 185.66 334.512 189.464 339.014C193.254 343.516 199.751 344.301 203.978 340.772L222.072 325.659C223.556 324.437 224.554 322.878 225.077 321.17Z" stroke="#1B8FCF" stroke-width="1.3" stroke-miterlimit="10"/>
<path d="M518.54 1.60742C519.45 1.60742 520.373 1.61989 521.271 1.63236C514.6 1.69471 507.953 1.88176 501.294 2.18103C506.993 1.79447 512.742 1.60742 518.54 1.60742Z" fill="white"/>
<path d="M518.54 1.60742C519.45 1.60742 520.373 1.61989 521.271 1.63236C514.6 1.69471 507.953 1.88176 501.294 2.18103C506.993 1.79447 512.742 1.60742 518.54 1.60742Z" stroke="#1B8FCF" stroke-width="1.3" stroke-miterlimit="10"/>
<path d="M420.267 11.2956C447.152 6.64434 474.174 3.41468 501.295 2.18018C439.508 6.23284 383.668 31.8956 341.309 71.6491L310.883 39.0407C346.434 27.0698 382.87 17.7673 420.267 11.2956Z" fill="white"/>
<path d="M420.267 11.2956C447.152 6.64434 474.174 3.41468 501.295 2.18018C439.508 6.23284 383.668 31.8956 341.309 71.6491L310.883 39.0407C346.434 27.0698 382.87 17.7673 420.267 11.2956Z" stroke="#1B8FCF" stroke-width="1.3" stroke-miterlimit="10"/>
<path d="M515.336 515.934C517.319 515.946 519.327 515.946 521.322 515.934C520.399 515.946 519.476 515.946 518.541 515.946C517.456 515.946 516.396 515.934 515.336 515.934Z" fill="white"/>
<path d="M515.336 515.934C517.319 515.946 519.327 515.946 521.322 515.934C520.399 515.946 519.476 515.946 518.541 515.946C517.456 515.946 516.396 515.934 515.336 515.934Z" stroke="#1B8FCF" stroke-width="1.3" stroke-miterlimit="10"/>
<path d="M284.134 367.12C298.013 396.81 317.403 423.42 341.021 445.642L310.907 477.926L310.72 478.487C305.782 476.778 300.856 475.033 295.943 473.225C267.687 462.887 240.253 451.153 213.58 438.122L230.776 420.814L264.27 387.121L284.134 367.12Z" fill="white"/>
<path d="M284.134 367.12C298.013 396.81 317.403 423.42 341.021 445.642L310.907 477.926L310.72 478.487C305.782 476.778 300.856 475.033 295.943 473.225C267.687 462.887 240.253 451.153 213.58 438.122L230.776 420.814L264.27 387.121L284.134 367.12Z" stroke="#1B8FCF" stroke-width="1.3" stroke-miterlimit="10"/>
<path d="M515.035 515.92C506.918 515.858 498.8 515.621 490.682 515.185C428.82 511.893 369.002 498.575 310.706 478.474L310.893 477.913L341.008 445.628C386.51 488.474 447.662 515.022 515.035 515.92Z" fill="white"/>
<path d="M515.035 515.92C506.918 515.858 498.8 515.621 490.682 515.185C428.82 511.893 369.002 498.575 310.706 478.474L310.893 477.913L341.008 445.628C386.51 488.474 447.662 515.022 515.035 515.92Z" stroke="#1B8FCF" stroke-width="1.3" stroke-miterlimit="10"/>
<path d="M215.324 317.515C217.357 319.934 217.045 323.525 214.614 325.558C212.182 327.578 208.578 327.266 206.533 324.847C204.501 322.428 204.812 318.824 207.244 316.804C209.663 314.784 213.292 315.095 215.324 317.515Z" fill="white"/>
<path d="M215.324 317.515C217.357 319.934 217.045 323.525 214.614 325.558C212.182 327.578 208.578 327.266 206.533 324.847C204.501 322.428 204.812 318.824 207.244 316.804C209.663 314.784 213.292 315.095 215.324 317.515Z" stroke="#1B8FCF" stroke-width="1.3" stroke-miterlimit="10"/>
<path d="M214.716 160.384C224.692 167.118 228.857 179.201 225.926 190.187C225.228 188.528 224.081 187.082 222.51 186.009L202.945 172.816C198.368 169.736 191.984 171.17 188.679 176.046C185.375 180.909 186.385 187.344 190.961 190.424L210.526 203.617C212.097 204.677 213.88 205.2 215.676 205.238C206.511 212.009 193.692 212.645 183.716 205.911C171.084 197.394 167.78 180.298 176.334 167.716C184.901 155.159 202.084 151.867 214.716 160.384Z" fill="white"/>
<path d="M214.716 160.384C224.692 167.118 228.857 179.201 225.926 190.187C225.228 188.528 224.081 187.082 222.51 186.009L202.945 172.816C198.368 169.736 191.984 171.17 188.679 176.046C185.375 180.909 186.385 187.344 190.961 190.424L210.526 203.617C212.097 204.677 213.88 205.2 215.676 205.238C206.511 212.009 193.692 212.645 183.716 205.911C171.084 197.394 167.78 180.298 176.334 167.716C184.901 155.159 202.084 151.867 214.716 160.384Z" stroke="#1B8FCF" stroke-width="1.3" stroke-miterlimit="10"/>
<path d="M215.002 186.995C217.633 188.765 218.306 192.319 216.536 194.925C214.752 197.531 211.186 198.217 208.567 196.447C205.949 194.688 205.263 191.134 207.046 188.528C208.817 185.91 212.383 185.224 215.002 186.995Z" fill="white"/>
<path d="M215.002 186.995C217.633 188.765 218.306 192.319 216.536 194.925C214.752 197.531 211.186 198.217 208.567 196.447C205.949 194.688 205.263 191.134 207.046 188.528C208.817 185.91 212.383 185.224 215.002 186.995Z" stroke="#1B8FCF" stroke-width="1.3" stroke-miterlimit="10"/>
<path d="M310.893 39.0281L341.32 71.6364C317.465 94.0196 297.9 120.867 283.959 150.832L283.896 150.807L264.182 130.93L230.738 97.2243L213.567 79.9163L213.318 79.4175C245.066 63.7431 277.587 50.2259 310.893 39.0281Z" fill="white"/>
<path d="M310.893 39.0281L341.32 71.6364C317.465 94.0196 297.9 120.867 283.959 150.832L283.896 150.807L264.182 130.93L230.738 97.2243L213.567 79.9163L213.318 79.4175C245.066 63.7431 277.587 50.2259 310.893 39.0281Z" stroke="#1B8FCF" stroke-width="1.3" stroke-miterlimit="10"/>
<path d="M202.484 328.239C204.517 330.658 204.205 334.261 201.773 336.282C199.342 338.302 195.726 337.99 193.693 335.571C191.66 333.152 191.972 329.56 194.404 327.54C196.835 325.508 200.452 325.832 202.484 328.239Z" fill="white"/>
<path d="M202.484 328.239C204.517 330.658 204.205 334.261 201.773 336.282C199.342 338.302 195.726 337.99 193.693 335.571C191.66 333.152 191.972 329.56 194.404 327.54C196.835 325.508 200.452 325.832 202.484 328.239Z" stroke="#1B8FCF" stroke-width="1.3" stroke-miterlimit="10"/>
<path d="M230.439 421.176L263.97 387.408M230.439 421.176L213.219 438.521L212.894 438.845L230.439 421.176ZM1.34528 284.046V233.506V219.228M260.741 285.418C259.531 270.018 259.868 258.782 259.868 258.782C259.868 249.779 260.329 240.901 261.239 232.147L260.741 285.418ZM260.741 285.418H260.653M283.872 367.356L263.97 387.395M283.872 367.356C281.004 361.196 278.36 354.899 275.966 348.477M283.872 367.356C297.763 397.109 317.179 423.769 340.821 446.053C386.373 488.986 447.587 515.597 515.036 516.494C506.906 516.432 498.788 516.195 490.658 515.759C428.72 512.454 368.841 499.112 310.482 478.96C305.532 477.252 300.606 475.494 295.681 473.686C267.4 463.323 239.929 451.564 213.219 438.509C146.044 405.663 83.6954 364.588 25.2996 316.792C17.1818 310.158 9.20121 303.349 1.34528 296.416V284.034M310.669 38.5419L341.121 71.2251M213.219 79.5175L230.414 96.8753L263.896 130.643L283.635 150.57M98.5344 202.905V219.228H76.2759H1.34528M1.34528 219.228C32.4074 192.705 64.8037 168.115 98.5344 145.495C131.218 123.586 165.148 103.534 200.35 85.3782C204.552 83.221 208.754 81.1011 212.969 79.0187C244.767 63.3068 277.325 49.7647 310.669 38.5294C346.246 26.5585 382.72 17.2187 420.154 10.7344C447.076 6.07071 474.123 2.84105 501.282 1.59408C439.432 5.65921 383.518 31.3718 341.121 71.2126C317.241 93.6457 297.651 120.543 283.697 150.582C280.892 156.63 278.311 162.79 275.966 169.088C268.534 189.052 263.496 210.188 261.239 232.122M98.5344 202.918V145.52M260.666 232.135C260.853 232.135 261.052 232.135 261.239 232.135H260.666ZM310.669 478.399L340.821 446.04L341.121 445.716L310.669 478.399ZM214.278 325.707C211.847 327.74 208.231 327.428 206.186 324.997C204.153 322.578 204.465 318.961 206.896 316.941C209.328 314.909 212.944 315.22 214.989 317.652C217.022 320.071 216.71 323.675 214.278 325.707ZM216.648 352.156C204.939 361.932 187.493 360.411 177.68 348.764C167.854 337.105 169.387 319.71 181.084 309.933C190.324 302.202 203.155 301.529 212.982 307.34C211.186 307.564 209.465 308.262 208.019 309.472L189.888 324.623C185.66 328.164 185.311 334.686 189.115 339.2C192.905 343.714 199.415 344.499 203.654 340.958L221.773 325.807C223.232 324.585 224.229 323.014 224.753 321.306C228.781 331.955 225.9 344.424 216.648 352.156ZM201.422 336.456C198.991 338.489 195.374 338.177 193.329 335.746C191.297 333.326 191.608 329.723 194.04 327.69C196.472 325.658 200.088 325.969 202.133 328.388C204.178 330.808 203.854 334.424 201.422 336.456ZM208.231 196.309C205.612 194.538 204.926 190.984 206.709 188.378C208.492 185.76 212.059 185.074 214.677 186.844C217.309 188.615 217.994 192.169 216.211 194.788C214.428 197.394 210.849 198.08 208.231 196.309ZM183.354 205.811C170.709 197.269 167.405 180.136 175.971 167.529C184.551 154.922 201.746 151.63 214.391 160.172C224.379 166.918 228.544 179.038 225.613 190.037C224.915 188.378 223.768 186.919 222.197 185.859L202.619 172.641C198.043 169.549 191.646 170.995 188.341 175.884C185.024 180.759 186.047 187.206 190.623 190.299L210.201 203.516C211.772 204.576 213.555 205.113 215.363 205.138C206.173 211.921 193.342 212.557 183.354 205.811ZM194.339 186.932C191.721 185.161 191.035 181.607 192.806 178.989C194.576 176.37 198.155 175.697 200.774 177.467C203.392 179.238 204.091 182.792 202.307 185.41C200.537 188.017 196.958 188.702 194.339 186.932ZM275.966 348.465C266.128 330.009 262.25 304.509 260.753 285.418L275.966 348.465ZM521.321 516.507C520.398 516.519 519.475 516.532 518.54 516.532C517.468 516.532 516.395 516.519 515.335 516.507C517.33 516.507 519.326 516.519 521.321 516.507ZM521.271 1.05788C514.587 1.12023 507.928 1.30727 501.282 1.60655C506.981 1.23246 512.742 1.04541 518.54 1.04541C519.45 1.04541 520.373 1.05788 521.271 1.05788Z" stroke="#1B8FCF" stroke-width="1.3" stroke-miterlimit="10"/>
<path d="M770.928 285.205C769.431 304.247 765.553 329.697 755.727 348.115V348.128C753.333 354.525 750.702 360.809 747.821 366.969L767.698 386.971L801.192 420.677L818.387 437.985C885.487 405.202 947.761 364.226 1006.09 316.542C1014.2 309.92 1022.17 303.124 1030.02 296.216V283.859V233.431V219.191C968.935 167.105 902.708 122.45 831.244 85.6398C827.054 83.4826 822.852 81.3627 818.637 79.2927L818.387 79.7915L801.229 97.0746L767.785 130.78L748.058 150.657L747.996 150.682C750.801 156.717 753.383 162.877 755.715 169.15C763.147 189.076 768.159 210.15 770.429 232.047C771.327 240.788 771.788 249.654 771.788 258.632C771.801 258.62 772.137 269.83 770.928 285.205Z" stroke="#1B8FCF" stroke-width="1.3" stroke-miterlimit="10"/>
<path d="M611.69 11.1334C584.805 6.48223 557.783 3.25257 530.661 2.01807C592.449 6.07073 648.288 31.7334 690.648 71.487L721.074 38.8786C685.523 26.9201 649.086 17.6052 611.69 11.1334Z" fill="white"/>
<path d="M611.69 11.1334C584.805 6.48223 557.783 3.25257 530.661 2.01807C592.449 6.07073 648.288 31.7334 690.648 71.487L721.074 38.8786C685.523 26.9201 649.086 17.6052 611.69 11.1334Z" stroke="#1B8FCF" stroke-width="1.3" stroke-miterlimit="10"/>
<path d="M721.062 38.8799L690.636 71.4882C714.478 93.8714 734.055 120.719 747.996 150.684L748.059 150.659L767.786 130.782L801.23 97.0761L818.413 79.7557L818.662 79.2569C786.89 63.5949 754.369 50.0777 721.062 38.8799Z" fill="white"/>
<path d="M721.062 38.8799L690.636 71.4882C714.478 93.8714 734.055 120.719 747.996 150.684L748.059 150.659L767.786 130.782L801.23 97.0761L818.413 79.7557L818.662 79.2569C786.89 63.5949 754.369 50.0777 721.062 38.8799Z" stroke="#1B8FCF" stroke-width="1.3" stroke-miterlimit="10"/>
<path d="M513.416 1.45752C512.506 1.45752 511.583 1.46999 510.686 1.48246C517.344 1.54481 524.003 1.73185 530.65 2.03113C524.963 1.6321 519.215 1.45752 513.416 1.45752Z" fill="white"/>
<path d="M513.416 1.45752C512.506 1.45752 511.583 1.46999 510.686 1.48246C517.344 1.54481 524.003 1.73185 530.65 2.03113C524.963 1.6321 519.215 1.45752 513.416 1.45752Z" stroke="#1B8FCF" stroke-width="1.3" stroke-miterlimit="10"/>
<path d="M516.618 515.771C514.623 515.784 512.628 515.796 510.632 515.771C511.555 515.784 512.478 515.796 513.413 515.796C514.498 515.796 515.558 515.784 516.618 515.771Z" fill="white"/>
<path d="M516.618 515.771C514.623 515.784 512.628 515.796 510.632 515.771C511.555 515.784 512.478 515.796 513.413 515.796C514.498 515.796 515.558 515.784 516.618 515.771Z" stroke="#1B8FCF" stroke-width="1.3" stroke-miterlimit="10"/>
<path d="M747.822 366.958C733.943 396.648 714.552 423.259 690.935 445.48L721.049 477.764L721.249 478.325C726.187 476.617 731.112 474.871 736.025 473.075C764.282 462.738 791.715 451.004 818.388 437.973L801.192 420.665L767.698 386.972L747.822 366.958Z" fill="white"/>
<path d="M747.822 366.958C733.943 396.648 714.552 423.259 690.935 445.48L721.049 477.764L721.249 478.325C726.187 476.617 731.112 474.871 736.025 473.075C764.282 462.738 791.715 451.004 818.388 437.973L801.192 420.665L767.698 386.972L747.822 366.958Z" stroke="#1B8FCF" stroke-width="1.3" stroke-miterlimit="10"/>
<path d="M516.921 515.771C525.039 515.708 533.157 515.471 541.275 515.035C603.137 511.743 662.967 498.425 721.25 478.312L721.051 477.75L690.936 445.466C645.447 488.325 584.295 514.873 516.921 515.771Z" fill="white"/>
<path d="M516.921 515.771C525.039 515.708 533.157 515.471 541.275 515.035C603.137 511.743 662.967 498.425 721.25 478.312L721.051 477.75L690.936 445.466C645.447 488.325 584.295 514.873 516.921 515.771Z" stroke="#1B8FCF" stroke-width="1.3" stroke-miterlimit="10"/>
<path d="M556.547 270.205C550.487 292.426 527.58 305.519 505.371 299.459C483.163 293.398 470.082 270.467 476.142 248.246C482.202 226.024 505.109 212.931 527.318 218.992C549.527 225.052 562.607 247.984 556.547 270.205ZM448.559 507.803L463.76 452.076L448.559 507.803ZM471.715 422.859L498.862 323.326L471.715 422.859ZM469.596 212.009L397.022 138.711L469.596 212.009ZM375.698 117.189L335.097 76.1757L375.698 117.189ZM469.172 305.993L395.912 378.629L469.172 305.993ZM374.414 399.952L333.426 440.591L374.414 399.952ZM499.448 194.95L473.212 95.1546L499.448 194.95ZM465.505 65.8508L450.841 10.0238L465.505 65.8508ZM452.113 276.128L352.38 302.377L452.113 276.128ZM323.101 310.083L267.312 324.772L323.101 310.083ZM533.827 195.112L560.974 95.5786L533.827 195.112ZM568.942 66.3495L584.13 10.6348L568.942 66.3495ZM699.251 77.8591L658.275 118.485L699.251 77.8591ZM636.765 139.809L563.518 212.445L636.765 139.809ZM697.592 442.262L656.978 401.249L697.592 442.262ZM635.68 379.739L563.094 306.429L635.68 379.739ZM765.378 193.678L709.576 208.367L765.378 193.678ZM680.297 216.061L580.564 242.31L680.297 216.061ZM581.848 508.414L567.171 452.587L581.848 508.414ZM559.465 423.296L533.229 323.488L559.465 423.296ZM533.827 195.112L560.974 95.5786L533.827 195.112ZM568.942 66.3495L584.13 10.6348L568.942 66.3495ZM452.275 241.724L352.804 214.565L452.275 241.724ZM323.6 206.597L267.923 191.396L323.6 206.597ZM764.767 327.054L709.077 311.854L764.767 327.054ZM679.873 303.873L580.402 276.714L679.873 303.873ZM533.241 323.488C522.33 326.368 510.534 326.506 498.862 323.313C487.19 320.121 477.102 314.023 469.172 305.993C460.979 297.713 455.093 287.388 452.113 276.115C449.233 265.192 449.095 253.396 452.288 241.724C455.467 230.052 461.578 219.952 469.596 212.009V211.996C477.888 203.803 488.188 197.918 499.448 194.937C510.359 192.057 522.156 191.92 533.827 195.112C545.499 198.304 555.587 204.414 563.53 212.432C571.71 220.725 577.608 231.05 580.576 242.31C583.457 253.233 583.594 265.03 580.402 276.701C577.222 288.373 571.112 298.474 563.094 306.417C554.801 314.622 544.489 320.52 533.241 323.488ZM533.241 323.488C522.33 326.368 510.534 326.506 498.862 323.313C487.19 320.121 477.102 314.023 469.172 305.993C460.979 297.713 455.093 287.388 452.113 276.115C449.233 265.192 449.095 253.396 452.288 241.724C455.467 230.052 461.578 219.952 469.596 212.009V211.996C477.888 203.803 488.188 197.918 499.448 194.937C510.359 192.057 522.156 191.92 533.827 195.112C545.499 198.304 555.587 204.414 563.53 212.432C571.71 220.725 577.608 231.05 580.576 242.31C583.457 253.233 583.594 265.03 580.402 276.701C577.222 288.373 571.112 298.474 563.094 306.417C554.801 314.622 544.489 320.52 533.241 323.488ZM563.081 306.429C554.801 314.622 544.489 320.52 533.229 323.488C522.318 326.368 510.521 326.506 498.85 323.313C487.178 320.121 477.09 314.023 469.159 305.993C460.966 297.713 455.081 287.388 452.101 276.115C449.22 265.192 449.083 253.396 452.275 241.724C455.455 230.052 461.565 219.952 469.583 212.009V211.996C477.875 203.803 488.175 197.918 499.436 194.937C510.347 192.057 522.143 191.92 533.815 195.112C545.486 198.304 555.574 204.414 563.518 212.432C571.698 220.725 577.596 231.05 580.564 242.31C583.444 253.233 583.581 265.03 580.389 276.701C577.222 288.386 571.112 298.486 563.081 306.429ZM584.13 10.6348C446.926 -26.8243 305.357 54.1043 267.923 191.384C230.488 328.675 311.355 470.344 448.559 507.803C585.764 545.262 727.332 464.334 764.767 327.054C802.201 189.762 721.335 48.1063 584.13 10.6348ZM533.241 323.488C522.33 326.368 510.534 326.506 498.862 323.313C487.19 320.121 477.102 314.023 469.172 305.993C460.979 297.713 455.093 287.388 452.113 276.115C449.233 265.192 449.095 253.396 452.288 241.724C455.467 230.052 461.578 219.952 469.596 212.009V211.996C477.888 203.803 488.188 197.918 499.448 194.937C510.359 192.057 522.156 191.92 533.827 195.112C545.499 198.304 555.587 204.414 563.53 212.432C571.71 220.725 577.608 231.05 580.576 242.31C583.457 253.233 583.594 265.03 580.402 276.701C577.222 288.373 571.112 298.474 563.094 306.417C554.801 314.622 544.489 320.52 533.241 323.488ZM533.241 323.488C522.33 326.368 510.534 326.506 498.862 323.313C487.19 320.121 477.102 314.023 469.172 305.993C460.979 297.713 455.093 287.388 452.113 276.115C449.233 265.192 449.095 253.396 452.288 241.724C455.467 230.052 461.578 219.952 469.596 212.009V211.996C477.888 203.803 488.188 197.918 499.448 194.937C510.359 192.057 522.156 191.92 533.827 195.112C545.499 198.304 555.587 204.414 563.53 212.432C571.71 220.725 577.608 231.05 580.576 242.31C583.457 253.233 583.594 265.03 580.402 276.701C577.222 288.373 571.112 298.474 563.094 306.417C554.801 314.622 544.489 320.52 533.241 323.488ZM397.009 138.711L469.583 212.009C477.875 203.816 488.175 197.93 499.436 194.95C510.347 192.069 522.143 191.932 533.815 195.124L560.961 95.5911L397.009 138.711ZM53.2685 204.976H71.1501V213.305H53.2685V204.976ZM83.9192 155.658H98.5087H83.9192ZM80.9015 162.429H89.2188V173.701H80.9015V162.429ZM40.0756 186.695V219.228V186.695ZM555.936 269.905C549.876 292.127 526.969 305.22 504.76 299.159C482.552 293.099 469.471 270.167 475.531 247.946C481.591 225.725 504.498 212.632 526.707 218.692C548.916 224.753 561.996 247.684 555.936 269.905ZM447.936 507.504L463.136 451.777L447.936 507.504ZM471.104 422.56L498.251 323.027L471.104 422.56ZM375.087 116.889L334.486 75.8764L375.087 116.889ZM468.548 305.694L395.288 378.317L468.548 305.694ZM373.791 399.653L332.803 440.292L373.791 399.653ZM498.837 194.651L472.601 94.8554L498.837 194.651ZM464.894 65.5515L450.218 9.72448L464.894 65.5515ZM451.49 275.829L351.757 302.077L451.49 275.829ZM322.49 309.784L266.7 324.473L322.49 309.784ZM698.64 77.5598L657.664 118.186L698.64 77.5598ZM636.154 139.509L562.907 212.146L636.154 139.509ZM696.969 441.963L656.355 400.95L696.969 441.963ZM635.056 379.44L562.47 306.13L635.056 379.44ZM764.767 193.366L708.965 208.056L764.767 193.366ZM679.686 215.762L579.953 242.011L679.686 215.762ZM581.225 508.115L566.548 452.275L581.225 508.115ZM558.854 422.996L532.618 323.189L558.854 422.996ZM568.318 66.0503L583.507 10.3355L568.318 66.0503ZM451.664 241.425L352.193 214.266L451.664 241.425ZM322.989 206.297L267.312 191.097L322.989 206.297ZM764.143 326.755L708.453 311.554L764.143 326.755ZM679.262 303.574L579.791 276.415L679.262 303.574ZM583.519 10.3355C446.315 -27.1236 304.746 53.805 267.299 191.084C229.865 328.376 310.731 470.045 447.936 507.504C585.14 544.963 726.709 464.047 764.143 326.755C801.59 189.463 720.711 47.7946 583.519 10.3355ZM532.618 323.189C521.707 326.069 509.91 326.206 498.239 323.014C486.567 319.822 476.479 313.724 468.548 305.694C460.355 297.414 454.47 287.089 451.49 275.816C448.609 264.893 448.472 253.096 451.664 241.425C454.844 229.753 460.954 219.652 468.972 211.709V211.697C477.264 203.504 487.564 197.618 498.825 194.638C509.736 191.758 521.532 191.62 533.204 194.813C544.875 198.005 554.963 204.115 562.907 212.133C571.087 220.426 576.985 230.751 579.953 242.011C582.833 252.934 582.97 264.731 579.778 276.402C576.598 288.074 570.488 298.174 562.47 306.118C554.19 314.323 543.878 320.208 532.618 323.189ZM396.398 138.412L468.972 211.709C477.264 203.517 487.564 197.631 498.825 194.651C509.736 191.77 521.532 191.633 533.204 194.825L560.35 95.2918" fill="white"/>
<path d="M396.398 138.412L468.972 211.709C477.264 203.517 487.564 197.631 498.825 194.651C509.736 191.77 521.532 191.633 533.204 194.825L560.35 95.2918M556.547 270.205C550.487 292.426 527.58 305.519 505.371 299.459C483.163 293.398 470.082 270.467 476.142 248.246C482.202 226.024 505.109 212.931 527.318 218.992C549.527 225.052 562.607 247.984 556.547 270.205ZM448.559 507.803L463.76 452.076L448.559 507.803ZM471.715 422.859L498.862 323.326L471.715 422.859ZM469.596 212.009L397.022 138.711L469.596 212.009ZM375.698 117.189L335.097 76.1757L375.698 117.189ZM469.172 305.993L395.912 378.629L469.172 305.993ZM374.414 399.952L333.426 440.591L374.414 399.952ZM499.448 194.95L473.212 95.1546L499.448 194.95ZM465.505 65.8508L450.841 10.0238L465.505 65.8508ZM452.113 276.128L352.38 302.377L452.113 276.128ZM323.101 310.083L267.312 324.772L323.101 310.083ZM533.827 195.112L560.974 95.5786L533.827 195.112ZM568.942 66.3495L584.13 10.6348L568.942 66.3495ZM699.251 77.8591L658.275 118.485L699.251 77.8591ZM636.765 139.809L563.518 212.445L636.765 139.809ZM697.592 442.262L656.978 401.249L697.592 442.262ZM635.68 379.739L563.094 306.429L635.68 379.739ZM765.378 193.678L709.576 208.367L765.378 193.678ZM680.297 216.061L580.564 242.31L680.297 216.061ZM581.848 508.414L567.171 452.587L581.848 508.414ZM559.465 423.296L533.229 323.488L559.465 423.296ZM533.827 195.112L560.974 95.5786L533.827 195.112ZM568.942 66.3495L584.13 10.6348L568.942 66.3495ZM452.275 241.724L352.804 214.565L452.275 241.724ZM323.6 206.597L267.923 191.396L323.6 206.597ZM764.767 327.054L709.077 311.854L764.767 327.054ZM679.873 303.873L580.402 276.714L679.873 303.873ZM533.241 323.488C522.33 326.368 510.534 326.506 498.862 323.313C487.19 320.121 477.102 314.023 469.172 305.993C460.979 297.713 455.093 287.388 452.113 276.115C449.233 265.192 449.095 253.396 452.288 241.724C455.467 230.052 461.578 219.952 469.596 212.009V211.996C477.888 203.803 488.188 197.918 499.448 194.937C510.359 192.057 522.156 191.92 533.827 195.112C545.499 198.304 555.587 204.414 563.53 212.432C571.71 220.725 577.608 231.05 580.576 242.31C583.457 253.233 583.594 265.03 580.402 276.701C577.222 288.373 571.112 298.474 563.094 306.417C554.801 314.622 544.489 320.52 533.241 323.488ZM533.241 323.488C522.33 326.368 510.534 326.506 498.862 323.313C487.19 320.121 477.102 314.023 469.172 305.993C460.979 297.713 455.093 287.388 452.113 276.115C449.233 265.192 449.095 253.396 452.288 241.724C455.467 230.052 461.578 219.952 469.596 212.009V211.996C477.888 203.803 488.188 197.918 499.448 194.937C510.359 192.057 522.156 191.92 533.827 195.112C545.499 198.304 555.587 204.414 563.53 212.432C571.71 220.725 577.608 231.05 580.576 242.31C583.457 253.233 583.594 265.03 580.402 276.701C577.222 288.373 571.112 298.474 563.094 306.417C554.801 314.622 544.489 320.52 533.241 323.488ZM563.081 306.429C554.801 314.622 544.489 320.52 533.229 323.488C522.318 326.368 510.521 326.506 498.85 323.313C487.178 320.121 477.09 314.023 469.159 305.993C460.966 297.713 455.081 287.388 452.101 276.115C449.22 265.192 449.083 253.396 452.275 241.724C455.455 230.052 461.565 219.952 469.583 212.009V211.996C477.875 203.803 488.175 197.918 499.436 194.937C510.347 192.057 522.143 191.92 533.815 195.112C545.486 198.304 555.574 204.414 563.518 212.432C571.698 220.725 577.596 231.05 580.564 242.31C583.444 253.233 583.581 265.03 580.389 276.701C577.222 288.386 571.112 298.486 563.081 306.429ZM584.13 10.6348C446.926 -26.8243 305.357 54.1043 267.923 191.384C230.488 328.675 311.355 470.344 448.559 507.803C585.764 545.262 727.332 464.334 764.767 327.054C802.201 189.762 721.335 48.1063 584.13 10.6348ZM533.241 323.488C522.33 326.368 510.534 326.506 498.862 323.313C487.19 320.121 477.102 314.023 469.172 305.993C460.979 297.713 455.093 287.388 452.113 276.115C449.233 265.192 449.095 253.396 452.288 241.724C455.467 230.052 461.578 219.952 469.596 212.009V211.996C477.888 203.803 488.188 197.918 499.448 194.937C510.359 192.057 522.156 191.92 533.827 195.112C545.499 198.304 555.587 204.414 563.53 212.432C571.71 220.725 577.608 231.05 580.576 242.31C583.457 253.233 583.594 265.03 580.402 276.701C577.222 288.373 571.112 298.474 563.094 306.417C554.801 314.622 544.489 320.52 533.241 323.488ZM533.241 323.488C522.33 326.368 510.534 326.506 498.862 323.313C487.19 320.121 477.102 314.023 469.172 305.993C460.979 297.713 455.093 287.388 452.113 276.115C449.233 265.192 449.095 253.396 452.288 241.724C455.467 230.052 461.578 219.952 469.596 212.009V211.996C477.888 203.803 488.188 197.918 499.448 194.937C510.359 192.057 522.156 191.92 533.827 195.112C545.499 198.304 555.587 204.414 563.53 212.432C571.71 220.725 577.608 231.05 580.576 242.31C583.457 253.233 583.594 265.03 580.402 276.701C577.222 288.373 571.112 298.474 563.094 306.417C554.801 314.622 544.489 320.52 533.241 323.488ZM397.009 138.711L469.583 212.009C477.875 203.816 488.175 197.93 499.436 194.95C510.347 192.069 522.143 191.932 533.815 195.124L560.961 95.5911L397.009 138.711ZM53.2685 204.976H71.1501V213.305H53.2685V204.976ZM83.9192 155.658H98.5087H83.9192ZM80.9015 162.429H89.2188V173.701H80.9015V162.429ZM40.0756 186.695V219.228V186.695ZM555.936 269.905C549.876 292.127 526.969 305.22 504.76 299.159C482.552 293.099 469.471 270.167 475.531 247.946C481.591 225.725 504.498 212.632 526.707 218.692C548.916 224.753 561.996 247.684 555.936 269.905ZM447.936 507.504L463.136 451.777L447.936 507.504ZM471.104 422.56L498.251 323.027L471.104 422.56ZM375.087 116.889L334.486 75.8764L375.087 116.889ZM468.548 305.694L395.288 378.317L468.548 305.694ZM373.791 399.653L332.803 440.292L373.791 399.653ZM498.837 194.651L472.601 94.8554L498.837 194.651ZM464.894 65.5515L450.218 9.72448L464.894 65.5515ZM451.49 275.829L351.757 302.077L451.49 275.829ZM322.49 309.784L266.7 324.473L322.49 309.784ZM698.64 77.5598L657.664 118.186L698.64 77.5598ZM636.154 139.509L562.907 212.146L636.154 139.509ZM696.969 441.963L656.355 400.95L696.969 441.963ZM635.056 379.44L562.47 306.13L635.056 379.44ZM764.767 193.366L708.965 208.056L764.767 193.366ZM679.686 215.762L579.953 242.011L679.686 215.762ZM581.225 508.115L566.548 452.275L581.225 508.115ZM558.854 422.996L532.618 323.189L558.854 422.996ZM568.318 66.0503L583.507 10.3355L568.318 66.0503ZM451.664 241.425L352.193 214.266L451.664 241.425ZM322.989 206.297L267.312 191.097L322.989 206.297ZM764.143 326.755L708.453 311.554L764.143 326.755ZM679.262 303.574L579.791 276.415L679.262 303.574ZM583.519 10.3355C446.315 -27.1236 304.746 53.805 267.299 191.084C229.865 328.376 310.731 470.045 447.936 507.504C585.14 544.963 726.709 464.047 764.143 326.755C801.59 189.463 720.711 47.7946 583.519 10.3355ZM532.618 323.189C521.707 326.069 509.91 326.206 498.239 323.014C486.567 319.822 476.479 313.724 468.548 305.694C460.355 297.414 454.47 287.089 451.49 275.816C448.609 264.893 448.472 253.096 451.664 241.425C454.844 229.753 460.954 219.652 468.972 211.709V211.697C477.264 203.504 487.564 197.618 498.825 194.638C509.736 191.758 521.532 191.62 533.204 194.813C544.875 198.005 554.963 204.115 562.907 212.133C571.087 220.426 576.985 230.751 579.953 242.011C582.833 252.934 582.97 264.731 579.778 276.402C576.598 288.074 570.488 298.174 562.47 306.118C554.19 314.323 543.878 320.208 532.618 323.189Z" stroke="#1B8FCF" stroke-width="1.3" stroke-miterlimit="10"/>
<path d="M716.234 44.0925L696.195 65.4657" stroke="#1B8FCF" stroke-width="1.3" stroke-miterlimit="10"/>
<path d="M697.604 452.688L715.685 471.942" stroke="#1B8FCF" stroke-width="1.3" stroke-miterlimit="10"/>
<path d="M870.629 392.66C867.412 394.306 863.771 395.229 859.893 395.229C853.932 395.229 848.483 393.022 844.331 389.368L844.044 389.119L799.066 350.962C793.517 346.672 789.938 339.938 789.938 332.394C789.938 329.401 790.499 326.546 791.521 323.915C791.97 324.501 792.494 325.025 793.068 325.486L868.048 390.628C868.784 391.463 869.644 392.149 870.629 392.66Z" fill="white"/>
<path d="M870.629 392.66C867.412 394.306 863.771 395.229 859.893 395.229C853.932 395.229 848.483 393.022 844.331 389.368L844.044 389.119L799.066 350.962C793.517 346.672 789.938 339.938 789.938 332.394C789.938 329.401 790.499 326.546 791.521 323.915C791.97 324.501 792.494 325.025 793.068 325.486L868.048 390.628C868.784 391.463 869.644 392.149 870.629 392.66Z" stroke="#1B8FCF" stroke-width="1.3" stroke-miterlimit="10"/>
<path d="M882.513 372.746C882.513 375.527 882.027 378.183 881.154 380.652C880.792 380.128 880.38 379.654 879.919 379.23L879.47 378.831L879.42 378.794L804.278 313.34L804.253 313.328C803.779 312.829 803.268 312.392 802.694 312.006C805.712 310.609 809.066 309.824 812.607 309.824C818.057 309.824 823.057 311.669 827.047 314.762L828.656 316.133L873.161 353.967L873.21 354.004C878.859 358.306 882.513 365.102 882.513 372.746Z" fill="white"/>
<path d="M882.513 372.746C882.513 375.527 882.027 378.183 881.154 380.652C880.792 380.128 880.38 379.654 879.919 379.23L879.47 378.831L879.42 378.794L804.278 313.34L804.253 313.328C803.779 312.829 803.268 312.392 802.694 312.006C805.712 310.609 809.066 309.824 812.607 309.824C818.057 309.824 823.057 311.669 827.047 314.762L828.656 316.133L873.161 353.967L873.21 354.004C878.859 358.306 882.513 365.102 882.513 372.746Z" stroke="#1B8FCF" stroke-width="1.3" stroke-miterlimit="10"/>
<path d="M801.822 203.782C805.039 205.428 808.68 206.35 812.546 206.35C818.519 206.35 823.956 204.143 828.108 200.49L828.395 200.24L873.373 162.083C878.922 157.793 882.501 151.06 882.501 143.515C882.501 140.523 881.94 137.667 880.918 135.036C880.469 135.622 879.945 136.146 879.371 136.607L804.391 201.749C803.668 202.572 802.807 203.27 801.822 203.782Z" fill="white"/>
<path d="M801.822 203.782C805.039 205.428 808.68 206.35 812.546 206.35C818.519 206.35 823.956 204.143 828.108 200.49L828.395 200.24L873.373 162.083C878.922 157.793 882.501 151.06 882.501 143.515C882.501 140.523 881.94 137.667 880.918 135.036C880.469 135.622 879.945 136.146 879.371 136.607L804.391 201.749C803.668 202.572 802.807 203.27 801.822 203.782Z" stroke="#1B8FCF" stroke-width="1.3" stroke-miterlimit="10"/>
<path d="M789.938 183.867C789.938 186.648 790.412 189.304 791.297 191.773C791.659 191.249 792.07 190.776 792.531 190.352L792.98 189.953L793.03 189.915L868.173 124.462L868.185 124.449C868.659 123.95 869.17 123.514 869.744 123.127C866.726 121.731 863.372 120.945 859.831 120.945C854.394 120.945 849.381 122.791 845.391 125.883L843.782 127.255L799.278 165.088L799.228 165.125C793.591 169.427 789.938 176.223 789.938 183.867Z" fill="white"/>
<path d="M789.938 183.867C789.938 186.648 790.412 189.304 791.297 191.773C791.659 191.249 792.07 190.776 792.531 190.352L792.98 189.953L793.03 189.915L868.173 124.462L868.185 124.449C868.659 123.95 869.17 123.514 869.744 123.127C866.726 121.731 863.372 120.945 859.831 120.945C854.394 120.945 849.381 122.791 845.391 125.883L843.782 127.255L799.278 165.088L799.228 165.125C793.591 169.427 789.938 176.223 789.938 183.867Z" stroke="#1B8FCF" stroke-width="1.3" stroke-miterlimit="10"/>
<path d="M821.636 265.108C822.92 268.674 824.99 271.979 827.846 274.71C832.247 278.925 837.759 281.044 843.258 281.107L843.645 281.119L902.402 282.952C909.373 283.501 916.518 280.745 921.568 274.822C923.563 272.478 925.072 269.834 926.07 267.053C925.346 267.191 924.611 267.24 923.875 267.203L824.903 265.358C823.805 265.47 822.708 265.395 821.636 265.108Z" fill="white"/>
<path d="M821.636 265.108C822.92 268.674 824.99 271.979 827.846 274.71C832.247 278.925 837.759 281.044 843.258 281.107L843.645 281.119L902.402 282.952C909.373 283.501 916.518 280.745 921.568 274.822C923.563 272.478 925.072 269.834 926.07 267.053C925.346 267.191 924.611 267.24 923.875 267.203L824.903 265.358C823.805 265.47 822.708 265.395 821.636 265.108Z" stroke="#1B8FCF" stroke-width="1.3" stroke-miterlimit="10"/>
<path d="M825.276 243.372C823.381 245.591 821.934 248.048 820.912 250.654C821.535 250.492 822.171 250.417 822.807 250.405L823.418 250.417L823.481 250.43L924.548 252.026H924.573C925.259 251.963 925.957 251.976 926.643 252.101C925.333 248.821 923.351 245.791 920.682 243.26C916.592 239.357 911.579 237.249 906.467 236.85L904.322 236.788L845.091 235.104H845.028C837.858 234.456 830.489 237.262 825.276 243.372Z" fill="white"/>
<path d="M825.276 243.372C823.381 245.591 821.934 248.048 820.912 250.654C821.535 250.492 822.171 250.417 822.807 250.405L823.418 250.417L823.481 250.43L924.548 252.026H924.573C925.259 251.963 925.957 251.976 926.643 252.101C925.333 248.821 923.351 245.791 920.682 243.26C916.592 239.357 911.579 237.249 906.467 236.85L904.322 236.788L845.091 235.104H845.028C837.858 234.456 830.489 237.262 825.276 243.372Z" stroke="#1B8FCF" stroke-width="1.3" stroke-miterlimit="10"/>
<path d="M78.8774 357.36H101.448M44.3612 329.814V297.193M100.812 330.363H44.3612M1028.15 219.831H952.195H929.638V202.772V143.379M1030.22 295.56H954.253H931.707V312.618V372.111M1.91425 296.333H77.8674H100.425V312.693V370.241M57.5293 310.523H75.3859V302.218H57.5293V310.523ZM85.1248 350.588H93.4296V339.341H85.1248V350.588Z" stroke="#1B8FCF" stroke-width="1.3" stroke-miterlimit="10"/>
<path d="M930.287 181.148H983.159" stroke="#1B8FCF" stroke-width="1.3" stroke-miterlimit="10"/>
<path d="M945.502 160.634H936.05V173.016H945.502V160.634Z" stroke="#1B8FCF" stroke-width="1.3" stroke-miterlimit="10"/>
<path d="M945.936 154.112H929.638" stroke="#1B8FCF" stroke-width="1.3" stroke-miterlimit="10"/>
<path d="M975.492 205.463H956.501V214.915H975.492V205.463Z" stroke="#1B8FCF" stroke-width="1.3" stroke-miterlimit="10"/>
<path d="M931.31 328.415H987.773" stroke="#1B8FCF" stroke-width="1.3" stroke-miterlimit="10"/>
<path d="M947.584 336.881H938.132V349.263H947.584V336.881Z" stroke="#1B8FCF" stroke-width="1.3" stroke-miterlimit="10"/>
<path d="M955.477 355.448H931.71" stroke="#1B8FCF" stroke-width="1.3" stroke-miterlimit="10"/>
<path d="M47.7706 181.955H98.3853H47.7706ZM117.302 364.462H115.332C109.808 364.462 105.318 359.96 105.318 354.411V331.28C105.318 325.731 109.795 321.229 115.332 321.229H117.302C122.826 321.229 127.315 325.731 127.315 331.28V354.411C127.315 359.96 122.826 364.462 117.302 364.462ZM117.302 193.477H115.332C109.808 193.477 105.318 188.975 105.318 183.426V160.295C105.318 154.746 109.795 150.244 115.332 150.244H117.302C122.826 150.244 127.315 154.746 127.315 160.295V183.426C127.315 188.975 122.826 193.477 117.302 193.477ZM975.182 308.897H957.313V300.542H975.182V308.897Z" stroke="#1B8FCF" stroke-width="1.3" stroke-miterlimit="10"/>
<path d="M515.72 516.595C657.934 516.595 773.221 401.23 773.221 258.921C773.221 116.611 657.934 1.24609 515.72 1.24609C373.507 1.24609 258.221 116.611 258.221 258.921C258.221 401.23 373.507 516.595 515.72 516.595Z" fill="white" stroke="black" stroke-width="1.3" stroke-miterlimit="10"/>
<path d="M555.934 269.906C549.873 292.127 526.966 305.221 504.758 299.16C482.549 293.1 469.469 270.168 475.529 247.947C481.589 225.726 504.496 212.633 526.705 218.693C548.913 224.753 561.994 247.685 555.934 269.906Z" fill="white" stroke="black" stroke-width="1.3" stroke-miterlimit="10"/>
<path d="M447.934 507.504L463.134 451.79" stroke="black" stroke-width="1.3" stroke-miterlimit="10"/>
<path d="M471.104 422.56L498.251 323.027" stroke="black" stroke-width="1.3" stroke-miterlimit="10"/>
<path d="M375.086 116.89L334.485 75.8767" stroke="black" stroke-width="1.3" stroke-miterlimit="10"/>
<path d="M468.547 305.695L395.287 378.331" stroke="black" stroke-width="1.3" stroke-miterlimit="10"/>
<path d="M373.79 399.655L332.802 440.293" stroke="black" stroke-width="1.3" stroke-miterlimit="10"/>
<path d="M498.836 194.651L472.599 94.8435" stroke="black" stroke-width="1.3" stroke-miterlimit="10"/>
<path d="M464.894 65.5516L450.217 9.72461" stroke="black" stroke-width="1.3" stroke-miterlimit="10"/>
<path d="M451.488 275.831L351.755 302.079" stroke="black" stroke-width="1.3" stroke-miterlimit="10"/>
<path d="M322.489 309.786L266.687 324.463" stroke="black" stroke-width="1.3" stroke-miterlimit="10"/>
<path d="M698.64 77.5608L657.664 118.187" stroke="black" stroke-width="1.3" stroke-miterlimit="10"/>
<path d="M636.153 139.51L562.906 212.146" stroke="black" stroke-width="1.3" stroke-miterlimit="10"/>
<path d="M696.968 441.963L656.354 400.95" stroke="black" stroke-width="1.3" stroke-miterlimit="10"/>
<path d="M635.056 379.441L562.47 306.131" stroke="black" stroke-width="1.3" stroke-miterlimit="10"/>
<path d="M764.766 193.368L708.964 208.058" stroke="black" stroke-width="1.3" stroke-miterlimit="10"/>
<path d="M679.685 215.763L579.952 242.024" stroke="black" stroke-width="1.3" stroke-miterlimit="10"/>
<path d="M581.223 508.115L566.559 452.288" stroke="black" stroke-width="1.3" stroke-miterlimit="10"/>
<path d="M558.853 422.997L532.616 323.189" stroke="black" stroke-width="1.3" stroke-miterlimit="10"/>
<path d="M568.317 66.0514L583.517 10.3367" stroke="black" stroke-width="1.3" stroke-miterlimit="10"/>
<path d="M451.662 241.426L352.191 214.267" stroke="black" stroke-width="1.3" stroke-miterlimit="10"/>
<path d="M322.989 206.298L267.299 191.085" stroke="black" stroke-width="1.3" stroke-miterlimit="10"/>
<path d="M764.141 326.755L708.463 311.555" stroke="black" stroke-width="1.3" stroke-miterlimit="10"/>
<path d="M679.264 303.574L579.793 276.415" stroke="black" stroke-width="1.3" stroke-miterlimit="10"/>
<path d="M532.618 323.191C521.707 326.071 509.911 326.208 498.239 323.016C486.568 319.824 476.48 313.726 468.549 305.696C460.356 297.416 454.471 287.091 451.49 275.818C448.61 264.895 448.473 253.098 451.665 241.427C454.845 229.755 460.955 219.655 468.973 211.711V211.699C477.265 203.506 487.565 197.62 498.825 194.64C509.736 191.76 521.533 191.623 533.204 194.815C544.876 198.007 554.964 204.117 562.907 212.135C571.088 220.428 576.986 230.753 579.953 242.013C582.834 252.936 582.971 264.733 579.779 276.404C576.599 288.076 570.489 298.176 562.471 306.12C554.191 314.325 543.879 320.21 532.618 323.191Z" stroke="black" stroke-width="1.3" stroke-miterlimit="10"/>
<path d="M396.397 138.414L468.971 211.711C477.263 203.518 487.563 197.633 498.823 194.652C509.734 191.772 521.531 191.635 533.202 194.827L560.349 95.2935" stroke="black" stroke-width="1.3" stroke-miterlimit="10"/>
</svg>
