<svg width="1031" height="518" viewBox="0 0 1031 518" fill="none" xmlns="http://www.w3.org/2000/svg">
<path d="M200.777 177.29C203.395 179.061 204.081 182.602 202.311 185.208C200.527 187.827 196.961 188.5 194.342 186.73C191.724 184.959 191.038 181.418 192.821 178.799C194.592 176.193 198.158 175.519 200.777 177.29Z" fill="white"/>
<path d="M200.777 177.29C203.395 179.061 204.081 182.602 202.311 185.208C200.527 187.827 196.961 188.5 194.342 186.73C191.724 184.959 191.038 181.418 192.821 178.799C194.592 176.193 198.158 175.519 200.777 177.29Z" stroke="#1B8FCF" stroke-width="1.3" stroke-miterlimit="10"/>
<path d="M1.57568 218.964C32.6004 192.503 64.9593 167.963 98.6526 145.405L98.665 145.417V202.691V218.976H76.419H1.57568V218.964Z" fill="white"/>
<path d="M1.57568 218.964C32.6004 192.503 64.9593 167.963 98.6526 145.405L98.665 145.417V202.691V218.976H76.419H1.57568V218.964Z" stroke="#1B8FCF" stroke-width="1.3" stroke-miterlimit="10"/>
<path d="M201.428 335.929C203.86 333.909 204.171 330.306 202.139 327.886C200.106 325.48 196.49 325.156 194.059 327.188C191.627 329.208 191.315 332.812 193.348 335.219C195.393 337.638 199.009 337.95 201.428 335.929ZM202.313 185.208C204.097 182.602 203.398 179.06 200.78 177.29C198.161 175.519 194.595 176.205 192.824 178.811C191.041 181.429 191.727 184.971 194.345 186.742C196.976 188.5 200.543 187.826 202.313 185.208ZM214.272 325.205C216.704 323.173 217.015 319.582 214.983 317.162C212.95 314.743 209.334 314.432 206.902 316.452C204.471 318.472 204.159 322.076 206.192 324.495C208.237 326.914 211.84 327.238 214.272 325.205ZM216.192 194.573C217.963 191.966 217.29 188.413 214.659 186.642C212.04 184.871 208.474 185.557 206.703 188.163C204.92 190.769 205.605 194.323 208.224 196.081C210.843 197.852 214.409 197.179 216.192 194.573ZM216.629 351.591C225.869 343.873 228.749 331.428 224.734 320.804C224.21 322.512 223.213 324.083 221.754 325.293L203.66 340.406C199.433 343.935 192.936 343.149 189.145 338.648C185.342 334.146 185.704 327.637 189.919 324.108L208.025 308.995C209.471 307.785 211.192 307.074 212.975 306.862C203.161 301.064 190.343 301.725 181.115 309.444C169.418 319.208 167.897 336.553 177.711 348.187C187.512 359.834 204.945 361.355 216.629 351.591ZM225.594 189.847C228.512 178.861 224.36 166.778 214.384 160.044C201.752 151.527 184.569 154.807 176.002 167.389C167.448 179.958 170.753 197.067 183.384 205.583C193.36 212.317 206.179 211.681 215.344 204.91C213.549 204.873 211.766 204.349 210.194 203.289L190.629 190.096C186.065 187.016 185.043 180.582 188.347 175.718C191.652 170.855 198.049 169.409 202.613 172.489L222.178 185.682C223.736 186.729 224.884 188.188 225.594 189.847ZM260.684 285.003C262.181 304.044 266.059 329.495 275.885 347.913V347.925C278.279 354.322 280.91 360.607 283.791 366.767L263.914 386.769L230.42 420.474L213.224 437.782C146.112 404.987 83.8385 364.011 25.5051 316.315C17.3998 309.693 9.43162 302.897 1.57568 295.989V283.631V233.204V218.963H76.4315H98.665V202.678V145.404V145.392C131.311 123.532 165.204 103.519 200.368 85.4125C204.558 83.2553 208.76 81.1354 212.975 79.0654L213.224 79.5642L230.408 96.8847L263.852 130.59L283.579 150.467L283.641 150.492C280.835 156.527 278.254 162.675 275.922 168.947C268.49 188.874 263.465 209.948 261.208 231.845C260.31 240.586 259.849 249.452 259.849 258.43C259.811 258.43 259.475 269.64 260.684 285.003Z" stroke="#1B8FCF" stroke-width="1.3" stroke-miterlimit="10"/>
<path d="M224.732 320.817C228.76 331.441 225.867 343.886 216.627 351.604C204.93 361.368 187.51 359.847 177.696 348.213C167.882 336.578 169.404 319.233 181.1 309.457C190.328 301.738 203.147 301.077 212.96 306.876C211.177 307.088 209.456 307.798 207.998 309.008L189.891 324.121C185.664 327.65 185.315 334.159 189.118 338.661C192.909 343.163 199.406 343.948 203.633 340.419L221.727 325.306C223.211 324.084 224.208 322.525 224.732 320.817Z" fill="white"/>
<path d="M224.732 320.817C228.76 331.441 225.867 343.886 216.627 351.604C204.93 361.368 187.51 359.847 177.696 348.213C167.882 336.578 169.404 319.233 181.1 309.457C190.328 301.738 203.147 301.077 212.96 306.876C211.177 307.088 209.456 307.798 207.998 309.008L189.891 324.121C185.664 327.65 185.315 334.159 189.118 338.661C192.909 343.163 199.406 343.948 203.633 340.419L221.727 325.306C223.211 324.084 224.208 322.525 224.732 320.817Z" stroke="#1B8FCF" stroke-width="1.3" stroke-miterlimit="10"/>
<path d="M518.195 1.25439C519.105 1.25439 520.028 1.26686 520.926 1.27933C514.254 1.34168 507.608 1.52873 500.949 1.828C506.648 1.44144 512.396 1.25439 518.195 1.25439Z" fill="white"/>
<path d="M518.195 1.25439C519.105 1.25439 520.028 1.26686 520.926 1.27933C514.254 1.34168 507.608 1.52873 500.949 1.828C506.648 1.44144 512.396 1.25439 518.195 1.25439Z" stroke="#1B8FCF" stroke-width="1.3" stroke-miterlimit="10"/>
<path d="M419.922 10.9425C446.807 6.29131 473.829 3.06165 500.95 1.82715C439.163 5.87981 383.323 31.5425 340.963 71.296L310.537 38.6877C346.089 26.7167 382.525 17.4143 419.922 10.9425Z" fill="white"/>
<path d="M419.922 10.9425C446.807 6.29131 473.829 3.06165 500.95 1.82715C439.163 5.87981 383.323 31.5425 340.963 71.296L310.537 38.6877C346.089 26.7167 382.525 17.4143 419.922 10.9425Z" stroke="#1B8FCF" stroke-width="1.3" stroke-miterlimit="10"/>
<path d="M514.991 515.581C516.974 515.593 518.982 515.593 520.977 515.581C520.054 515.593 519.131 515.593 518.196 515.593C517.111 515.593 516.051 515.581 514.991 515.581Z" fill="white"/>
<path d="M514.991 515.581C516.974 515.593 518.982 515.593 520.977 515.581C520.054 515.593 519.131 515.593 518.196 515.593C517.111 515.593 516.051 515.581 514.991 515.581Z" stroke="#1B8FCF" stroke-width="1.3" stroke-miterlimit="10"/>
<path d="M283.789 366.767C297.668 396.457 317.058 423.068 340.676 445.289L310.561 477.573L310.374 478.134C305.436 476.426 300.511 474.68 295.598 472.872C267.341 462.534 239.908 450.8 213.235 437.769L230.431 420.461L263.925 386.768L283.789 366.767Z" fill="white"/>
<path d="M283.789 366.767C297.668 396.457 317.058 423.068 340.676 445.289L310.561 477.573L310.374 478.134C305.436 476.426 300.511 474.68 295.598 472.872C267.341 462.534 239.908 450.8 213.235 437.769L230.431 420.461L263.925 386.768L283.789 366.767Z" stroke="#1B8FCF" stroke-width="1.3" stroke-miterlimit="10"/>
<path d="M514.69 515.567C506.572 515.505 498.455 515.268 490.337 514.832C428.474 511.54 368.657 498.222 310.361 478.121L310.548 477.56L340.663 445.276C386.165 488.122 447.316 514.67 514.69 515.567Z" fill="white"/>
<path d="M514.69 515.567C506.572 515.505 498.455 515.268 490.337 514.832C428.474 511.54 368.657 498.222 310.361 478.121L310.548 477.56L340.663 445.276C386.165 488.122 447.316 514.67 514.69 515.567Z" stroke="#1B8FCF" stroke-width="1.3" stroke-miterlimit="10"/>
<path d="M214.979 317.162C217.012 319.581 216.7 323.172 214.268 325.205C211.837 327.225 208.233 326.913 206.188 324.494C204.155 322.075 204.467 318.471 206.899 316.451C209.318 314.431 212.947 314.743 214.979 317.162Z" fill="white"/>
<path d="M214.979 317.162C217.012 319.581 216.7 323.172 214.268 325.205C211.837 327.225 208.233 326.913 206.188 324.494C204.155 322.075 204.467 318.471 206.899 316.451C209.318 314.431 212.947 314.743 214.979 317.162Z" stroke="#1B8FCF" stroke-width="1.3" stroke-miterlimit="10"/>
<path d="M214.371 160.031C224.346 166.765 228.511 178.848 225.581 189.834C224.883 188.175 223.735 186.729 222.164 185.657L202.599 172.464C198.023 169.384 191.638 170.818 188.334 175.693C185.029 180.556 186.039 186.991 190.616 190.071L210.181 203.264C211.752 204.324 213.535 204.848 215.331 204.885C206.166 211.656 193.347 212.292 183.371 205.558C170.739 197.041 167.435 179.945 175.989 167.364C184.555 154.806 201.739 151.514 214.371 160.031Z" fill="white"/>
<path d="M214.371 160.031C224.346 166.765 228.511 178.848 225.581 189.834C224.883 188.175 223.735 186.729 222.164 185.657L202.599 172.464C198.023 169.384 191.638 170.818 188.334 175.693C185.029 180.556 186.039 186.991 190.616 190.071L210.181 203.264C211.752 204.324 213.535 204.848 215.331 204.885C206.166 211.656 193.347 212.292 183.371 205.558C170.739 197.041 167.435 179.945 175.989 167.364C184.555 154.806 201.739 151.514 214.371 160.031Z" stroke="#1B8FCF" stroke-width="1.3" stroke-miterlimit="10"/>
<path d="M214.657 186.642C217.288 188.412 217.961 191.966 216.19 194.572C214.407 197.178 210.841 197.864 208.222 196.094C205.604 194.335 204.918 190.782 206.701 188.175C208.472 185.557 212.038 184.871 214.657 186.642Z" fill="white"/>
<path d="M214.657 186.642C217.288 188.412 217.961 191.966 216.19 194.572C214.407 197.178 210.841 197.864 208.222 196.094C205.604 194.335 204.918 190.782 206.701 188.175C208.472 185.557 212.038 184.871 214.657 186.642Z" stroke="#1B8FCF" stroke-width="1.3" stroke-miterlimit="10"/>
<path d="M310.548 38.6751L340.974 71.2835C317.12 93.6666 297.555 120.514 283.613 150.479L283.551 150.454L263.836 130.577L230.393 96.8714L213.222 79.5634L212.972 79.0646C244.72 63.3901 277.241 49.8729 310.548 38.6751Z" fill="white"/>
<path d="M310.548 38.6751L340.974 71.2835C317.12 93.6666 297.555 120.514 283.613 150.479L283.551 150.454L263.836 130.577L230.393 96.8714L213.222 79.5634L212.972 79.0646C244.72 63.3901 277.241 49.8729 310.548 38.6751Z" stroke="#1B8FCF" stroke-width="1.3" stroke-miterlimit="10"/>
<path d="M202.139 327.885C204.171 330.305 203.86 333.908 201.428 335.928C198.996 337.949 195.38 337.637 193.348 335.218C191.315 332.799 191.627 329.207 194.058 327.187C196.49 325.155 200.106 325.479 202.139 327.885Z" fill="white"/>
<path d="M202.139 327.885C204.171 330.305 203.86 333.908 201.428 335.928C198.996 337.949 195.38 337.637 193.348 335.218C191.315 332.799 191.627 329.207 194.058 327.187C196.49 325.155 200.106 325.479 202.139 327.885Z" stroke="#1B8FCF" stroke-width="1.3" stroke-miterlimit="10"/>
<path d="M230.094 420.823L263.625 387.055M230.094 420.823L212.873 438.168L212.549 438.492L230.094 420.823ZM1 283.693V233.153V218.875M260.395 285.065C259.186 269.665 259.523 258.429 259.523 258.429C259.523 249.426 259.984 240.548 260.894 231.794L260.395 285.065ZM260.395 285.065H260.308M283.527 367.003L263.625 387.042M283.527 367.003C280.659 360.843 278.015 354.546 275.621 348.124M283.527 367.003C297.418 396.756 316.833 423.417 340.476 445.7C386.028 488.633 447.242 515.244 514.691 516.141C506.56 516.079 498.443 515.842 490.312 515.406C428.375 512.101 368.495 498.759 310.137 478.608C305.187 476.899 300.261 475.141 295.336 473.333C267.054 462.971 239.583 451.212 212.873 438.156C145.699 405.31 83.3501 364.235 24.9544 316.439C16.8366 309.805 8.85593 302.996 1 296.063V283.681M310.324 38.189L340.775 70.8722M212.873 79.1645L230.069 96.5224L263.55 130.29L283.29 150.217M98.1891 202.553V218.875H75.9306H1M1 218.875C32.0621 192.352 64.4585 167.762 98.1891 145.142C130.872 123.233 164.802 103.181 200.004 85.0253C204.207 82.8681 208.409 80.7482 212.624 78.6658C244.422 62.9539 276.98 49.4118 310.324 38.1765C345.9 26.2056 382.374 16.8658 419.808 10.3815C446.731 5.71781 473.778 2.48815 500.937 1.24117C439.087 5.30631 383.172 31.0189 340.775 70.8597C316.896 93.2928 297.306 120.19 283.352 150.23C280.546 156.277 277.965 162.437 275.621 168.735C268.189 188.699 263.151 209.835 260.894 231.769M98.1891 202.565V145.167M260.321 231.782C260.508 231.782 260.707 231.782 260.894 231.782H260.321ZM310.324 478.046L340.476 445.687L340.775 445.363L310.324 478.046ZM213.933 325.355C211.502 327.387 207.885 327.075 205.84 324.644C203.808 322.225 204.12 318.608 206.551 316.588C208.983 314.556 212.599 314.867 214.644 317.299C216.677 319.718 216.365 323.322 213.933 325.355ZM216.302 351.803C204.593 361.579 187.148 360.058 177.335 348.411C167.508 336.752 169.042 319.357 180.739 309.58C189.979 301.849 202.81 301.176 212.636 306.987C210.841 307.211 209.12 307.909 207.673 309.119L189.542 324.27C185.315 327.811 184.966 334.333 188.769 338.847C192.56 343.361 199.069 344.146 203.309 340.605L221.427 325.454C222.886 324.232 223.884 322.661 224.408 320.953C228.435 331.602 225.555 344.072 216.302 351.803ZM201.077 336.103C198.645 338.136 195.029 337.824 192.984 335.393C190.951 332.974 191.263 329.37 193.695 327.337C196.126 325.305 199.743 325.616 201.788 328.035C203.833 330.455 203.508 334.071 201.077 336.103ZM207.885 195.956C205.267 194.185 204.581 190.632 206.364 188.025C208.147 185.407 211.714 184.721 214.332 186.492C216.963 188.262 217.649 191.816 215.866 194.435C214.083 197.041 210.504 197.727 207.885 195.956ZM183.008 205.458C170.364 196.916 167.059 179.783 175.626 167.176C184.205 154.569 201.401 151.277 214.045 159.819C224.034 166.565 228.199 178.686 225.268 189.684C224.57 188.025 223.423 186.566 221.851 185.506L202.274 172.289C197.698 169.196 191.301 170.643 187.996 175.531C184.679 180.406 185.702 186.853 190.278 189.946L209.856 203.164C211.427 204.224 213.21 204.76 215.018 204.785C205.828 211.568 192.996 212.204 183.008 205.458ZM193.994 186.579C191.375 184.808 190.69 181.254 192.46 178.636C194.231 176.017 197.81 175.344 200.428 177.114C203.047 178.885 203.745 182.439 201.962 185.058C200.192 187.664 196.613 188.35 193.994 186.579ZM275.621 348.112C265.782 329.657 261.904 304.156 260.408 285.065L275.621 348.112ZM520.975 516.154C520.053 516.166 519.13 516.179 518.195 516.179C517.122 516.179 516.05 516.166 514.99 516.154C516.985 516.154 518.98 516.166 520.975 516.154ZM520.926 0.704975C514.242 0.767323 507.583 0.954369 500.937 1.25364C506.635 0.879551 512.396 0.692505 518.195 0.692505C519.105 0.692505 520.028 0.704975 520.926 0.704975Z" stroke="#1B8FCF" stroke-width="1.3" stroke-miterlimit="10"/>
<path d="M770.582 284.852C769.086 303.894 765.208 329.344 755.382 347.762V347.775C752.988 354.172 750.357 360.456 747.476 366.616L767.353 386.618L800.847 420.324L818.042 437.632C885.142 404.849 947.416 363.873 1005.75 316.189C1013.85 309.567 1021.82 302.771 1029.68 295.863V283.506V233.078V218.838C968.589 166.752 902.363 122.098 830.899 85.2869C826.709 83.1296 822.506 81.0097 818.292 78.9398L818.042 79.4385L800.884 96.7216L767.44 130.427L747.713 150.304L747.651 150.329C750.456 156.364 753.038 162.524 755.369 168.797C762.801 188.723 767.814 209.797 770.084 231.694C770.981 240.435 771.443 249.301 771.443 258.279C771.455 258.267 771.792 269.477 770.582 284.852Z" stroke="black" stroke-width="1.3" stroke-miterlimit="10"/>
<path d="M611.344 10.7805C584.459 6.12926 557.438 2.8996 530.316 1.6651C592.103 5.71776 647.943 31.3805 690.303 71.134L720.729 38.5256C685.178 26.5672 648.741 17.2523 611.344 10.7805Z" fill="white"/>
<path d="M611.344 10.7805C584.459 6.12926 557.438 2.8996 530.316 1.6651C592.103 5.71776 647.943 31.3805 690.303 71.134L720.729 38.5256C685.178 26.5672 648.741 17.2523 611.344 10.7805Z" stroke="black" stroke-width="1.3" stroke-miterlimit="10"/>
<path d="M720.717 38.5269L690.291 71.1353C714.133 93.5185 733.71 120.366 747.651 150.331L747.714 150.306L767.441 130.429L800.885 96.7232L818.068 79.4027L818.317 78.9039C786.544 63.2419 754.023 49.7247 720.717 38.5269Z" fill="white"/>
<path d="M720.717 38.5269L690.291 71.1353C714.133 93.5185 733.71 120.366 747.651 150.331L747.714 150.306L767.441 130.429L800.885 96.7232L818.068 79.4027L818.317 78.9039C786.544 63.2419 754.023 49.7247 720.717 38.5269Z" stroke="black" stroke-width="1.3" stroke-miterlimit="10"/>
<path d="M513.071 1.10461C512.161 1.10461 511.238 1.11708 510.34 1.12955C516.999 1.1919 523.658 1.37895 530.304 1.67822C524.618 1.27919 518.87 1.10461 513.071 1.10461Z" fill="white"/>
<path d="M513.071 1.10461C512.161 1.10461 511.238 1.11708 510.34 1.12955C516.999 1.1919 523.658 1.37895 530.304 1.67822C524.618 1.27919 518.87 1.10461 513.071 1.10461Z" stroke="#1B8FCF" stroke-width="1.3" stroke-miterlimit="10"/>
<path d="M516.273 515.419C514.277 515.431 512.282 515.443 510.287 515.419C511.21 515.431 512.133 515.443 513.068 515.443C514.153 515.443 515.213 515.431 516.273 515.419Z" fill="white"/>
<path d="M516.273 515.419C514.277 515.431 512.282 515.443 510.287 515.419C511.21 515.431 512.133 515.443 513.068 515.443C514.153 515.443 515.213 515.431 516.273 515.419Z" stroke="#1B8FCF" stroke-width="1.3" stroke-miterlimit="10"/>
<path d="M747.476 366.605C733.598 396.295 714.207 422.906 690.589 445.127L720.704 477.411L720.903 477.972C725.841 476.264 730.767 474.518 735.68 472.722C763.936 462.385 791.37 450.651 818.043 437.62L800.847 420.312L767.353 386.619L747.476 366.605Z" fill="white"/>
<path d="M747.476 366.605C733.598 396.295 714.207 422.906 690.589 445.127L720.704 477.411L720.903 477.972C725.841 476.264 730.767 474.518 735.68 472.722C763.936 462.385 791.37 450.651 818.043 437.62L800.847 420.312L767.353 386.619L747.476 366.605Z" stroke="black" stroke-width="1.3" stroke-miterlimit="10"/>
<path d="M516.576 515.418C524.693 515.355 532.811 515.118 540.929 514.682C602.791 511.39 662.621 498.072 720.905 477.959L720.705 477.397L690.591 445.113C645.101 487.972 583.95 514.52 516.576 515.418Z" fill="white"/>
<path d="M516.576 515.418C524.693 515.355 532.811 515.118 540.929 514.682C602.791 511.39 662.621 498.072 720.905 477.959L720.705 477.397L690.591 445.113C645.101 487.972 583.95 514.52 516.576 515.418Z" stroke="black" stroke-width="1.3" stroke-miterlimit="10"/>
<path d="M556.202 269.852C550.141 292.073 527.234 305.166 505.026 299.106C482.817 293.046 469.737 270.114 475.797 247.893C481.857 225.672 504.764 212.578 526.973 218.639C549.181 224.699 562.262 247.631 556.202 269.852ZM448.214 507.45L463.414 451.723L448.214 507.45ZM471.37 422.506L498.517 322.973L471.37 422.506ZM469.25 211.656L396.676 138.359L469.25 211.656ZM375.353 116.836L334.752 75.8228L375.353 116.836ZM468.826 305.64L395.567 378.276L468.826 305.64ZM374.069 399.599L333.081 440.238L374.069 399.599ZM499.103 194.597L472.866 94.8018L499.103 194.597ZM465.16 65.4979L450.496 9.67091L465.16 65.4979ZM451.768 275.775L352.035 302.024L451.768 275.775ZM322.756 309.73L266.966 324.419L322.756 309.73ZM533.482 194.759L560.628 95.2257L533.482 194.759ZM568.597 65.9967L583.785 10.2819L568.597 65.9967ZM698.905 77.5063L657.93 118.133L698.905 77.5063ZM636.419 139.456L563.172 212.092L636.419 139.456ZM697.247 441.909L656.633 400.896L697.247 441.909ZM635.335 379.386L562.748 306.076L635.335 379.386ZM765.032 193.325L709.23 208.014L765.032 193.325ZM679.951 215.708L580.218 241.957L679.951 215.708ZM581.503 508.061L566.826 452.234L581.503 508.061ZM559.12 422.943L532.883 323.135L559.12 422.943ZM533.482 194.759L560.628 95.2257L533.482 194.759ZM568.597 65.9967L583.785 10.2819L568.597 65.9967ZM451.93 241.371L352.459 214.212L451.93 241.371ZM323.255 206.244L267.577 191.043L323.255 206.244ZM764.421 326.701L708.731 311.501L764.421 326.701ZM679.527 303.52L580.056 276.361L679.527 303.52ZM532.896 323.135C521.985 326.016 510.188 326.153 498.517 322.96C486.845 319.768 476.757 313.671 468.826 305.64C460.634 297.36 454.748 287.035 451.768 275.763C448.887 264.839 448.75 253.043 451.942 241.371C455.122 229.699 461.232 219.599 469.25 211.656V211.643C477.543 203.451 487.843 197.565 499.103 194.585C510.014 191.704 521.81 191.567 533.482 194.759C545.154 197.951 555.241 204.062 563.185 212.08C571.365 220.372 577.263 230.697 580.231 241.957C583.111 252.881 583.249 264.677 580.056 276.349C576.876 288.02 570.766 298.121 562.748 306.064C554.456 314.269 544.143 320.167 532.896 323.135ZM532.896 323.135C521.985 326.016 510.188 326.153 498.517 322.96C486.845 319.768 476.757 313.671 468.826 305.64C460.634 297.36 454.748 287.035 451.768 275.763C448.887 264.839 448.75 253.043 451.942 241.371C455.122 229.699 461.232 219.599 469.25 211.656V211.643C477.543 203.451 487.843 197.565 499.103 194.585C510.014 191.704 521.81 191.567 533.482 194.759C545.154 197.951 555.241 204.062 563.185 212.08C571.365 220.372 577.263 230.697 580.231 241.957C583.111 252.881 583.249 264.677 580.056 276.349C576.876 288.02 570.766 298.121 562.748 306.064C554.456 314.269 544.143 320.167 532.896 323.135ZM562.736 306.076C554.456 314.269 544.143 320.167 532.883 323.135C521.972 326.016 510.176 326.153 498.504 322.96C486.833 319.768 476.745 313.671 468.814 305.64C460.621 297.36 454.735 287.035 451.755 275.763C448.875 264.839 448.737 253.043 451.93 241.371C455.11 229.699 461.22 219.599 469.238 211.656V211.643C477.53 203.451 487.83 197.565 499.09 194.585C510.001 191.704 521.798 191.567 533.469 194.759C545.141 197.951 555.229 204.062 563.172 212.08C571.352 220.372 577.251 230.697 580.218 241.957C583.099 252.881 583.236 264.677 580.044 276.349C576.877 288.033 570.766 298.133 562.736 306.076ZM583.785 10.2819C446.58 -27.1772 305.011 53.7514 267.577 191.031C230.143 328.322 311.009 469.991 448.214 507.45C585.418 544.909 726.987 463.981 764.421 326.701C801.855 189.41 720.989 47.7535 583.785 10.2819ZM532.896 323.135C521.985 326.016 510.188 326.153 498.517 322.96C486.845 319.768 476.757 313.671 468.826 305.64C460.634 297.36 454.748 287.035 451.768 275.763C448.887 264.839 448.75 253.043 451.942 241.371C455.122 229.699 461.232 219.599 469.25 211.656V211.643C477.543 203.451 487.843 197.565 499.103 194.585C510.014 191.704 521.81 191.567 533.482 194.759C545.154 197.951 555.241 204.062 563.185 212.08C571.365 220.372 577.263 230.697 580.231 241.957C583.111 252.881 583.249 264.677 580.056 276.349C576.876 288.02 570.766 298.121 562.748 306.064C554.456 314.269 544.143 320.167 532.896 323.135ZM532.896 323.135C521.985 326.016 510.188 326.153 498.517 322.96C486.845 319.768 476.757 313.671 468.826 305.64C460.634 297.36 454.748 287.035 451.768 275.763C448.887 264.839 448.75 253.043 451.942 241.371C455.122 229.699 461.232 219.599 469.25 211.656V211.643C477.543 203.451 487.843 197.565 499.103 194.585C510.014 191.704 521.81 191.567 533.482 194.759C545.154 197.951 555.241 204.062 563.185 212.08C571.365 220.372 577.263 230.697 580.231 241.957C583.111 252.881 583.249 264.677 580.056 276.349C576.876 288.02 570.766 298.121 562.748 306.064C554.456 314.269 544.143 320.167 532.896 323.135ZM396.664 138.359L469.238 211.656C477.53 203.463 487.83 197.577 499.09 194.597C510.001 191.717 521.798 191.579 533.469 194.772L560.616 95.2382L396.664 138.359ZM52.9232 204.623H70.8048V212.953H52.9232V204.623ZM83.5738 155.305H98.1634H83.5738ZM80.5561 162.076H88.8735V173.349H80.5561V162.076ZM39.7302 186.342V218.876V186.342ZM555.591 269.553C549.53 291.774 526.623 304.867 504.415 298.807C482.206 292.746 469.126 269.815 475.186 247.593C481.246 225.372 504.153 212.279 526.362 218.339C548.57 224.4 561.651 247.332 555.591 269.553ZM447.59 507.151L462.791 451.424L447.59 507.151ZM470.759 422.207L497.906 322.674L470.759 422.207ZM374.742 116.537L334.141 75.5236L374.742 116.537ZM468.203 305.341L394.943 377.964L468.203 305.341ZM373.445 399.3L332.457 439.939L373.445 399.3ZM498.492 194.298L472.255 94.5025L498.492 194.298ZM464.549 65.1986L449.872 9.37163L464.549 65.1986ZM451.144 275.476L351.411 301.725L451.144 275.476ZM322.145 309.431L266.355 324.12L322.145 309.431ZM698.294 77.207L657.319 117.833L698.294 77.207ZM635.808 139.157L562.561 211.793L635.808 139.157ZM696.623 441.61L656.009 400.597L696.623 441.61ZM634.711 379.087L562.125 305.777L634.711 379.087ZM764.421 193.013L708.619 207.703L764.421 193.013ZM679.34 215.409L579.607 241.658L679.34 215.409ZM580.879 507.762L566.202 451.922L580.879 507.762ZM558.509 422.644L532.272 322.836L558.509 422.644ZM567.973 65.6974L583.161 9.98265L567.973 65.6974ZM451.319 241.072L351.848 213.913L451.319 241.072ZM322.644 205.945L266.966 190.744L322.644 205.945ZM763.798 326.402L708.108 311.202L763.798 326.402ZM678.916 303.221L579.445 276.062L678.916 303.221ZM583.174 9.98265C445.969 -27.4764 304.4 53.4521 266.954 190.731C229.52 328.023 310.386 469.692 447.59 507.151C584.795 544.61 726.364 463.694 763.798 326.402C801.244 189.11 720.366 47.4417 583.174 9.98265ZM532.272 322.836C521.361 325.716 509.565 325.853 497.893 322.661C486.222 319.469 476.134 313.371 468.203 305.341C460.01 297.061 454.124 286.736 451.144 275.463C448.264 264.54 448.126 252.743 451.319 241.072C454.499 229.4 460.609 219.3 468.627 211.356V211.344C476.919 203.151 487.219 197.266 498.479 194.285C509.39 191.405 521.187 191.268 532.858 194.46C544.53 197.652 554.618 203.762 562.561 211.78C570.741 220.073 576.64 230.398 579.607 241.658C582.488 252.581 582.625 264.378 579.433 276.049C576.253 287.721 570.143 297.822 562.125 305.765C553.845 313.97 543.532 319.856 532.272 322.836ZM396.053 138.059L468.627 211.356C476.919 203.164 487.219 197.278 498.479 194.298C509.39 191.417 521.187 191.28 532.858 194.472L560.005 94.9389" fill="white"/>
<path d="M396.053 138.059L468.627 211.356C476.919 203.164 487.219 197.278 498.479 194.298C509.39 191.417 521.187 191.28 532.858 194.472L560.005 94.9389M556.202 269.852C550.141 292.073 527.234 305.166 505.026 299.106C482.817 293.046 469.737 270.114 475.797 247.893C481.857 225.672 504.764 212.578 526.973 218.639C549.181 224.699 562.262 247.631 556.202 269.852ZM448.214 507.45L463.414 451.723L448.214 507.45ZM471.37 422.506L498.517 322.973L471.37 422.506ZM469.25 211.656L396.676 138.359L469.25 211.656ZM375.353 116.836L334.752 75.8228L375.353 116.836ZM468.826 305.64L395.567 378.276L468.826 305.64ZM374.069 399.599L333.081 440.238L374.069 399.599ZM499.103 194.597L472.866 94.8018L499.103 194.597ZM465.16 65.4979L450.496 9.67091L465.16 65.4979ZM451.768 275.775L352.035 302.024L451.768 275.775ZM322.756 309.73L266.966 324.419L322.756 309.73ZM533.482 194.759L560.628 95.2257L533.482 194.759ZM568.597 65.9967L583.785 10.2819L568.597 65.9967ZM698.905 77.5063L657.93 118.133L698.905 77.5063ZM636.419 139.456L563.172 212.092L636.419 139.456ZM697.247 441.909L656.633 400.896L697.247 441.909ZM635.335 379.386L562.748 306.076L635.335 379.386ZM765.032 193.325L709.23 208.014L765.032 193.325ZM679.951 215.708L580.218 241.957L679.951 215.708ZM581.503 508.061L566.826 452.234L581.503 508.061ZM559.12 422.943L532.883 323.135L559.12 422.943ZM533.482 194.759L560.628 95.2257L533.482 194.759ZM568.597 65.9967L583.785 10.2819L568.597 65.9967ZM451.93 241.371L352.459 214.212L451.93 241.371ZM323.255 206.244L267.577 191.043L323.255 206.244ZM764.421 326.701L708.731 311.501L764.421 326.701ZM679.527 303.52L580.056 276.361L679.527 303.52ZM532.896 323.135C521.985 326.016 510.188 326.153 498.517 322.96C486.845 319.768 476.757 313.671 468.826 305.64C460.634 297.36 454.748 287.035 451.768 275.763C448.887 264.839 448.75 253.043 451.942 241.371C455.122 229.699 461.232 219.599 469.25 211.656V211.643C477.543 203.451 487.843 197.565 499.103 194.585C510.014 191.704 521.81 191.567 533.482 194.759C545.154 197.951 555.241 204.062 563.185 212.08C571.365 220.372 577.263 230.697 580.231 241.957C583.111 252.881 583.249 264.677 580.056 276.349C576.876 288.02 570.766 298.121 562.748 306.064C554.456 314.269 544.143 320.167 532.896 323.135ZM532.896 323.135C521.985 326.016 510.188 326.153 498.517 322.96C486.845 319.768 476.757 313.671 468.826 305.64C460.634 297.36 454.748 287.035 451.768 275.763C448.887 264.839 448.75 253.043 451.942 241.371C455.122 229.699 461.232 219.599 469.25 211.656V211.643C477.543 203.451 487.843 197.565 499.103 194.585C510.014 191.704 521.81 191.567 533.482 194.759C545.154 197.951 555.241 204.062 563.185 212.08C571.365 220.372 577.263 230.697 580.231 241.957C583.111 252.881 583.249 264.677 580.056 276.349C576.876 288.02 570.766 298.121 562.748 306.064C554.456 314.269 544.143 320.167 532.896 323.135ZM562.736 306.076C554.456 314.269 544.143 320.167 532.883 323.135C521.972 326.016 510.176 326.153 498.504 322.96C486.833 319.768 476.745 313.671 468.814 305.64C460.621 297.36 454.735 287.035 451.755 275.763C448.875 264.839 448.737 253.043 451.93 241.371C455.11 229.699 461.22 219.599 469.238 211.656V211.643C477.53 203.451 487.83 197.565 499.09 194.585C510.001 191.704 521.798 191.567 533.469 194.759C545.141 197.951 555.229 204.062 563.172 212.08C571.352 220.372 577.251 230.697 580.218 241.957C583.099 252.881 583.236 264.677 580.044 276.349C576.877 288.033 570.766 298.133 562.736 306.076ZM583.785 10.2819C446.58 -27.1772 305.011 53.7514 267.577 191.031C230.143 328.322 311.009 469.991 448.214 507.45C585.418 544.909 726.987 463.981 764.421 326.701C801.855 189.41 720.989 47.7535 583.785 10.2819ZM532.896 323.135C521.985 326.016 510.188 326.153 498.517 322.96C486.845 319.768 476.757 313.671 468.826 305.64C460.634 297.36 454.748 287.035 451.768 275.763C448.887 264.839 448.75 253.043 451.942 241.371C455.122 229.699 461.232 219.599 469.25 211.656V211.643C477.543 203.451 487.843 197.565 499.103 194.585C510.014 191.704 521.81 191.567 533.482 194.759C545.154 197.951 555.241 204.062 563.185 212.08C571.365 220.372 577.263 230.697 580.231 241.957C583.111 252.881 583.249 264.677 580.056 276.349C576.876 288.02 570.766 298.121 562.748 306.064C554.456 314.269 544.143 320.167 532.896 323.135ZM532.896 323.135C521.985 326.016 510.188 326.153 498.517 322.96C486.845 319.768 476.757 313.671 468.826 305.64C460.634 297.36 454.748 287.035 451.768 275.763C448.887 264.839 448.75 253.043 451.942 241.371C455.122 229.699 461.232 219.599 469.25 211.656V211.643C477.543 203.451 487.843 197.565 499.103 194.585C510.014 191.704 521.81 191.567 533.482 194.759C545.154 197.951 555.241 204.062 563.185 212.08C571.365 220.372 577.263 230.697 580.231 241.957C583.111 252.881 583.249 264.677 580.056 276.349C576.876 288.02 570.766 298.121 562.748 306.064C554.456 314.269 544.143 320.167 532.896 323.135ZM396.664 138.359L469.238 211.656C477.53 203.463 487.83 197.577 499.09 194.597C510.001 191.717 521.798 191.579 533.469 194.772L560.616 95.2382L396.664 138.359ZM52.9232 204.623H70.8048V212.953H52.9232V204.623ZM83.5738 155.305H98.1634H83.5738ZM80.5561 162.076H88.8735V173.349H80.5561V162.076ZM39.7302 186.342V218.876V186.342ZM555.591 269.553C549.53 291.774 526.623 304.867 504.415 298.807C482.206 292.746 469.126 269.815 475.186 247.593C481.246 225.372 504.153 212.279 526.362 218.339C548.57 224.4 561.651 247.332 555.591 269.553ZM447.59 507.151L462.791 451.424L447.59 507.151ZM470.759 422.207L497.906 322.674L470.759 422.207ZM374.742 116.537L334.141 75.5236L374.742 116.537ZM468.203 305.341L394.943 377.964L468.203 305.341ZM373.445 399.3L332.457 439.939L373.445 399.3ZM498.492 194.298L472.255 94.5025L498.492 194.298ZM464.549 65.1986L449.872 9.37163L464.549 65.1986ZM451.144 275.476L351.411 301.725L451.144 275.476ZM322.145 309.431L266.355 324.12L322.145 309.431ZM698.294 77.207L657.319 117.833L698.294 77.207ZM635.808 139.157L562.561 211.793L635.808 139.157ZM696.623 441.61L656.009 400.597L696.623 441.61ZM634.711 379.087L562.125 305.777L634.711 379.087ZM764.421 193.013L708.619 207.703L764.421 193.013ZM679.34 215.409L579.607 241.658L679.34 215.409ZM580.879 507.762L566.202 451.922L580.879 507.762ZM558.509 422.644L532.272 322.836L558.509 422.644ZM567.973 65.6974L583.161 9.98265L567.973 65.6974ZM451.319 241.072L351.848 213.913L451.319 241.072ZM322.644 205.945L266.966 190.744L322.644 205.945ZM763.798 326.402L708.108 311.202L763.798 326.402ZM678.916 303.221L579.445 276.062L678.916 303.221ZM583.174 9.98265C445.969 -27.4764 304.4 53.4521 266.954 190.731C229.52 328.023 310.386 469.692 447.59 507.151C584.795 544.61 726.364 463.694 763.798 326.402C801.244 189.11 720.366 47.4417 583.174 9.98265ZM532.272 322.836C521.361 325.716 509.565 325.853 497.893 322.661C486.222 319.469 476.134 313.371 468.203 305.341C460.01 297.061 454.124 286.736 451.144 275.463C448.264 264.54 448.126 252.743 451.319 241.072C454.499 229.4 460.609 219.3 468.627 211.356V211.344C476.919 203.151 487.219 197.266 498.479 194.285C509.39 191.405 521.187 191.268 532.858 194.46C544.53 197.652 554.618 203.762 562.561 211.78C570.741 220.073 576.64 230.398 579.607 241.658C582.488 252.581 582.625 264.378 579.433 276.049C576.253 287.721 570.143 297.822 562.125 305.765C553.845 313.97 543.532 319.856 532.272 322.836Z" stroke="#1B8FCF" stroke-width="1.3" stroke-miterlimit="10"/>
<path d="M715.888 43.7397L695.85 65.1128" stroke="#1B8FCF" stroke-width="1.3" stroke-miterlimit="10"/>
<path d="M697.258 452.336L715.339 471.589" stroke="#1B8FCF" stroke-width="1.3" stroke-miterlimit="10"/>
<path d="M870.284 392.307C867.067 393.953 863.426 394.876 859.547 394.876C853.587 394.876 848.138 392.669 843.985 389.015L843.698 388.766L798.72 350.609C793.171 346.319 789.592 339.585 789.592 332.041C789.592 329.048 790.153 326.193 791.176 323.562C791.625 324.148 792.149 324.672 792.722 325.133L867.703 390.275C868.438 391.11 869.299 391.796 870.284 392.307Z" fill="white"/>
<path d="M870.284 392.307C867.067 393.953 863.426 394.876 859.547 394.876C853.587 394.876 848.138 392.669 843.985 389.015L843.698 388.766L798.72 350.609C793.171 346.319 789.592 339.585 789.592 332.041C789.592 329.048 790.153 326.193 791.176 323.562C791.625 324.148 792.149 324.672 792.722 325.133L867.703 390.275C868.438 391.11 869.299 391.796 870.284 392.307Z" stroke="black" stroke-width="1.3" stroke-miterlimit="10"/>
<path d="M882.167 372.393C882.167 375.174 881.681 377.83 880.808 380.299C880.447 379.775 880.035 379.301 879.574 378.877L879.125 378.478L879.075 378.441L803.932 312.987L803.907 312.975C803.433 312.476 802.922 312.04 802.349 311.653C805.366 310.256 808.721 309.471 812.262 309.471C817.711 309.471 822.712 311.316 826.702 314.409L828.311 315.78L872.815 353.614L872.865 353.651C878.514 357.953 882.167 364.749 882.167 372.393Z" fill="white"/>
<path d="M882.167 372.393C882.167 375.174 881.681 377.83 880.808 380.299C880.447 379.775 880.035 379.301 879.574 378.877L879.125 378.478L879.075 378.441L803.932 312.987L803.907 312.975C803.433 312.476 802.922 312.04 802.349 311.653C805.366 310.256 808.721 309.471 812.262 309.471C817.711 309.471 822.712 311.316 826.702 314.409L828.311 315.78L872.815 353.614L872.865 353.651C878.514 357.953 882.167 364.749 882.167 372.393Z" stroke="black" stroke-width="1.3" stroke-miterlimit="10"/>
<path d="M801.477 203.429C804.694 205.075 808.335 205.997 812.201 205.997C818.174 205.997 823.61 203.79 827.763 200.137L828.05 199.887L873.028 161.73C878.577 157.44 882.156 150.707 882.156 143.162C882.156 140.17 881.595 137.314 880.572 134.683C880.123 135.269 879.599 135.793 879.026 136.254L804.045 201.396C803.322 202.219 802.462 202.917 801.477 203.429Z" fill="white"/>
<path d="M801.477 203.429C804.694 205.075 808.335 205.997 812.201 205.997C818.174 205.997 823.61 203.79 827.763 200.137L828.05 199.887L873.028 161.73C878.577 157.44 882.156 150.707 882.156 143.162C882.156 140.17 881.595 137.314 880.572 134.683C880.123 135.269 879.599 135.793 879.026 136.254L804.045 201.396C803.322 202.219 802.462 202.917 801.477 203.429Z" stroke="black" stroke-width="1.3" stroke-miterlimit="10"/>
<path d="M789.592 183.514C789.592 186.295 790.066 188.951 790.952 191.42C791.313 190.896 791.725 190.423 792.186 189.999L792.635 189.6L792.685 189.562L867.827 124.109L867.84 124.096C868.314 123.597 868.825 123.161 869.399 122.774C866.381 121.378 863.027 120.592 859.485 120.592C854.048 120.592 849.036 122.438 845.045 125.53L843.437 126.902L798.932 164.735L798.882 164.772C793.246 169.074 789.592 175.87 789.592 183.514Z" fill="white"/>
<path d="M789.592 183.514C789.592 186.295 790.066 188.951 790.952 191.42C791.313 190.896 791.725 190.423 792.186 189.999L792.635 189.6L792.685 189.562L867.827 124.109L867.84 124.096C868.314 123.597 868.825 123.161 869.399 122.774C866.381 121.378 863.027 120.592 859.485 120.592C854.048 120.592 849.036 122.438 845.045 125.53L843.437 126.902L798.932 164.735L798.882 164.772C793.246 169.074 789.592 175.87 789.592 183.514Z" stroke="black" stroke-width="1.3" stroke-miterlimit="10"/>
<path d="M821.291 264.755C822.575 268.321 824.645 271.626 827.501 274.357C831.902 278.571 837.414 280.691 842.913 280.754L843.3 280.766L902.057 282.599C909.028 283.148 916.173 280.392 921.223 274.469C923.218 272.125 924.727 269.481 925.725 266.7C925.001 266.837 924.266 266.887 923.53 266.85L824.558 265.004C823.46 265.117 822.363 265.042 821.291 264.755Z" fill="white"/>
<path d="M821.291 264.755C822.575 268.321 824.645 271.626 827.501 274.357C831.902 278.571 837.414 280.691 842.913 280.754L843.3 280.766L902.057 282.599C909.028 283.148 916.173 280.392 921.223 274.469C923.218 272.125 924.727 269.481 925.725 266.7C925.001 266.837 924.266 266.887 923.53 266.85L824.558 265.004C823.46 265.117 822.363 265.042 821.291 264.755Z" stroke="black" stroke-width="1.3" stroke-miterlimit="10"/>
<path d="M824.931 243.019C823.035 245.238 821.589 247.695 820.566 250.301C821.19 250.139 821.826 250.064 822.462 250.052L823.073 250.064L823.135 250.077L924.202 251.673H924.227C924.913 251.61 925.611 251.623 926.297 251.748C924.988 248.468 923.005 245.438 920.337 242.907C916.247 239.004 911.234 236.896 906.121 236.497L903.976 236.435L844.745 234.751H844.683C837.513 234.103 830.143 236.909 824.931 243.019Z" fill="white"/>
<path d="M824.931 243.019C823.035 245.238 821.589 247.695 820.566 250.301C821.19 250.139 821.826 250.064 822.462 250.052L823.073 250.064L823.135 250.077L924.202 251.673H924.227C924.913 251.61 925.611 251.623 926.297 251.748C924.988 248.468 923.005 245.438 920.337 242.907C916.247 239.004 911.234 236.896 906.121 236.497L903.976 236.435L844.745 234.751H844.683C837.513 234.103 830.143 236.909 824.931 243.019Z" stroke="black" stroke-width="1.3" stroke-miterlimit="10"/>
<path d="M78.5321 357.007H101.102M44.0158 329.461V296.84M100.466 330.01H44.0158M1027.8 219.478H951.85H929.292V202.419V143.026M1029.87 295.207H953.907H931.362V312.265V371.758M1.56885 295.98H77.522H100.08V312.34V369.888M57.1839 310.17H75.0405V301.865H57.1839V310.17ZM84.7794 350.236H93.0842V338.988H84.7794V350.236Z" stroke="#2D9CE5" stroke-width="1.3" stroke-miterlimit="10"/>
<path d="M929.941 180.795H982.813" stroke="#1B8FCF" stroke-width="1.3" stroke-miterlimit="10"/>
<path d="M945.157 160.281H935.705V172.664H945.157V160.281Z" stroke="#1B8FCF" stroke-width="1.3" stroke-miterlimit="10"/>
<path d="M945.591 153.759H929.293" stroke="#1B8FCF" stroke-width="1.3" stroke-miterlimit="10"/>
<path d="M975.147 205.11H956.156V214.562H975.147V205.11Z" stroke="#1B8FCF" stroke-width="1.3" stroke-miterlimit="10"/>
<path d="M930.965 328.062H987.428" stroke="#1B8FCF" stroke-width="1.3" stroke-miterlimit="10"/>
<path d="M947.239 336.528H937.787V348.91H947.239V336.528Z" stroke="#1B8FCF" stroke-width="1.3" stroke-miterlimit="10"/>
<path d="M955.132 355.095H931.364" stroke="#1B8FCF" stroke-width="1.3" stroke-miterlimit="10"/>
<path d="M47.4253 181.602H98.0399H47.4253ZM116.957 364.109H114.986C109.462 364.109 104.973 359.608 104.973 354.058V330.927C104.973 325.378 109.45 320.877 114.986 320.877H116.957C122.481 320.877 126.97 325.378 126.97 330.927V354.058C126.97 359.608 122.481 364.109 116.957 364.109ZM116.957 193.124H114.986C109.462 193.124 104.973 188.623 104.973 183.073V159.942C104.973 154.393 109.45 149.892 114.986 149.892H116.957C122.481 149.892 126.97 154.393 126.97 159.942V183.073C126.97 188.623 122.481 193.124 116.957 193.124ZM974.837 308.544H956.968V300.189H974.837V308.544Z" stroke="#1B8FCF" stroke-width="1.3" stroke-miterlimit="10"/>
<path d="M515.375 516.242C657.589 516.242 772.875 400.877 772.875 258.568C772.875 116.258 657.589 0.893066 515.375 0.893066C373.162 0.893066 257.875 116.258 257.875 258.568C257.875 400.877 373.162 516.242 515.375 516.242Z" fill="white" stroke="#1B8FCF" stroke-width="1.3" stroke-miterlimit="10"/>
<path d="M555.588 269.553C549.528 291.774 526.621 304.868 504.412 298.807C482.204 292.747 469.123 269.815 475.183 247.594C481.244 225.373 504.151 212.28 526.359 218.34C548.568 224.4 561.649 247.332 555.588 269.553Z" fill="white" stroke="#1B8FCF" stroke-width="1.3" stroke-miterlimit="10"/>
<path d="M447.588 507.151L462.789 451.437" stroke="#1B8FCF" stroke-width="1.3" stroke-miterlimit="10"/>
<path d="M470.759 422.207L497.905 322.674" stroke="#1B8FCF" stroke-width="1.3" stroke-miterlimit="10"/>
<path d="M374.741 116.537L334.139 75.5237" stroke="#1B8FCF" stroke-width="1.3" stroke-miterlimit="10"/>
<path d="M468.202 305.342L394.942 377.978" stroke="#1B8FCF" stroke-width="1.3" stroke-miterlimit="10"/>
<path d="M373.445 399.301L332.457 439.94" stroke="#1B8FCF" stroke-width="1.3" stroke-miterlimit="10"/>
<path d="M498.49 194.298L472.254 94.4905" stroke="#1B8FCF" stroke-width="1.3" stroke-miterlimit="10"/>
<path d="M464.549 65.1986L449.872 9.37164" stroke="#1B8FCF" stroke-width="1.3" stroke-miterlimit="10"/>
<path d="M451.143 275.477L351.41 301.726" stroke="#1B8FCF" stroke-width="1.3" stroke-miterlimit="10"/>
<path d="M322.143 309.433L266.341 324.11" stroke="#1B8FCF" stroke-width="1.3" stroke-miterlimit="10"/>
<path d="M698.295 77.2078L657.319 117.834" stroke="#1B8FCF" stroke-width="1.3" stroke-miterlimit="10"/>
<path d="M635.808 139.157L562.561 211.793" stroke="#1B8FCF" stroke-width="1.3" stroke-miterlimit="10"/>
<path d="M696.622 441.61L656.008 400.597" stroke="#1B8FCF" stroke-width="1.3" stroke-miterlimit="10"/>
<path d="M634.711 379.088L562.125 305.778" stroke="#1B8FCF" stroke-width="1.3" stroke-miterlimit="10"/>
<path d="M764.421 193.015L708.619 207.705" stroke="#1B8FCF" stroke-width="1.3" stroke-miterlimit="10"/>
<path d="M679.34 215.41L579.607 241.671" stroke="#1B8FCF" stroke-width="1.3" stroke-miterlimit="10"/>
<path d="M580.878 507.762L566.213 451.935" stroke="#1B8FCF" stroke-width="1.3" stroke-miterlimit="10"/>
<path d="M558.507 422.644L532.271 322.836" stroke="#1B8FCF" stroke-width="1.3" stroke-miterlimit="10"/>
<path d="M567.972 65.6985L583.172 9.9837" stroke="#1B8FCF" stroke-width="1.3" stroke-miterlimit="10"/>
<path d="M451.317 241.073L351.846 213.914" stroke="#1B8FCF" stroke-width="1.3" stroke-miterlimit="10"/>
<path d="M322.643 205.945L266.953 190.732" stroke="#1B8FCF" stroke-width="1.3" stroke-miterlimit="10"/>
<path d="M763.796 326.402L708.118 311.202" stroke="#1B8FCF" stroke-width="1.3" stroke-miterlimit="10"/>
<path d="M678.919 303.221L579.448 276.062" stroke="#1B8FCF" stroke-width="1.3" stroke-miterlimit="10"/>
<path d="M532.273 322.838C521.362 325.718 509.566 325.855 497.894 322.663C486.222 319.471 476.134 313.373 468.204 305.343C460.011 297.063 454.125 286.738 451.145 275.465C448.265 264.542 448.127 252.745 451.32 241.074C454.499 229.402 460.61 219.302 468.628 211.358V211.346C476.92 203.153 487.22 197.268 498.48 194.287C509.391 191.407 521.188 191.27 532.859 194.462C544.531 197.654 554.619 203.764 562.562 211.782C570.742 220.075 576.64 230.4 579.608 241.66C582.489 252.583 582.626 264.38 579.434 276.051C576.254 287.723 570.144 297.824 562.126 305.767C553.846 313.972 543.533 319.858 532.273 322.838Z" stroke="#1B8FCF" stroke-width="1.3" stroke-miterlimit="10"/>
<path d="M396.052 138.061L468.625 211.358C476.918 203.165 487.218 197.28 498.478 194.299C509.389 191.419 521.185 191.282 532.857 194.474L560.004 94.9406" stroke="#1B8FCF" stroke-width="1.3" stroke-miterlimit="10"/>
</svg>
