<svg width="518" height="518" viewBox="0 0 518 518" fill="none" xmlns="http://www.w3.org/2000/svg">
<path d="M325.615 480.27C315.195 486.436 303.778 489.443 292.472 489.553C280.819 489.678 269.291 486.713 259.121 481.018C249.269 475.489 240.692 467.355 234.526 456.935C228.361 446.515 225.354 435.097 225.243 423.79C225.132 412.123 228.083 400.608 233.792 390.437C239.321 380.585 247.44 372.008 257.874 365.842C268.293 359.675 279.71 356.668 291.017 356.558C302.67 356.447 314.198 359.398 324.368 365.107C334.22 370.636 342.796 378.77 348.962 389.19C355.128 399.61 358.135 411.028 358.246 422.335C358.356 433.988 355.405 445.517 349.71 455.674" fill="white"/>
<path d="M325.615 480.27C315.195 486.436 303.778 489.443 292.472 489.553C280.819 489.678 269.291 486.713 259.121 481.018C249.269 475.489 240.692 467.355 234.526 456.935C228.361 446.515 225.354 435.097 225.243 423.79C225.132 412.123 228.083 400.608 233.792 390.437C239.321 380.585 247.44 372.008 257.874 365.842C268.293 359.675 279.71 356.668 291.017 356.558C302.67 356.447 314.198 359.398 324.368 365.107C334.22 370.636 342.796 378.77 348.962 389.19C355.128 399.61 358.135 411.028 358.246 422.335C358.356 433.988 355.405 445.517 349.71 455.674" stroke="black" stroke-miterlimit="10"/>
<path d="M324.562 478.468C308.725 487.78 289.548 489.969 272.034 484.371C255.601 479.119 241.884 467.244 234.138 451.85C231.866 447.346 230.162 442.566 229.012 437.647C228.444 435.222 228 432.769 227.737 430.303C227.612 429.097 227.501 427.891 227.446 426.686C227.377 425.522 227.668 423.748 227.058 422.737C227.155 423.083 227.252 423.444 227.349 423.79C227.252 408.492 232.545 393.305 242.452 381.596C252.373 369.874 266.326 361.962 281.484 359.454C296.864 356.918 312.978 360.313 326.141 368.599C338.764 376.539 348.408 388.954 353.008 403.144C357.871 418.164 357.054 434.82 350.597 449.245C349.78 451.074 348.879 452.861 347.895 454.607C346.579 456.963 350.195 459.083 351.512 456.713C359.77 441.873 362.389 424.275 358.606 407.702C354.989 391.864 345.609 377.661 332.612 367.962C319.463 358.137 302.683 353.329 286.32 354.659C269.873 356.003 254.174 363.32 242.632 375.139C231.27 386.779 224.412 402.354 223.303 418.566C223.234 419.619 223.178 420.672 223.165 421.711C223.137 422.668 222.929 423.97 223.442 424.815C223.345 424.469 223.248 424.109 223.151 423.762C223.386 442.427 231.367 460.593 245.057 473.3C258.719 485.978 277.466 492.685 296.074 491.48C306.868 490.787 317.343 487.517 326.668 482.043C328.996 480.713 326.89 477.096 324.562 478.468Z" fill="black"/>
<path d="M324.562 478.468C308.725 487.78 289.548 489.969 272.034 484.371C255.601 479.119 241.884 467.244 234.138 451.85C231.866 447.346 230.162 442.566 229.012 437.647C228.444 435.222 228 432.769 227.737 430.303C227.612 429.097 227.501 427.891 227.446 426.686C227.377 425.522 227.668 423.748 227.058 422.737C227.155 423.083 227.252 423.444 227.349 423.79C227.252 408.492 232.545 393.305 242.452 381.596C252.373 369.874 266.326 361.962 281.484 359.454C296.864 356.918 312.978 360.313 326.141 368.599C338.764 376.539 348.408 388.954 353.008 403.144C357.871 418.164 357.054 434.82 350.597 449.245C349.78 451.074 348.879 452.861 347.895 454.607C346.579 456.963 350.195 459.083 351.512 456.713C359.77 441.873 362.389 424.275 358.606 407.702C354.989 391.864 345.609 377.661 332.612 367.962C319.463 358.137 302.683 353.329 286.32 354.659C269.873 356.003 254.174 363.32 242.632 375.139C231.27 386.779 224.412 402.354 223.303 418.566C223.234 419.619 223.178 420.672 223.165 421.711C223.137 422.668 222.929 423.97 223.442 424.815C223.345 424.469 223.248 424.109 223.151 423.762C223.386 442.427 231.367 460.593 245.057 473.3C258.719 485.978 277.466 492.685 296.074 491.48C306.868 490.787 317.343 487.517 326.668 482.043C328.996 480.713 326.89 477.096 324.562 478.468Z" stroke="black" stroke-miterlimit="10"/>
<path d="M296.421 36.3585H319.768M258.719 36.3585H389.906" stroke="black" stroke-miterlimit="10"/>
<path d="M516.674 258.577C516.674 401.051 401.185 516.532 258.733 516.532C116.28 516.532 0.791505 401.037 0.791505 258.577C0.777649 116.117 116.266 0.622314 258.719 0.622314C401.171 0.622314 516.674 116.117 516.674 258.577Z" fill="white"/>
<path d="M258.719 516.532C401.176 516.532 516.66 401.042 516.66 258.577C516.66 116.113 401.176 0.622314 258.719 0.622314C116.262 0.622314 0.77771 116.113 0.77771 258.577C0.77771 401.042 116.262 516.532 258.719 516.532Z" stroke="black" stroke-miterlimit="10"/>
<path d="M325.005 258.425C325.005 270.536 321.777 281.884 316.11 291.653C310.277 301.727 301.866 310.138 291.793 315.971C282.024 321.625 270.676 324.867 258.566 324.867C246.47 324.867 235.122 321.639 225.34 315.971C215.253 310.138 206.842 301.727 201.009 291.653C195.356 281.884 192.114 270.536 192.114 258.425H0.763794C0.77765 116.048 116.197 0.622314 258.566 0.622314V22.1832" fill="white"/>
<path d="M325.005 258.425C325.005 270.536 321.777 281.884 316.11 291.653C310.277 301.727 301.866 310.138 291.793 315.971C282.024 321.625 270.676 324.867 258.566 324.867C246.47 324.867 235.122 321.639 225.34 315.971C215.253 310.138 206.842 301.727 201.009 291.653C195.356 281.884 192.114 270.536 192.114 258.425H0.763794C0.77765 116.048 116.197 0.622314 258.566 0.622314V22.1832" stroke="black" stroke-miterlimit="10"/>
<path d="M258.719 217.091C281.637 217.091 300.217 235.672 300.217 258.591Z" fill="white"/>
<path d="M258.719 217.091C281.637 217.091 300.217 235.672 300.217 258.591" stroke="black" stroke-miterlimit="10"/>
<path d="M217.22 258.591C217.22 235.672 235.801 217.091 258.719 217.091Z" fill="white"/>
<path d="M217.22 258.591C217.22 235.672 235.801 217.091 258.719 217.091" stroke="black" stroke-miterlimit="10"/>
<path d="M258.719 300.092C235.801 300.092 217.22 281.51 217.22 258.591Z" fill="white"/>
<path d="M258.719 300.092C235.801 300.092 217.22 281.51 217.22 258.591" stroke="black" stroke-miterlimit="10"/>
<path d="M300.217 258.591C300.217 281.51 281.637 300.092 258.719 300.092Z" fill="white"/>
<path d="M300.217 258.591C300.217 281.51 281.637 300.092 258.719 300.092" stroke="black" stroke-miterlimit="10"/>
<path d="M192.446 258.591C192.446 249.501 194.095 240.827 197.074 232.929Z" fill="white"/>
<path d="M192.446 258.591C192.446 249.501 194.095 240.827 197.074 232.929" stroke="black" stroke-miterlimit="10"/>
<path d="M318.895 229.7C322.816 238.43 324.992 248.24 324.992 258.591Z" fill="white"/>
<path d="M318.895 229.7C322.816 238.43 324.992 248.24 324.992 258.591" stroke="black" stroke-miterlimit="10"/>
<path d="M258.733 192.301C249.103 192.301 239.972 194.158 231.714 197.525Z" fill="white"/>
<path d="M258.733 192.301C249.103 192.301 239.972 194.158 231.714 197.525" stroke="black" stroke-miterlimit="10"/>
<path d="M258.996 21.9477V191.788C268.501 191.788 277.535 193.839 285.696 197.539" fill="white"/>
<path d="M258.996 21.9477V191.788C268.501 191.788 277.535 193.839 285.696 197.539" stroke="black" stroke-miterlimit="10"/>
<path d="M300.868 258.591C300.868 281.51 282.288 300.092 259.37 300.092C236.452 300.092 217.872 281.51 217.872 258.591C217.872 235.672 236.452 217.091 259.37 217.091C282.288 217.091 300.868 235.658 300.868 258.591Z" fill="white"/>
<path d="M300.868 258.591C300.868 281.51 282.288 300.092 259.37 300.092C236.452 300.092 217.872 281.51 217.872 258.591C217.872 235.672 236.452 217.091 259.37 217.091C282.288 217.091 300.868 235.658 300.868 258.591Z" stroke="black" stroke-miterlimit="10"/>
<path d="M258.996 495.221V325.145C271.023 325.145 282.288 321.902 292.001 316.235C302.018 310.387 310.373 301.962 316.165 291.875C321.791 282.078 324.991 270.716 324.991 258.591" fill="white"/>
<path d="M258.996 495.221V325.145C271.023 325.145 282.288 321.902 292.001 316.235C302.018 310.387 310.373 301.962 316.165 291.875C321.791 282.078 324.991 270.716 324.991 258.591" stroke="black" stroke-miterlimit="10"/>
<path d="M258.733 22.1832V0.622314C401.185 0.622314 516.66 116.048 516.66 258.425H325.213C325.213 270.536 321.985 281.87 316.318 291.653C310.484 301.727 302.074 310.138 291.973 315.971C282.191 321.625 270.843 324.867 258.733 324.867C246.623 324.867 235.275 321.639 225.492 315.971C215.391 310.138 206.981 301.727 201.148 291.653C195.494 281.87 192.252 270.536 192.252 258.425H22.3789C22.3789 127.951 128.196 22.1832 258.733 22.1832V191.969Z" fill="white"/>
<path d="M258.733 22.1832V0.622314C401.185 0.622314 516.66 116.048 516.66 258.425H325.213C325.213 270.536 321.985 281.87 316.318 291.653C310.484 301.727 302.074 310.138 291.973 315.971C282.191 321.625 270.843 324.867 258.733 324.867C246.623 324.867 235.275 321.639 225.492 315.971C215.391 310.138 206.981 301.727 201.148 291.653C195.494 281.87 192.252 270.536 192.252 258.425H22.3789C22.3789 127.951 128.196 22.1832 258.733 22.1832ZM258.733 22.1832V191.969" stroke="black" stroke-miterlimit="10"/>
<path d="M375.48 305.67L347.638 341.578L425.079 401.629L452.92 365.721L375.48 305.67Z" fill="white"/>
<path d="M375.48 305.67L347.638 341.578L425.079 401.629L452.92 365.721L375.48 305.67Z" stroke="black" stroke-miterlimit="10"/>
<path d="M238.101 472.15V489.886C120.977 489.886 26.0369 394.94 26.0369 277.81H43.7724" fill="white"/>
<path d="M238.101 472.15V489.886C120.977 489.886 26.0369 394.94 26.0369 277.81H43.7724" stroke="black" stroke-miterlimit="10"/>
<path d="M238.129 472.205L238.143 332.433" stroke="black" stroke-miterlimit="10"/>
<path d="M43.7033 278.184C44.2853 278.184 44.2853 277.284 43.7033 277.284C43.1214 277.284 43.1214 278.184 43.7033 278.184Z" fill="black"/>
<path d="M43.7033 278.184C44.2853 278.184 44.2853 277.284 43.7033 277.284C43.1214 277.284 43.1214 278.184 43.7033 278.184Z" stroke="black" stroke-miterlimit="10"/>
<path d="M238.157 332.89C238.739 332.89 238.739 331.99 238.157 331.99C237.575 331.976 237.575 332.89 238.157 332.89Z" fill="black"/>
<path d="M238.157 332.89C238.739 332.89 238.739 331.99 238.157 331.99C237.575 331.976 237.575 332.89 238.157 332.89Z" stroke="black" stroke-miterlimit="10"/>
<path d="M43.7034 277.81H183.412V299.773H47.7631C47.7631 299.773 59.1666 453.748 217.525 466.247V332.475H194.372L195.342 442.122C195.342 442.122 89.5248 430.718 78.1491 320.35H171.247V341.828H101.524C101.524 341.828 112.193 399.388 173.99 415.614V361.643H130.233C130.233 361.643 136.275 384.797 155.936 387.07" fill="white"/>
<path d="M43.7034 277.81H183.412V299.773H47.7631C47.7631 299.773 59.1666 453.748 217.525 466.247V332.475H194.372L195.342 442.122C195.342 442.122 89.5248 430.718 78.1491 320.35H171.247V341.828H101.524C101.524 341.828 112.193 399.388 173.99 415.614V361.643H130.233C130.233 361.643 136.275 384.797 155.936 387.07" stroke="black" stroke-miterlimit="10"/>
<path d="M390.267 331.92L425.405 359.149L412.755 375.43L377.616 348.202L390.267 331.92Z" fill="white"/>
<path d="M390.267 331.92L425.405 359.149L412.755 375.43L377.616 348.202L390.267 331.92Z" stroke="black" stroke-miterlimit="10"/>
<path d="M372.711 257.829V192.301H508.014V257.829" fill="white"/>
<path d="M372.711 257.829V192.301H508.014V257.829" stroke="black" stroke-miterlimit="10"/>
<path d="M372.24 25.592V144.939" stroke="black" stroke-miterlimit="10"/>
<path d="M325.172 259.603C325.172 296.226 295.492 325.907 258.871 325.907C222.264 325.907 192.571 296.226 192.571 259.603C192.571 222.993 222.25 193.299 258.871 193.299C295.492 193.313 325.172 222.993 325.172 259.603Z" fill="white"/>
<path d="M305.754 306.489C331.645 280.596 331.645 238.615 305.754 212.722C279.862 186.829 237.883 186.829 211.992 212.722C186.1 238.615 186.1 280.596 211.992 306.489C237.883 332.382 279.862 332.382 305.754 306.489Z" stroke="black" stroke-miterlimit="10"/>
<path d="M192.598 259.617C192.598 250.527 194.247 241.852 197.226 233.954Z" fill="white"/>
<path d="M192.598 259.617C192.598 250.527 194.247 241.852 197.226 233.954" stroke="black" stroke-miterlimit="10"/>
<path d="M319.061 230.725C322.982 239.455 325.158 249.266 325.158 259.617Z" fill="white"/>
<path d="M319.061 230.725C322.982 239.455 325.158 249.266 325.158 259.617" stroke="black" stroke-miterlimit="10"/>
<path d="M258.885 193.326C249.255 193.326 240.124 195.183 231.866 198.55Z" fill="white"/>
<path d="M258.885 193.326C249.255 193.326 240.124 195.183 231.866 198.55" stroke="black" stroke-miterlimit="10"/>
<path d="M258.885 193.326C268.501 193.326 277.632 195.183 285.876 198.55Z" fill="white"/>
<path d="M258.885 193.326C268.501 193.326 277.632 195.183 285.876 198.55" stroke="black" stroke-miterlimit="10"/>
<path d="M316.775 292.775C322.109 283.02 325.158 271.7 325.158 259.617Z" fill="white"/>
<path d="M316.775 292.775C322.109 283.02 325.158 271.7 325.158 259.617" stroke="black" stroke-miterlimit="10"/>
<path d="M292.306 317.025C302.254 311.26 310.54 302.974 316.29 293.039Z" fill="white"/>
<path d="M292.306 317.025C302.254 311.26 310.54 302.974 316.29 293.039" stroke="black" stroke-miterlimit="10"/>
<path d="M258.885 325.893C270.967 325.893 282.288 322.844 292.042 317.51Z" fill="white"/>
<path d="M258.885 325.893C270.967 325.893 282.288 322.844 292.042 317.51" stroke="black" stroke-miterlimit="10"/>
<path d="M225.728 317.51C235.482 322.844 246.803 325.893 258.885 325.893Z" fill="white"/>
<path d="M225.728 317.51C235.482 322.844 246.803 325.893 258.885 325.893" stroke="black" stroke-miterlimit="10"/>
<path d="M201.48 293.039C207.23 302.988 215.516 311.274 225.479 317.025Z" fill="white"/>
<path d="M201.48 293.039C207.23 302.988 215.516 311.274 225.479 317.025" stroke="black" stroke-miterlimit="10"/>
<path d="M192.598 259.617C192.598 271.7 195.647 283.02 200.981 292.775Z" fill="white"/>
<path d="M192.598 259.617C192.598 271.7 195.647 283.02 200.981 292.775" stroke="black" stroke-miterlimit="10"/>
<path d="M300.383 259.603C300.383 282.522 281.803 301.103 258.885 301.103C235.967 301.103 217.387 282.522 217.387 259.603C217.387 236.684 235.967 218.102 258.885 218.102C281.803 218.116 300.383 236.684 300.383 259.603Z" fill="white"/>
<path d="M300.383 259.603C300.383 282.522 281.803 301.103 258.885 301.103C235.967 301.103 217.387 282.522 217.387 259.603C217.387 236.684 235.967 218.102 258.885 218.102C281.803 218.116 300.383 236.684 300.383 259.603Z" stroke="black" stroke-miterlimit="10"/>
<path d="M331.892 69.1156H289.465C284.172 69.1156 279.877 64.8616 279.877 59.6238V50.3676C279.877 45.1298 284.172 40.8758 289.465 40.8758H331.892C337.185 40.8758 341.48 45.1298 341.48 50.3676V59.61C341.48 64.8616 337.185 69.1156 331.892 69.1156Z" fill="white"/>
<path d="M331.892 69.1156H289.465C284.172 69.1156 279.877 64.8616 279.877 59.6238V50.3676C279.877 45.1298 284.172 40.8758 289.465 40.8758H331.892C337.185 40.8758 341.48 45.1298 341.48 50.3676V59.61C341.48 64.8616 337.185 69.1156 331.892 69.1156Z" stroke="black" stroke-miterlimit="10"/>
<path d="M310.71 30.8124C314.181 29.3744 315.829 25.3944 314.392 21.9229C312.954 18.4513 308.974 16.8027 305.502 18.2407C302.031 19.6787 300.383 23.6588 301.821 27.1303C303.258 30.6019 307.238 32.2504 310.71 30.8124Z" stroke="black" stroke-miterlimit="10"/>
<path d="M298.541 88.4872C298.541 92.2423 295.492 95.2908 291.737 95.2908C287.982 95.2908 284.934 92.2423 284.934 88.4872C284.934 84.7321 287.982 81.6836 291.737 81.6836C295.492 81.6836 298.541 84.7182 298.541 88.4872Z" fill="white"/>
<path d="M294.361 94.7585C297.833 93.3205 299.481 89.3405 298.043 85.8689C296.605 82.3973 292.625 80.7488 289.154 82.1868C285.683 83.6248 284.034 87.6048 285.472 91.0764C286.91 94.548 290.89 96.1965 294.361 94.7585Z" stroke="black" stroke-miterlimit="10"/>
<path d="M328.926 88.4872C328.926 92.2423 325.878 95.2908 322.123 95.2908C318.368 95.2908 315.32 92.2423 315.32 88.4872C315.32 84.7321 318.368 81.6836 322.123 81.6836C325.878 81.6836 328.926 84.7182 328.926 88.4872Z" fill="white"/>
<path d="M324.748 94.7582C328.219 93.3202 329.868 89.3402 328.43 85.8687C326.992 82.3971 323.012 80.7485 319.541 82.1865C316.069 83.6245 314.421 87.6046 315.859 91.0761C317.297 94.5477 321.276 96.1962 324.748 94.7582Z" stroke="black" stroke-miterlimit="10"/>
<path d="M451.219 162.468H397.707C392.4 162.468 388.105 158.186 388.105 152.907V128.242C388.105 122.962 392.4 118.681 397.707 118.681H451.219C456.525 118.681 460.821 122.962 460.821 128.242V152.907C460.834 158.186 456.525 162.468 451.219 162.468Z" fill="white"/>
<path d="M451.219 162.468H397.707C392.4 162.468 388.105 158.186 388.105 152.907V128.242C388.105 122.962 392.4 118.681 397.707 118.681H451.219C456.525 118.681 460.821 122.962 460.821 128.242V152.907C460.834 158.186 456.525 162.468 451.219 162.468Z" stroke="black" stroke-miterlimit="10"/>
<path d="M441.284 156.44H407.67C402.377 156.44 398.095 152.186 398.095 146.921V134.242C398.095 128.99 402.391 124.722 407.67 124.722H441.284C446.577 124.722 450.858 128.976 450.858 134.242V146.921C450.858 152.172 446.563 156.44 441.284 156.44Z" fill="white"/>
<path d="M441.284 156.44H407.67C402.377 156.44 398.095 152.186 398.095 146.921V134.242C398.095 128.99 402.391 124.722 407.67 124.722H441.284C446.577 124.722 450.858 128.976 450.858 134.242V146.921C450.858 152.172 446.563 156.44 441.284 156.44Z" stroke="black" stroke-miterlimit="10"/>
<path d="M437.072 192.024V258.577" stroke="black" stroke-miterlimit="10"/>
<path d="M489.807 224.961H474.413V250.43H489.807V224.961Z" fill="white"/>
<path d="M489.807 224.961H474.413V250.43H489.807V224.961Z" stroke="black" stroke-width="0.75" stroke-miterlimit="10"/>
<path d="M417.189 199.077H385.029V216.536H417.189V199.077Z" fill="white"/>
<path d="M417.189 199.077H385.029V216.536H417.189V199.077Z" stroke="black" stroke-miterlimit="10"/>
</svg>
