<svg width="82" height="269" viewBox="0 0 82 269" fill="none" xmlns="http://www.w3.org/2000/svg">
<path d="M75.3459 151.506C65.8846 170.701 42.6582 178.585 23.4628 169.124C4.26751 159.663 -3.61692 136.436 5.8444 117.241C15.3176 98.0456 38.544 90.1612 57.7394 99.6225C76.9347 109.084 84.8073 132.31 75.3459 151.506Z" stroke="#2D9CE5" stroke-width="2.5" stroke-miterlimit="10"/>
<path d="M49.1422 140.74L64.093 155.762L49.1422 140.74ZM53.0074 130.805C53.0074 138.974 46.3797 145.601 38.2107 145.601C30.0417 145.601 23.4141 138.986 23.4141 130.805C23.4141 122.624 30.0417 116.02 38.2107 116.02C46.3797 116.008 53.0074 122.636 53.0074 130.805Z" stroke="#2D9CE5" stroke-width="2.5" stroke-miterlimit="10"/>
<path d="M75.6849 58.0557C66.1761 77.334 42.8429 85.254 23.5646 75.7453C4.28631 66.2484 -3.64555 42.9152 5.86319 23.6369C15.3719 4.35857 38.7051 -3.57328 57.9834 5.93546C77.2617 15.4442 85.1936 38.7774 75.6849 58.0557Z" stroke="#2D9CE5" stroke-width="2.5" stroke-miterlimit="10"/>
<path d="M22.4523 28.0946L59.1 28.0946L22.4523 28.0946ZM71.81 40.769C71.81 47.7642 66.119 53.4434 59.1 53.4434C52.0811 53.4434 46.3901 47.7642 46.3901 40.769C46.3901 33.7738 52.0811 28.0946 59.1 28.0946C66.119 28.0946 71.81 33.7619 71.81 40.769ZM35.1503 40.769C35.1503 47.7642 29.4593 53.4434 22.4404 53.4434C15.4215 53.4434 9.73047 47.7642 9.73047 40.769C9.73047 33.7738 15.4215 28.0946 22.4404 28.0946C29.4712 28.0946 35.1503 33.7619 35.1503 40.769Z" stroke="#2D9CE5" stroke-width="2.5" stroke-miterlimit="10"/>
<path d="M75.7983 245.209C66.2777 264.511 42.9089 272.454 23.5951 262.934C4.28117 253.413 -3.65068 230.044 5.86991 210.731C15.4024 191.417 38.7711 183.485 58.0731 193.005C77.387 202.526 85.3189 225.895 75.7983 245.209Z" stroke="#2D9CE5" stroke-width="2.5" stroke-miterlimit="10"/>
<path d="M64.2728 222.077V235C64.2728 236.648 62.933 237.976 61.2968 237.976H53.2701C51.6221 237.976 50.2942 239.304 50.2942 240.952V248.979C50.2942 250.627 48.9663 251.955 47.3183 251.955H34.3949C32.7469 251.955 31.419 250.627 31.419 248.979V240.952C31.419 239.304 30.0911 237.976 28.4431 237.976H20.4045C18.7565 237.976 17.4286 236.636 17.4286 235V222.077C17.4286 220.429 18.7565 219.101 20.4045 219.101H28.4431C30.0911 219.101 31.419 217.773 31.419 216.125V208.086C31.419 206.438 32.7588 205.11 34.3949 205.11H47.3183C48.9663 205.11 50.2942 206.438 50.2942 208.086V216.125C50.2942 217.773 51.634 219.101 53.2701 219.101H61.2968C62.9449 219.089 64.2728 220.429 64.2728 222.077Z" stroke="#2D9CE5" stroke-width="2.5" stroke-miterlimit="10"/>
</svg>
