<svg width="518" height="518" viewBox="0 0 518 518" fill="none" xmlns="http://www.w3.org/2000/svg">
<path d="M259.093 0.806274C401.55 0.806274 517.048 116.305 517.048 258.761C517.048 401.231 401.563 516.716 259.093 516.716C116.623 516.716 1.13831 401.231 1.13831 258.761C1.13831 116.305 116.623 0.806274 259.093 0.806274Z" fill="white"/>
<path d="M259.093 0.806274C401.55 0.806274 517.048 116.305 517.048 258.761C517.048 401.231 401.563 516.716 259.093 516.716C116.623 516.716 1.13831 401.231 1.13831 258.761C1.13831 116.305 116.623 0.806274 259.093 0.806274Z" stroke="black" stroke-miterlimit="10"/>
<path d="M516.826 258.761C516.826 401.107 401.439 516.494 259.093 516.494C116.748 516.494 1.36023 401.107 1.36023 258.761C1.36023 116.416 116.748 1.0282 259.093 1.0282C401.439 1.0282 516.826 116.416 516.826 258.761Z" stroke="black" stroke-miterlimit="10"/>
<path d="M326.293 258.761C326.293 295.883 296.202 325.975 259.08 325.975C221.957 325.975 191.88 295.883 191.88 258.761C191.88 221.639 221.971 191.562 259.08 191.562C296.215 191.562 326.293 221.639 326.293 258.761Z" fill="white"/>
<path d="M259.093 325.975C296.214 325.975 326.307 295.882 326.307 258.761C326.307 221.64 296.214 191.548 259.093 191.548C221.972 191.548 191.88 221.64 191.88 258.761C191.88 295.882 221.972 325.975 259.093 325.975Z" stroke="black" stroke-miterlimit="10"/>
<path d="M300.695 258.761C300.695 281.739 282.071 300.362 259.093 300.362C236.116 300.362 217.492 281.739 217.492 258.761C217.492 235.784 236.116 217.16 259.093 217.16C282.071 217.16 300.695 235.784 300.695 258.761Z" fill="white"/>
<path d="M300.695 258.761C300.695 281.739 282.071 300.362 259.093 300.362C236.116 300.362 217.492 281.739 217.492 258.761C217.492 235.784 236.116 217.16 259.093 217.16C282.071 217.16 300.695 235.784 300.695 258.761Z" stroke="black" stroke-miterlimit="10"/>
<path d="M300.292 258.761C300.265 267.276 297.644 275.624 292.721 282.585C287.923 289.366 281.045 294.635 273.238 297.478C265.125 300.432 256.14 300.765 247.833 298.407C239.832 296.133 232.649 291.418 227.338 285.012C221.943 278.508 218.643 270.354 218.019 261.923C217.381 253.381 219.406 244.756 223.857 237.434C228.142 230.362 234.562 224.662 242.092 221.237C249.969 217.659 258.941 216.675 267.414 218.408C275.595 220.086 283.139 224.288 288.907 230.32C294.662 236.352 298.503 244.076 299.807 252.313C300.126 254.435 300.278 256.598 300.292 258.761C300.292 259.274 301.097 259.288 301.097 258.761C301.069 250.053 298.365 241.455 293.289 234.369C288.381 227.519 281.461 222.222 273.543 219.31C265.278 216.273 256.07 215.94 247.611 218.339C239.458 220.655 232.08 225.48 226.7 232.026C221.222 238.668 217.88 246.905 217.215 255.503C216.535 264.211 218.615 273.044 223.15 280.519C227.518 287.73 234.077 293.568 241.773 297.048C249.761 300.654 258.802 301.68 267.4 299.96C275.775 298.282 283.555 293.984 289.462 287.799C295.356 281.628 299.308 273.682 300.611 265.237C300.944 263.102 301.097 260.938 301.11 258.775C301.097 258.248 300.292 258.248 300.292 258.761Z" fill="black"/>
<path d="M300.292 258.761C300.265 267.276 297.644 275.624 292.721 282.585C287.923 289.366 281.045 294.635 273.238 297.478C265.125 300.432 256.14 300.765 247.833 298.407C239.832 296.133 232.649 291.418 227.338 285.012C221.943 278.508 218.643 270.354 218.019 261.923C217.381 253.381 219.406 244.756 223.857 237.434C228.142 230.362 234.562 224.662 242.092 221.237C249.969 217.659 258.941 216.675 267.414 218.408C275.595 220.086 283.139 224.288 288.907 230.32C294.662 236.352 298.503 244.076 299.807 252.313C300.126 254.435 300.278 256.598 300.292 258.761ZM300.292 258.761C300.292 259.274 301.097 259.288 301.097 258.761C301.069 250.053 298.365 241.455 293.289 234.369C288.381 227.519 281.461 222.222 273.543 219.31C265.278 216.273 256.07 215.94 247.611 218.339C239.458 220.655 232.08 225.48 226.7 232.026C221.222 238.668 217.88 246.905 217.215 255.503C216.535 264.211 218.615 273.044 223.15 280.519C227.518 287.73 234.077 293.568 241.773 297.048C249.761 300.654 258.802 301.68 267.4 299.96C275.775 298.282 283.555 293.984 289.462 287.799C295.356 281.628 299.308 273.682 300.611 265.237C300.944 263.102 301.097 260.938 301.11 258.775C301.097 258.248 300.292 258.248 300.292 258.761Z" stroke="black" stroke-miterlimit="10"/>
<path d="M259.093 370.821C197.108 370.821 146.853 320.567 146.853 258.581C146.853 196.595 197.108 146.341 259.093 146.341C321.079 146.341 371.333 196.595 371.333 258.581C371.333 320.581 321.079 370.821 259.093 370.821ZM259.093 32.5203C134.234 32.5203 33.0187 133.736 33.0187 258.595C33.0187 383.454 134.234 484.67 259.093 484.67C383.952 484.67 485.168 383.454 485.168 258.595C485.168 133.736 383.952 32.5203 259.093 32.5203Z" fill="white"/>
<path d="M259.093 370.821C197.108 370.821 146.853 320.567 146.853 258.581C146.853 196.595 197.108 146.341 259.093 146.341C321.079 146.341 371.333 196.595 371.333 258.581C371.333 320.581 321.079 370.821 259.093 370.821ZM259.093 32.5203C134.234 32.5203 33.0187 133.736 33.0187 258.595C33.0187 383.454 134.234 484.67 259.093 484.67C383.952 484.67 485.168 383.454 485.168 258.595C485.168 133.736 383.952 32.5203 259.093 32.5203Z" stroke="black" stroke-miterlimit="10"/>
</svg>
