<svg width="249" height="53" viewBox="0 0 249 53" fill="none" xmlns="http://www.w3.org/2000/svg">
<path d="M0.0148926 1.23602H38.9349V51.216H32.2849V6.83602H6.66489V51.216H0.0148926V1.23602Z" fill="#2D9CE5"/>
<path d="M48.4489 1.23602H70.3589C75.4455 1.23602 79.2722 2.54268 81.8389 5.15602C84.4055 7.72268 85.6889 11.3394 85.6889 16.006C85.6889 20.6727 84.4055 24.3127 81.8389 26.926C79.2722 29.4927 75.4455 30.776 70.3589 30.776H55.0989V51.216H48.4489V1.23602ZM68.1189 25.176C71.8989 25.176 74.6522 24.406 76.3789 22.866C78.1522 21.2794 79.0389 18.9927 79.0389 16.006C79.0389 13.0194 78.1522 10.756 76.3789 9.21602C74.6522 7.62935 71.8989 6.83602 68.1189 6.83602H55.0989V25.176H68.1189Z" fill="#2D9CE5"/>
<path d="M113.579 52.336C109.613 52.336 106.136 51.636 103.149 50.236C100.163 48.7893 97.6662 46.8527 95.6595 44.426C93.6528 41.9994 92.1362 39.2227 91.1095 36.096C90.1295 32.9694 89.6395 29.6794 89.6395 26.226C89.6395 22.8194 90.1295 19.5527 91.1095 16.426C92.1362 13.2527 93.6528 10.4527 95.6595 8.02602C97.6662 5.59935 100.163 3.66268 103.149 2.21602C106.136 0.769352 109.613 0.0460205 113.579 0.0460205C117.546 0.0460205 121.023 0.769352 124.009 2.21602C126.996 3.66268 129.493 5.59935 131.499 8.02602C133.506 10.4527 134.999 13.2527 135.979 16.426C137.006 19.5527 137.52 22.8194 137.52 26.226C137.52 29.6794 137.006 32.9694 135.979 36.096C134.999 39.2227 133.506 41.9994 131.499 44.426C129.493 46.8527 126.996 48.7893 124.009 50.236C121.023 51.636 117.546 52.336 113.579 52.336ZM113.579 46.806C116.613 46.806 119.226 46.2227 121.42 45.056C123.613 43.8427 125.41 42.256 126.81 40.296C128.21 38.336 129.236 36.1427 129.889 33.716C130.543 31.2427 130.869 28.746 130.869 26.226C130.869 23.706 130.543 21.2327 129.889 18.806C129.236 16.3327 128.21 14.116 126.81 12.156C125.41 10.196 123.613 8.63269 121.42 7.46602C119.226 6.25269 116.613 5.64602 113.579 5.64602C110.546 5.64602 107.933 6.25269 105.74 7.46602C103.546 8.63269 101.75 10.196 100.35 12.156C98.9495 14.116 97.9228 16.3327 97.2695 18.806C96.6162 21.2327 96.2895 23.706 96.2895 26.226C96.2895 28.746 96.6162 31.2427 97.2695 33.716C97.9228 36.1427 98.9495 38.336 100.35 40.296C101.75 42.256 103.546 43.8427 105.74 45.056C107.933 46.2227 110.546 46.806 113.579 46.806Z" fill="#2D9CE5"/>
<path d="M144.363 1.23602H153.463L169.213 43.236L185.033 1.23602H194.133V51.216H187.833V9.63602H187.693L172.083 51.216H166.413L150.803 9.63602H150.663V51.216H144.363V1.23602Z" fill="#2D9CE5"/>
<path d="M224.94 52.336C220.973 52.336 217.496 51.636 214.51 50.236C211.523 48.7893 209.026 46.8527 207.02 44.426C205.013 41.9994 203.496 39.2227 202.47 36.096C201.49 32.9694 201 29.6794 201 26.226C201 22.8194 201.49 19.5527 202.47 16.426C203.496 13.2527 205.013 10.4527 207.02 8.02602C209.026 5.59935 211.523 3.66268 214.51 2.21602C217.496 0.769352 220.973 0.0460205 224.94 0.0460205C228.906 0.0460205 232.383 0.769352 235.37 2.21602C238.356 3.66268 240.853 5.59935 242.86 8.02602C244.866 10.4527 246.36 13.2527 247.34 16.426C248.366 19.5527 248.88 22.8194 248.88 26.226C248.88 29.6794 248.366 32.9694 247.34 36.096C246.36 39.2227 244.866 41.9994 242.86 44.426C240.853 46.8527 238.356 48.7893 235.37 50.236C232.383 51.636 228.906 52.336 224.94 52.336ZM224.94 46.806C227.973 46.806 230.586 46.2227 232.78 45.056C234.973 43.8427 236.77 42.256 238.17 40.296C239.57 38.336 240.596 36.1427 241.25 33.716C241.903 31.2427 242.23 28.746 242.23 26.226C242.23 23.706 241.903 21.2327 241.25 18.806C240.596 16.3327 239.57 14.116 238.17 12.156C236.77 10.196 234.973 8.63269 232.78 7.46602C230.586 6.25269 227.973 5.64602 224.94 5.64602C221.906 5.64602 219.293 6.25269 217.1 7.46602C214.906 8.63269 213.11 10.196 211.71 12.156C210.31 14.116 209.283 16.3327 208.63 18.806C207.976 21.2327 207.65 23.706 207.65 26.226C207.65 28.746 207.976 31.2427 208.63 33.716C209.283 36.1427 210.31 38.336 211.71 40.296C213.11 42.256 214.906 43.8427 217.1 45.056C219.293 46.2227 221.906 46.806 224.94 46.806Z" fill="#2D9CE5"/>
</svg>
