<svg width="81" height="82" viewBox="0 0 81 82" fill="none" xmlns="http://www.w3.org/2000/svg">
<path d="M75.5368 58.3601C66.0313 77.6384 42.6946 85.5602 23.4175 76.0541C4.14042 66.548 -3.78701 43.2159 5.71848 23.9376C15.2302 4.65306 38.5607 -3.2687 57.8439 6.23741C77.121 15.7435 85.0423 39.0818 75.5368 58.3601Z" stroke="#2D9CE5" stroke-width="2.5" stroke-miterlimit="10"/>
<path d="M35.2622 37.6459C34.4577 37.6459 33.8017 37.1136 33.8017 36.4576V17.204C33.8017 14.1096 36.8773 11.5969 40.6709 11.5969C44.4644 11.5969 47.5524 14.1096 47.5524 17.204V36.4576C47.5524 37.1136 46.8965 37.6459 46.092 37.6459M46.2838 37.3303C46.2838 37.5345 46.1167 37.6954 45.9187 37.6954C45.7145 37.6954 45.5536 37.5345 45.5536 37.3303C45.5536 37.126 45.7145 36.9651 45.9187 36.9651C46.1229 36.9589 46.2838 37.126 46.2838 37.3303ZM35.6335 37.3303C35.6335 37.5345 35.4664 37.6954 35.2683 37.6954C35.0641 37.6954 34.9032 37.5345 34.9032 37.3303C34.9032 37.126 35.0641 36.9651 35.2683 36.9651C35.4664 36.9589 35.6335 37.126 35.6335 37.3303ZM51.674 68.2994H30.825C25.6143 68.2994 21.3938 64.0909 21.3938 58.8923V36.8723C21.3938 31.6798 25.6143 27.4652 30.825 27.4652H51.674C56.8847 27.4652 61.1052 31.6798 61.1052 36.8723V58.8985C61.1052 64.0909 56.8785 68.2994 51.674 68.2994Z" stroke="#2D9CE5" stroke-width="2.5" stroke-miterlimit="10"/>
</svg>
