<svg width="81" height="81" viewBox="0 0 81 81" fill="none" xmlns="http://www.w3.org/2000/svg">
<path d="M75.5263 57.7578C66.0208 77.0361 42.6841 84.9579 23.407 75.4518C4.12992 65.9457 -3.79751 42.6136 5.70798 23.3353C15.2197 4.05076 38.5502 -3.87099 57.8334 5.63512C77.1105 15.1412 85.0318 38.4795 75.5263 57.7578Z" stroke="#2D9CE5" stroke-width="2.5" stroke-miterlimit="10"/>
<g clip-path="url(#clip0_266_2)">
<path d="M20.5724 28.0245C20.8259 28.0245 21.0213 28.0245 21.2207 28.0245C35.1014 28.0245 48.982 28.0413 62.8585 28.0034C64.2923 27.9992 65.3313 29.0208 64.9739 30.6604C63.7895 36.0669 62.6923 41.4944 61.5619 46.9134C61.2959 48.1873 60.7016 48.6876 59.4258 48.6876C48.2506 48.6918 37.0796 48.6918 25.9044 48.6918C25.7091 48.6918 25.5096 48.6918 25.2229 48.6918C25.5636 50.2178 25.8961 51.6935 26.2369 53.2238C26.4322 53.2238 26.6109 53.2238 26.7896 53.2238C37.3996 53.2238 48.0054 53.2238 58.6154 53.2238C58.8107 53.2238 59.0185 53.2238 59.2055 53.2742C59.6959 53.4045 60.0076 53.867 59.9785 54.3715C59.9494 54.8802 59.5837 55.2838 59.0767 55.3594C58.9312 55.3805 58.7775 55.3805 58.6279 55.3805C47.8849 55.3805 37.1461 55.3805 26.4031 55.3805C24.9735 55.3805 24.4332 54.939 24.1174 53.5265C21.894 43.6595 19.6664 33.7967 17.4472 23.9297C17.3724 23.5891 17.2394 23.4756 16.8862 23.4798C15.6809 23.5093 14.4716 23.4966 13.2581 23.4924C12.4934 23.4882 12.0362 23.0762 12.0445 22.4078C12.0529 21.752 12.4851 21.3526 13.2331 21.3484C14.6295 21.34 16.0217 21.3442 17.4181 21.3484C18.5402 21.3526 19.176 21.8739 19.4254 22.9795C19.7662 24.4846 20.1028 25.9897 20.4394 27.4947C20.4768 27.6587 20.5226 27.8185 20.5724 28.0245ZM24.7366 46.5435C24.9444 46.5435 25.1106 46.5435 25.2727 46.5435C36.4936 46.5435 47.7187 46.5435 58.9395 46.5519C59.3177 46.5519 59.484 46.4678 59.5671 46.0642C60.6268 40.9226 61.7032 35.7852 62.7754 30.6436C62.8045 30.5049 62.8128 30.3619 62.8336 30.2064C48.8906 30.2064 35.0058 30.2064 21.0545 30.2064C22.2846 35.6759 23.5065 41.0992 24.7366 46.5435Z" fill="#2D9CE5"/>
<path d="M30.4635 65.3445C27.9741 65.3361 25.9917 63.3013 26.0042 60.7705C26.0125 58.2858 28.024 56.2679 30.4884 56.2637C32.957 56.2595 34.9809 58.3111 34.9768 60.8209C34.9726 63.3265 32.9528 65.3529 30.4635 65.3445ZM30.5258 58.433C29.2375 58.412 28.1611 59.4504 28.1279 60.7452C28.0946 62.0569 29.1544 63.1752 30.4468 63.192C31.7601 63.2088 32.8282 62.1536 32.8406 60.8251C32.849 59.5134 31.8183 58.454 30.5258 58.433Z" fill="#2D9CE5"/>
<path d="M54.3307 65.3404C51.8704 65.3277 49.8756 63.2972 49.8839 60.8041C49.8922 58.2859 51.8995 56.2553 54.3848 56.2595C56.8534 56.2637 58.8606 58.3111 58.8648 60.8294C58.8648 63.3224 56.8243 65.353 54.3307 65.3404ZM54.3931 58.4372C53.0673 58.4288 52.0117 59.4799 52.0117 60.8084C52.0117 62.1116 53.059 63.1795 54.339 63.1921C55.6481 63.2047 56.7121 62.141 56.7162 60.8084C56.7204 59.4967 55.6897 58.4415 54.3931 58.4372Z" fill="#2D9CE5"/>
</g>
<defs>
<clipPath id="clip0_266_2">
<rect width="53" height="44" fill="white" transform="translate(12.0446 21.3445)"/>
</clipPath>
</defs>
</svg>
