<svg width="88" height="81" viewBox="0 0 88 81" fill="none" xmlns="http://www.w3.org/2000/svg">
<path d="M76.0119 57.5929C66.5031 76.8712 43.17 84.7913 23.8917 75.2825C4.61333 65.7856 -3.31852 42.4524 6.19022 23.1741C15.699 3.89581 39.0321 -4.03605 58.3104 5.47269C77.5888 14.9814 85.5206 38.3146 76.0119 57.5929Z" stroke="#2D9CE5" stroke-width="2.5" stroke-miterlimit="10"/>
<path d="M20.7018 31.9413C21.8045 30.836 22.9147 29.7231 24.0328 28.6026C26.4603 31.0334 28.9158 33.4919 31.3792 35.9581C34.05 38.6321 36.7299 41.3152 39.3931 43.9821L40.2779 44.8682L41.1624 43.9818C53.8862 31.2304 66.5168 18.5746 79.1261 5.94021C81.381 8.21089 83.5115 10.3556 85.5876 12.4442C70.557 27.4898 55.4944 42.5672 40.4755 57.6033C32.9234 50.0416 25.3121 42.421 17.773 34.8768C18.7434 33.9043 19.7196 32.9258 20.7018 31.9413Z" fill="white" stroke="#2D9CE5" stroke-width="2.5"/>
</svg>
